<?xml version="1.0" encoding="utf-8"?>
<!-- Generator: Adobe Illustrator 19.0.0, SVG Export Plug-In . SVG Version: 6.00 Build 0)  -->
<svg version="1.1" id="Capa_1" xmlns="http://www.w3.org/2000/svg" xmlns:xlink="http://www.w3.org/1999/xlink" x="0px" y="0px"
	 width="12" height="12" viewBox="0 0 33.4 19.5" style="enable-background:new 0 0 33.4 19.5;" xml:space="preserve">
<g id="XMLID_2_" fill="#FFFFFF">
	<path id="XMLID_3_" d="M33.1,3.5L17.5,19.1c-0.2,0.2-0.5,0.3-0.8,0.3s-0.6-0.1-0.8-0.3L0.3,3.5C0.1,3.3,0,3,0,2.8S0.1,2.2,0.3,2
		L2,0.3C2.2,0.1,2.5,0,2.8,0C3,0,3.3,0.1,3.5,0.3l13.2,13.2L29.9,0.3C30.1,0.1,30.4,0,30.6,0s0.6,0.1,0.8,0.3L33.1,2
		c0.2,0.2,0.3,0.5,0.3,0.8S33.3,3.3,33.1,3.5z"/>
</g>
</svg>
