<?xml version="1.0" encoding="utf-8"?>
<!-- Generator: Adobe Illustrator 19.0.0, SVG Export Plug-In . SVG Version: 6.00 Build 0)  -->
<svg version="1.2" baseProfile="tiny" id="Capa_1" xmlns="http://www.w3.org/2000/svg" xmlns:xlink="http://www.w3.org/1999/xlink"
	 x="0px" y="0px" viewBox="0 0 34.2 31.9" xml:space="preserve">
<g>
	<path fill="#FFFFFF" d="M34.1,10l-5.7,18.7c-0.5,1.7-2.4,3.2-4.1,3.2H5.1C3,31.9,0.7,30.2,0,28c-0.3-0.9-0.3-1.9-0.1-2.7
		C0,24.9,7.5,3.5,7.5,3.5C8.4,1.2,8.6,0,10.8,0H28c1,0,1.9,0.4,2.4,1.2c0.6,0.7,0.7,1.7,0.4,2.7l-5.6,18.7c-1,3.2-1.5,3.9-4.1,3.9H3
		c-0.2,0-0.6,0.1-0.8,0.3c-0.2,0.2-0.2,0.4,0,0.9c0.4,1.2,1.9,1.4,3,1.4h19.1c0.7,0,1.7-0.4,1.9-1.2l6.2-20.4
		c0.1-0.4,0.1-0.8,0.1-1.2c0.5,0.2,0.9,0.5,1.2,0.9C34.2,8,34.3,9,34.1,10z M10.4,13.3H23c0.4,0,0.7-0.3,0.9-0.7l0.4-1.3
		c0.1-0.4-0.1-0.7-0.4-0.7H11.3c-0.4,0-0.7,0.3-0.9,0.7L10,12.6C9.8,13,10,13.3,10.4,13.3z M12.1,8h12.6c0.4,0,0.7-0.3,0.9-0.7
		L26.1,6c0.1-0.4-0.1-0.7-0.4-0.7H13c-0.4,0-0.7,0.3-0.9,0.7l-0.4,1.3C11.5,7.7,11.8,8,12.1,8z"/>
</g>
</svg>
