<?xml version="1.0" encoding="utf-8"?>
<svg version="1.1" id="Biology" xmlns="http://www.w3.org/2000/svg" xmlns:xlink="http://www.w3.org/1999/xlink" x="0px" y="0px"
	 viewBox="0 0 12 12" width="12px" height="12px" style="enable-background:new 0 0 12 12;" xml:space="preserve">
<g>
	<path d="M1.9,11.7V0.3h4c1.4,0,2.4,0.3,3.1,0.8c0.7,0.5,1.1,1.3,1.1,2.3c0,0.6-0.1,1-0.4,1.5C9.4,5.3,9,5.6,8.5,5.8
		c0.6,0.1,1,0.4,1.4,0.9c0.3,0.4,0.5,1,0.5,1.6c0,1.1-0.3,1.9-1,2.5s-1.7,0.8-3,0.9H1.9z M4.3,5.1H6c1.2,0,1.8-0.5,1.8-1.4
		c0-0.5-0.2-0.9-0.4-1.1C7,2.3,6.6,2.2,5.9,2.2H4.3V5.1z M4.3,6.7v3.1h2c0.6,0,1-0.1,1.3-0.4C7.9,9.1,8,8.8,8,8.3
		c0-1-0.5-1.6-1.6-1.6H4.3z"/>
</g>
</svg>
