<?xml version="1.0" encoding="utf-8"?>
<svg version="1.1" id="Helix" xmlns="http://www.w3.org/2000/svg" xmlns:xlink="http://www.w3.org/1999/xlink" x="0px" y="0px"
	 viewBox="-404 166 470 470" width="12px" height="12px" style="enable-background:new -404 166 470 470;" xml:space="preserve">
<path d="M-278.6,277.7"/>
<path d="M-282.5,285.2c0.1,0.1,0.1,0.1,0.2,0.1c0.1,0,0.1,0,0.2-0.1c1.2-1,2-1.8,2.7-2.7c1.4-1.8,2.1-3.8,2.1-6.1
	c0-0.2-0.1-0.3-0.3-0.3h-1.2c-0.2,0-0.3,0.1-0.3,0.3c0,0.3,0,0.6,0,0.9l-0.1,0.6c-0.1,0.7-0.3,1.3-0.6,1.8l-0.3,0.6
	c-0.4,0.6-0.8,1.2-1.4,1.8l-0.6,0.6c-0.4,0.4-0.8,0.7-1.3,1.1c-0.1,0.1-0.2,0.3,0,0.4"/>
<path d="M-279.4,301c1.4-1.7,2-3.7,2.1-5.9c0,0,0,0,0,0c0,0,0,0,0,0c0,0,0,0,0-0.1c0,0,0-0.1,0-0.1c0,0,0,0,0,0
	c0-2.2-0.7-4.1-2.1-5.9c-1.2-1.5-2.8-2.8-4.3-3.9c-2.9-2.3-5.7-4.4-5.7-8.6c0-0.2-0.1-0.3-0.3-0.3h-1.2c-0.2,0-0.3,0.1-0.3,0.3
	c0,2.3,0.7,4.3,2.1,6.1c1,1.2,2.2,2.3,3.4,3.2c-1.1,0.9-2.4,2-3.4,3.2c-1.4,1.7-2,3.7-2.1,5.9c0,0,0,0,0,0c0,0,0,0,0,0
	c0,0,0,0,0,0.1c0,0,0,0.1,0,0.1c0,0,0,0,0,0c0,2.2,0.7,4.1,2.1,5.9c1.2,1.5,2.8,2.8,4.3,3.9c2.9,2.3,5.7,4.4,5.7,8.6
	c0,0.2,0.1,0.3,0.3,0.3h1.2c0.2,0,0.3-0.1,0.3-0.3c0-2.3-0.7-4.3-2.1-6.1c-1-1.2-2.2-2.3-3.4-3.2
	C-281.6,303.3-280.4,302.2-279.4,301z M-281.6,300.7l-0.6,0.6c-0.6,0.6-1.3,1.2-2.1,1.7c-2.7-2.1-5.1-4.2-5.1-8.1c0-0.3,0-0.5,0-0.8
	l0.1-0.6c0.1-0.7,0.3-1.3,0.6-1.8l0.3-0.6c0.4-0.7,0.8-1.3,1.4-1.8l0.6-0.6c0.6-0.6,1.3-1.2,2.1-1.7c2.7,2.1,5.1,4.2,5.1,8.1
	c0,0,0,0,0,0c0,0.1,0,0.3-0.1,0.7c-0.1,1.4-1,3.1-1,3.1C-280.5,299.5-281,300.1-281.6,300.7z"/>
<path d="M-289.9,311.8"/>
<path d="M-286,304.8c-0.1-0.1-0.1-0.1-0.2-0.1c-0.1,0-0.1,0-0.2,0.1c-1.2,1-2,1.8-2.7,2.7c-1.4,1.8-2.1,3.8-2.1,6.1
	c0,0.2,0.1,0.3,0.3,0.3h1.2c0.2,0,0.3-0.1,0.3-0.3c0-0.3,0-0.6,0-0.9l0.1-0.6c0.1-0.7,0.3-1.3,0.6-1.8l0.3-0.6
	c0.4-0.6,0.8-1.2,1.4-1.8l0.6-0.6c0.4-0.4,0.8-0.7,1.3-1.1c0.1-0.1,0.2-0.3,0-0.4"/>
</svg>
