<?xml version="1.0" encoding="utf-8"?>
<svg version="1.1" id="Capa_1" xmlns="http://www.w3.org/2000/svg" xmlns:xlink="http://www.w3.org/1999/xlink" x="0px" y="0px" width="12px" height="12px"
	 viewBox="-633 395 12 12" style="enable-background:new -633 395 12 12;" xml:space="preserve">
<path d="M-622.9,395.3l1.9,4.1c-2.6,0.9-2.7,4.2-2.8,5.2c0,0.3-0.8-0.1-1-0.4c-0.5-0.6,0.2-2.5-0.1-3.2c-0.4-1-1.5-0.9-2-0.8
	c-1.2,0.4-1.9,2.8-2.5,3.9c-0.2,0.3-1,0.3-1.2,0c-0.5-0.8,1.5-3.6,1.5-3.6s-2.6,1.5-3.1,1.6c-0.3,0.1-1-0.6-0.7-0.8
	c1.6-1.3,3.5-2.3,3.5-2.3s-2.5,1.1-3.3,0.7c-0.3-0.1-0.4-0.5-0.2-0.8c0.3-0.4,3.2-1.2,3.2-1.2s-2,0-2.4-0.1c-0.3-0.1-0.5-0.6,0.2-1
	c0.1-0.1,5.6-0.3,7.1-0.5C-623.8,396-622.9,395.3-622.9,395.3z"/>
<rect x="-628.5" y="403.8" width="2.9" height="2.9"/>
</svg>
