<?xml version="1.0" encoding="utf-8"?>
<!-- Generator: Adobe Illustrator 19.0.0, SVG Export Plug-In . SVG Version: 6.00 Build 0)  -->
<svg version="1.1" id="Capa_1" xmlns="http://www.w3.org/2000/svg" xmlns:xlink="http://www.w3.org/1999/xlink" x="0px" y="0px"
	 viewBox="-432 233.4 94.6 94.6" style="enable-background:new -432 233.4 94.6 94.6;" xml:space="preserve">
<style type="text/css">
	.st0{fill:#FFFFFF;}
</style>
<g>
	<g>
		<path class="st0" d="M-400.5,268.8h32c0.8,0,1.5-0.7,1.5-1.5v-17.3c0-0.8-0.7-1.5-1.5-1.5h-10.7l-2.1-5.5c-0.2-0.6-0.8-1-1.4-1
			h-17.7c-0.8,0-1.5,0.7-1.5,1.5l0,23.8c0,0.4,0.2,0.8,0.4,1.1C-401.3,268.6-400.9,268.8-400.5,268.8z"/>
		<path class="st0" d="M-416.3,294.5c-0.2-0.2-0.5-0.3-0.7-0.3h-13.9c-0.6,0-1.1,0.5-1.1,1.1v23c0,0.6,0.5,1.1,1.1,1.1h17.2
			c0.6,0,1.1-0.5,1.1-1.1v-20.1c0-0.3-0.1-0.6-0.4-0.8L-416.3,294.5z M-414.8,317.3h-15v-20.8h12.4l2.6,2.3V317.3z"/>
		<path class="st0" d="M-378.7,294.6c-0.2-0.2-0.5-0.3-0.7-0.3h-13.9c-0.6,0-1.1,0.5-1.1,1.1v23c0,0.6,0.5,1.1,1.1,1.1h17.2
			c0.6,0,1.1-0.5,1.1-1.1v-20.1c0-0.3-0.1-0.6-0.4-0.8L-378.7,294.6z M-377.2,317.3h-15v-20.8h12.4l2.6,2.3V317.3z"/>
		<path class="st0" d="M-337.8,297.5l-3.3-2.9c-0.2-0.2-0.5-0.3-0.7-0.3h-13.9c-0.6,0-1.1,0.5-1.1,1.1v23c0,0.6,0.5,1.1,1.1,1.1
			h17.2c0.6,0,1.1-0.5,1.1-1.1v-20.1C-337.4,298-337.5,297.7-337.8,297.5z M-339.6,317.3h-15v-20.8h12.4l2.6,2.3V317.3z"/>
		<polygon class="st0" points="-424.5,279.6 -384.9,279.6 -384.9,288.2 -382.9,288.2 -382.9,279.6 -344.9,279.6 -344.9,288.2 
			-342.9,288.2 -342.9,277.6 -382.9,277.6 -382.9,273.2 -384.8,273.2 -384.8,277.6 -426.5,277.6 -426.5,288.2 -424.5,288.2 		"/>
	</g>
</g>
</svg>
