<?xml version="1.0" encoding="utf-8"?>
<!-- Generator: Adobe Illustrator 19.0.0, SVG Export Plug-In . SVG Version: 6.00 Build 0)  -->
<svg version="1.1" id="Capa_1" xmlns="http://www.w3.org/2000/svg" xmlns:xlink="http://www.w3.org/1999/xlink" x="0px" y="0px"
	 viewBox="-473 275 12 12" style="enable-background:new -473 275 12 12;" xml:space="preserve">
<style type="text/css">
	.st0{fill:#FFFFFF;}
</style>
<g>
	<path class="st0" d="M-461.1,282.2l-2.1,4c-0.1,0.2-0.4,0.4-0.6,0.4l-8.5,0c-0.2,0-0.4-0.1-0.5-0.2c-0.1-0.1-0.2-0.3-0.2-0.5l0-6.6
		c0-0.4,0.3-0.7,0.7-0.7l0.6,0v0.6h-0.4c-0.1,0-0.2,0-0.2,0.1c-0.1,0.1-0.1,0.1-0.1,0.2l0,6.2c0,0.2,0.1,0.3,0.3,0.3h0.4l2-4.1
		c0.1-0.2,0.3-0.4,0.6-0.4h4.9l0-1.6c0.3,0,0.6,0.3,0.6,0.6v1h2.3C-461.1,281.6-460.9,281.9-461.1,282.2z M-471.3,284
		c0-2,0-8.1,0-8.1c0-0.3,0.2-0.6,0.6-0.6h4.4c0.1,0,0.1,0,0.2,0.1l1.4,1.6c0,0,0.1,0.1,0.1,0.2v4h-0.5v-3.7c0-0.1-0.1-0.1-0.1-0.1
		h-1.1c-0.1,0-0.2-0.1-0.2-0.2v-1.2c0-0.1-0.1-0.1-0.1-0.1h-4.1c0,0-0.1,0-0.1,0.1v7.6l-0.4,0.7C-471.2,284.2-471.3,284.2-471.3,284
		z M-466.1,276.9h0.7l-0.7-0.8C-466.1,276.2-466.1,276.9-466.1,276.9z M-465.8,277.9h-4.3c-0.2,0-0.3,0.1-0.3,0.3
		c0,0.2,0.1,0.3,0.3,0.3h4.3c0.2,0,0.3-0.1,0.3-0.3C-465.5,278-465.7,277.9-465.8,277.9z M-465.5,279.8c0-0.2-0.1-0.3-0.3-0.3h-4.3
		c-0.2,0-0.3,0.1-0.3,0.3c0,0.2,0.1,0.3,0.3,0.3h4.3C-465.7,280.1-465.5,280-465.5,279.8z M-470.4,281.5c0,0.2,0.1,0.3,0.3,0.3h0.1
		c0.2-0.5,0.6-0.6,0.6-0.6h-0.7C-470.3,281.2-470.4,281.4-470.4,281.5z"/>
</g>
</svg>
