<?xml version="1.0" encoding="utf-8"?>
<!-- Generator: Adobe Illustrator 19.0.0, SVG Export Plug-In . SVG Version: 6.00 Build 0)  -->
<svg version="1.1" id="Capa_1" xmlns="http://www.w3.org/2000/svg" xmlns:xlink="http://www.w3.org/1999/xlink" x="0px" y="0px"
	 viewBox="0 0 53.5 52.5" style="enable-background:new 0 0 53.5 52.5;" xml:space="preserve">
<g id="XMLID_184_">
	<path id="XMLID_185_" d="M51.5,32.2H44c0,4.2-0.9,7.3-2.2,9.7l7,7c0.8,0.8,0.8,2.2,0,3c-0.4,0.4-1,0.6-1.5,0.6s-1.1-0.2-1.5-0.6
		L39,45.3c0,0-4.4,4-10.1,4v-30h-4.3v30c-6.1,0-10.5-4.4-10.5-4.4l-6.1,6.9c-0.4,0.5-1,0.7-1.6,0.7c-0.5,0-1-0.2-1.4-0.5
		c-0.9-0.8-0.9-2.1-0.2-3l6.8-7.6c-1.2-2.3-1.9-5.3-1.9-9.2H2.2c-1.2,0-2.1-1-2.1-2.1s1-2.1,2.1-2.1h7.5c0-4.3,0-7.6,0-9.8l-5.8-5.8
		c-0.8-0.8-0.8-2.2,0-3s2.2-0.8,3,0l5.8,5.8h28.3l5.8-5.8c0.8-0.8,2.2-0.8,3,0s0.8,2.2,0,3L44,18.1c0,2.2,0,5.6,0,9.8h7.5
		c1.2,0,2.1,1,2.1,2.1S52.6,32.2,51.5,32.2z M16.1,10.8c0-5.9,4.8-10.7,10.7-10.7s10.7,4.8,10.7,10.7H16.1z"/>
</g>
</svg>
