<?xml version="1.0" encoding="utf-8"?>
<svg version="1.1" id="Capa_1" xmlns="http://www.w3.org/2000/svg" xmlns:xlink="http://www.w3.org/1999/xlink" x="0px" y="0px"
	 viewBox="0 0 97.7 105.1" style="enable-background:new 0 0 97.7 105.1;" xml:space="preserve">
<path d="M56.2,0.8c10.9,2.7,18.6,9.2,23.1,19.5c0.5,1.1,0.9,2.3,1.2,3.5c0.2,0.6,0.5,0.9,1.1,0.8c2.1,0,4.2,0,6.2,0
	c-3.6,3.6-7.3,7.3-10.9,10.8c-3.5-3.5-7.1-7.1-10.8-10.8c2.2,0,4.6,0,7,0C73,24,72.8,23.5,72.6,23c-4.3-10.6-16-17.2-27.3-15.5
	c-4.3,0.7-8.2,2.2-11.7,4.8c-0.4,0.3-1,0.5-1.5,0.5c-3,0-6,0-9,0c-0.1-0.1-0.1-0.2-0.2-0.3c1.9-1.8,3.6-3.7,5.6-5.3
	c5-4.1,10.8-6.4,17.2-7C51.1-0.3,54.6,0.4,56.2,0.8z"/>
<path d="M61.1,17.2c0,7.5,0,15,0,22.6c9.6,0,19.1,0,28.7,0c0,21.8,0,43.5,0,65.3c-20.3,0-40.6,0-61.1,0c0-7.5,0-15,0-22.6
	c-9.6,0-19.2,0-28.8,0C0,60.7,0,39,0,17.2C20.3,17.2,40.7,17.2,61.1,17.2z M54.9,25.1c-16.3,0-32.5,0-48.7,0c0,17.1,0,34.2,0,51.2
	c16.3,0,32.5,0,48.7,0C54.9,59.2,54.9,42.2,54.9,25.1z M83.6,47.8c-7.5,0-15,0-22.4,0c0,2.8,0,5.5,0,8.4c6,0,11.9,0,17.8,0
	c0,1.3,0,2.6,0,3.9c-6,0-11.9,0-17.8,0c0,1.9,0,3.8,0,5.7c6,0,11.9,0,17.8,0c0,1.4,0,2.6,0,4c-6,0-11.9,0-17.8,0c0,2.5,0,4.8,0,7.3
	c6,0,11.9,0,17.8,0c0,1.3,0,2.6,0,3.9c-6,0-11.9,0-17.8,0c-0.1,0.6-0.1,1.1-0.1,1.6c-8.7,0-17.3,0-25.9,0c0,5.5,0,10.9,0,16.4
	c16.2,0,32.3,0,48.5,0C83.6,81.9,83.6,64.9,83.6,47.8z"/>
<path d="M11,58.1c0-1.3,0-2.5,0-3.8c13.1,0,26.1,0,39.2,0c0,1.3,0,2.5,0,3.8C37.2,58.1,24.2,58.1,11,58.1z"/>
<path d="M11,37.3c0-1.3,0-2.5,0-3.8c13,0,26.1,0,39.2,0c0,1.2,0,2.5,0,3.8C37.2,37.3,24.2,37.3,11,37.3z"/>
<path d="M11,47c0-1.3,0-2.5,0-3.8c13,0,26.1,0,39.2,0c0,1.2,0,2.5,0,3.8C37.2,47,24.2,47,11,47z"/>
</svg>
