<?xml version="1.0" encoding="iso-8859-1"?>
<!-- Generator: Adobe Illustrator 18.1.1, SVG Export Plug-In . SVG Version: 6.00 Build 0)  -->
<svg version="1.1" id="Capa_1" xmlns="http://www.w3.org/2000/svg" xmlns:xlink="http://www.w3.org/1999/xlink" x="0px" y="0px"
	 width="12px" height="12px" viewBox="0 0 373.591 373.591" style="enable-background:new 0 0 373.591 373.591;" xml:space="preserve">
<g>
	<g id="Layer_5_56_">
		<g>
			<path d="M361.255,112.942c0,0-15.381,0-20.508,0c-2.306,0-1.958-3.427-1.958-3.427v-10.28c0-13.496-10.98-24.476-24.476-24.476
				H146.856c-1.125,0-2.485-2.259-4.927-7.007c-0.363-0.705-0.728-1.414-1.1-2.119c-8.535-16.173-19.613-19.568-27.403-19.568
				H69.859c-11.013,0-17.586,6.398-25.33,19.017c-0.504,0.822-0.999,1.656-1.494,2.49c-2.496,4.208-4.375,7.188-5.827,7.188H24.476
				C10.98,74.76,0,85.74,0,99.236v203.481c0,11.96,8.625,21.937,19.979,24.055c1.373,0.482,2.879,0.753,4.497,0.753h298.596
				c8.077,0,15.843-6.506,17.258-14.458l33.037-185.666C374.783,119.448,369.332,112.942,361.255,112.942z M24.477,94.34h12.732
				c12.717,0,18.706-10.099,22.669-16.781c0.444-0.748,0.888-1.498,1.34-2.236c3.941-6.421,7.021-9.678,10.763-9.678h41.446
				c1.303,0,5.27,0,10.085,9.126c0.34,0.645,0.673,1.293,1.005,1.938c3.611,7.021,9.07,17.63,22.339,17.63h167.457
				c2.653,0,4.895,2.242,4.895,4.895v9.79c0,0,0.305,3.917-1.958,3.917c-63.648,0-254.592,0-254.592,0
				c-8.077,0-15.843,6.506-17.258,14.458L20.835,265.457c0,0-1.254,4.62-1.254-3.947c0-40.569,0-162.275,0-162.275
				C19.581,96.582,21.823,94.34,24.477,94.34z"/>
		</g>
	</g>
</g>
</svg>
