<?xml version="1.0" encoding="utf-8"?>
<!-- Generator: Adobe Illustrator 19.0.0, SVG Export Plug-In . SVG Version: 6.00 Build 0)  -->
<svg version="1.1" id="Capa_1" xmlns="http://www.w3.org/2000/svg" xmlns:xlink="http://www.w3.org/1999/xlink" x="0px" y="0px"
	 width="12px" height="12px" viewBox="0 0 34.3 51.6" style="enable-background:new 0 0 34.3 51.6;" xml:space="preserve">
<g id="XMLID_197_">
	<path id="XMLID_198_" d="M33.2,23.2L21,49.1c-0.7,1.5-2.2,2.4-3.9,2.4s-3.1-0.9-3.8-2.4L1.1,23.2c-0.9-1.8-1.1-4-1.1-6
		C0,7.8,7.7,0.1,17.1,0.1s17.1,7.7,17.1,17.1C34.3,19.3,34,21.4,33.2,23.2z M17.1,8.7c-4.7,0-8.6,3.9-8.6,8.6s3.9,8.6,8.6,8.6
		s8.6-3.9,8.6-8.6S21.9,8.7,17.1,8.7z"/>
</g>
</svg>
