<?xml version="1.0" encoding="utf-8"?>
<svg version="1.1" id="Helix" xmlns="http://www.w3.org/2000/svg" xmlns:xlink="http://www.w3.org/1999/xlink" x="0px" y="0px"
	 viewBox="-633 395 12 12" style="enable-background:new -633 395 12 12;" xml:space="preserve" width="12px" height="12px">
<path d="M-625.8,395.5"/>
<path d="M-626,397.9c0.6-0.3,1-0.6,1.3-0.9c0.7-0.6,1-1.2,1-1.9c0-0.1,0-0.1-0.1-0.1h-0.6c-0.1,0-0.1,0-0.1,0.1s0,0.2,0,0.3v0.2
	c0,0.2-0.1,0.4-0.3,0.6l-0.1,0.2c-0.2,0.2-0.4,0.4-0.7,0.6l-0.3,0.2c-0.2,0.1-0.6,0.3-0.8,0.4"/>
<path d="M-624.7,403c0.7-0.5,1-1.2,1-1.9l0,0l0,0l0,0l0,0l0,0c0-0.7-0.3-1.3-1-1.9c-0.6-0.5-1.3-0.9-2.1-1.2
	c-1.4-0.7-2.7-1.4-2.7-2.7c0-0.1,0-0.1-0.1-0.1h-0.6c-0.1,0-0.1,0-0.1,0.1c0,0.7,0.3,1.4,1,1.9c0.5,0.4,1,0.6,1.5,0.9
	c-0.5,0.3-1.1,0.6-1.6,1c-0.6,0.6-0.9,1.2-0.9,1.9l0,0l0,0l0,0l0,0l0,0c0,0.7,0.3,1.3,1,1.9c0.6,0.5,1.3,0.9,2.1,1.2
	c1.4,0.7,2.7,1.4,2.7,2.7c0,0.1,0,0.1,0.1,0.1h0.6c0.1,0,0.1,0,0.1-0.1c0-0.7-0.3-1.4-1-1.9c-0.5-0.4-1.1-0.7-1.6-1
	C-625.7,403.6-625.2,403.2-624.7,403z M-625.7,402.9l-0.3,0.2c-0.3,0.2-0.6,0.4-1,0.5c-1.3-0.7-2.4-1.3-2.4-2.6c0-0.1,0-0.2,0-0.3
	v-0.2c0-0.2,0.4-0.8,0.4-0.8c0.2-0.2,0.4-0.4,0.7-0.6l0.3-0.2c0.3-0.2,0.6-0.4,1-0.5c1.3,0.7,2.4,1.3,2.4,2.6l0,0c0,0,0,0.1,0,0.2
	C-624.6,402.1-625.5,402.6-625.7,402.9z"/>
<path d="M-629.4,406.4"/>
<path d="M-628,404.1c-0.6,0.3-1,0.6-1.3,0.9c-0.7,0.6-1,1.2-1,1.9c0,0.1,0,0.1,0.1,0.1h0.5c0.1,0,0.1,0,0.1-0.1s0.1-0.5,0.1-0.5
	c0-0.2,0.4-0.8,0.4-0.8c0.2-0.2,0.4-0.4,0.7-0.6l0.3-0.2c0.2-0.1,0.5-0.3,0.7-0.4"/>
</svg>
