<?xml version="1.0" encoding="utf-8"?>
<!-- Generator: Adobe Illustrator 21.1.0, SVG Export Plug-In . SVG Version: 6.00 Build 0)  -->
<svg version="1.1" id="Capa_1" xmlns="http://www.w3.org/2000/svg" xmlns:xlink="http://www.w3.org/1999/xlink" x="0px" y="0px"
	 viewBox="0 0 28 28" style="enable-background:new 0 0 28 28;" xml:space="preserve">
<style type="text/css">
	.st0{fill:#FFFFFF;}
</style>
<g>
	<g>
		<path class="st0" d="M27.2,13.4L14.6,0.8c-0.5-0.5-1.2-0.8-2-0.8H2.8C1.3,0,0,1.3,0,2.8v9.8c0,0.8,0.3,1.5,0.8,2l12.6,12.6
			c0.5,0.5,1.2,0.8,2,0.8s1.5-0.3,2-0.8l9.8-9.8c0.5-0.5,0.8-1.2,0.8-2C28,14.6,27.7,13.9,27.2,13.4z M4.9,7C3.7,7,2.8,6.1,2.8,4.9
			s0.9-2.1,2.1-2.1S7,3.7,7,4.9S6.1,7,4.9,7z"/>
	</g>
</g>
</svg>
