<?xml version="1.0" encoding="utf-8"?>
<!-- Generator: Adobe Illustrator 19.0.0, SVG Export Plug-In . SVG Version: 6.00 Build 0)  -->
<svg version="1.1" id="Capa_1" xmlns="http://www.w3.org/2000/svg" xmlns:xlink="http://www.w3.org/1999/xlink" x="0px" y="0px"
	 viewBox="281.3 186 70.7 55.3" style="enable-background:new 281.3 186 70.7 55.3;" xml:space="preserve">
<g id="XMLID_2_">
	<path id="XMLID_3_" d="M291.6,193.7c0,0.7-0.6,1.3-1.3,1.3h-7.7c-0.7,0-1.3-0.6-1.3-1.3V186c0-0.7,0.6-1.3,1.3-1.3h7.7
		c0.7,0,1.3,0.6,1.3,1.3V193.7z M291.6,209.1c0,0.7-0.6,1.3-1.3,1.3h-7.7c-0.7,0-1.3-0.6-1.3-1.3v-7.7c0-0.7,0.6-1.3,1.3-1.3h7.7
		c0.7,0,1.3,0.6,1.3,1.3V209.1z M291.6,224.6c0,0.7-0.6,1.3-1.3,1.3h-7.7c-0.7,0-1.3-0.6-1.3-1.3v-7.7c0-0.7,0.6-1.3,1.3-1.3h7.7
		c0.7,0,1.3,0.6,1.3,1.3V224.6z M291.6,240c0,0.7-0.6,1.3-1.3,1.3h-7.7c-0.7,0-1.3-0.6-1.3-1.3v-7.7c0-0.7,0.6-1.3,1.3-1.3h7.7
		c0.7,0,1.3,0.6,1.3,1.3V240z M353.3,193.7c0,0.7-0.6,1.3-1.3,1.3h-54c-0.7,0-1.3-0.6-1.3-1.3V186c0-0.7,0.6-1.3,1.3-1.3h54
		c0.7,0,1.3,0.6,1.3,1.3V193.7z M353.3,209.1c0,0.7-0.6,1.3-1.3,1.3h-54c-0.7,0-1.3-0.6-1.3-1.3v-7.7c0-0.7,0.6-1.3,1.3-1.3h54
		c0.7,0,1.3,0.6,1.3,1.3V209.1z M353.3,224.6c0,0.7-0.6,1.3-1.3,1.3h-54c-0.7,0-1.3-0.6-1.3-1.3v-7.7c0-0.7,0.6-1.3,1.3-1.3h54
		c0.7,0,1.3,0.6,1.3,1.3V224.6z M353.3,240c0,0.7-0.6,1.3-1.3,1.3h-54c-0.7,0-1.3-0.6-1.3-1.3v-7.7c0-0.7,0.6-1.3,1.3-1.3h54
		c0.7,0,1.3,0.6,1.3,1.3V240z"/>
</g>
</svg>
