<?xml version="1.0" encoding="utf-8"?>
<!-- Generator: Adobe Illustrator 19.0.0, SVG Export Plug-In . SVG Version: 6.00 Build 0)  -->
<svg version="1.1" id="Lock" xmlns="http://www.w3.org/2000/svg" xmlns:xlink="http://www.w3.org/1999/xlink" x="0px" y="0px"
	 viewBox="-633 394.4 12 12.6" style="enable-background:new -633 394.4 12 12.6;" xml:space="preserve">
<g fill="#444444">
	<path d="M-623,399.8h-0.2v-1.1c0-2-1.6-3.7-3.6-3.8c-0.1,0-0.2,0-0.2,0c-2,0-3.6,1.7-3.6,3.8v1.1h-0.2c-0.4,0-0.7,0.4-0.7,0.8v5.5
		c0,0.5,0.3,0.8,0.7,0.8h7.9c0.4,0,0.7-0.4,0.7-0.8v-5.5C-622.4,400.2-622.7,399.8-623,399.8z M-626.3,403.4v1.7
		c0,0.2-0.2,0.4-0.3,0.4h-0.8c-0.2,0-0.3-0.2-0.3-0.4v-1.7c-0.2-0.2-0.3-0.4-0.3-0.7c0-0.5,0.4-1,0.9-1c0.1,0,0.2,0,0.2,0
		c0.5,0,0.9,0.5,0.9,1C-626,403-626.1,403.2-626.3,403.4z M-624.8,399.8h-2.1h-0.2h-2.1v-1.1c0-1.2,1-2.2,2.2-2.2s2.2,1,2.2,2.2
		L-624.8,399.8L-624.8,399.8z"/>
</g>
</svg>
