<?xml version="1.0" encoding="iso-8859-1"?>
<svg version="1.1" id="Matrix" xmlns="http://www.w3.org/2000/svg" xmlns:xlink="http://www.w3.org/1999/xlink" x="0px" y="0px"
	viewBox="0 0 28.051 28.051" width="12px" height="12px" style="enable-background:new 0 0 28.051 28.051;" xml:space="preserve">
	<g>
		<path d="M25.351,0H2.698C1.446,0,0.434,1.004,0.434,2.232v23.59c0,1.23,1.012,2.229,2.264,2.229h22.653
			c1.248,0,2.266-0.998,2.266-2.229V2.232C27.617,1.004,26.599,0,25.351,0z M8.662,26.373H4.053c-1.101,0-1.994-0.877-1.994-1.963
			v-4.586h6.603C8.662,19.824,8.662,26.373,8.662,26.373z M8.662,17.527H2.059v-6.625h6.603C8.662,10.902,8.662,17.527,8.662,17.527z
			M8.662,8.605H2.059v-4.96c0-1.082,0.894-1.963,1.994-1.963h4.608v6.923H8.662z M17.582,26.373h-6.624v-6.549h6.624V26.373z
			M17.582,17.527h-6.624v-6.625h6.624V17.527z M17.582,8.605h-6.624V1.682h6.624V8.605z M25.989,24.41
			c0,1.086-0.895,1.963-1.992,1.963H19.88v-6.549h6.109V24.41z M25.989,17.527H19.88v-6.625h6.109V17.527z M25.989,8.605H19.88V1.682
			h4.117c1.098,0,1.992,0.881,1.992,1.963V8.605z"/>
		</g>
	</svg>
