<?xml version="1.0" encoding="utf-8"?>
<!-- Generator: Adobe Illustrator 22.1.0, SVG Export Plug-In . SVG Version: 6.00 Build 0)  -->
<svg version="1.1" id="Layer_1" xmlns="http://www.w3.org/2000/svg" xmlns:xlink="http://www.w3.org/1999/xlink" x="0px" y="0px"
	 viewBox="0 0 309.3 309.3" style="enable-background:new 0 0 309.3 309.3;" xml:space="preserve">
<style type="text/css">
	.st0{fill:#5D9ECE;}
	.st1{fill:#2171A3;}
	.st2{fill:#FFFFFF;}
</style>
<g>
	<path class="st0" d="M38.7,0h164.2l87,86.7v203.2c0,10.7-8.7,19.3-19.3,19.3H38.7c-10.7,0-19.3-8.6-19.3-19.3V19.3
		C19.3,8.7,28,0,38.7,0z"/>
	<path class="st1" d="M289.7,87h-67.4c-10.7,0-19.3-8.7-19.3-19.3V0.2L289.7,87z"/>
	<path class="st2" d="M217.4,146.5c3.2,0,4.8-2.8,4.8-5.6c0-2.8-1.7-5.6-4.8-5.6H199c-3.6,0-5.6,3-5.6,6.3V187c0,4,2.3,6.3,5.4,6.3
		c3.1,0,5.4-2.2,5.4-6.3v-12.4h11.2c3.5,0,5.2-2.8,5.2-5.6c0-2.8-1.7-5.5-5.2-5.5h-11.2v-16.9C204.2,146.5,217.4,146.5,217.4,146.5z
		 M155.1,135.4h-13.5c-3.7,0-6.3,2.5-6.3,6.2v45.4c0,4.6,3.7,6.1,6.4,6.1h14.2c16.8,0,27.8-11,27.8-28
		C183.7,147.1,173.3,135.4,155.1,135.4z M155.8,181.9h-8.2v-35.3h7.4c11.2,0,16.1,7.5,16.1,17.9C171,174.3,166.2,181.9,155.8,181.9z
		 M106.3,135.4H93c-3.8,0-5.9,2.5-5.9,6.3V187c0,4,2.4,6.3,5.7,6.3s5.7-2.2,5.7-6.3v-13.2h8.4c10.3,0,18.9-7.3,18.9-19.1
		C125.7,143.2,117.4,135.4,106.3,135.4z M106.1,163.2h-7.7v-17.1h7.7c4.8,0,7.8,3.7,7.8,8.6C113.9,159.4,110.9,163.2,106.1,163.2z"
		/>
</g>
</svg>
