<?xml version="1.0" encoding="utf-8"?>
<svg version="1.1" id="Capa_1" xmlns="http://www.w3.org/2000/svg" xmlns:xlink="http://www.w3.org/1999/xlink" x="0px" y="0px"
	 viewBox="0 0 33.6 33.3" style="enable-background:new 0 0 33.6 33.3;" xml:space="preserve">
<style type="text/css">
	.st0{opacity:0.9;fill:#FFFFFF;enable-background:new;}
</style>
<g>
	<g id="history_1_">
		<path class="st0" d="M17.6,0.7c-5.9,0-11.1,3.2-13.8,8.1L0,4.9v10.9h10.9l-4.7-4.7c2.2-4.2,6.4-7,11.4-7c6.9,0,12.6,5.7,12.6,12.6
			s-5.7,12.6-12.6,12.6c-5.5,0-10.1-3.5-11.9-8.4H2.2c1.8,6.7,8.1,11.7,15.4,11.7c8.9,0,15.9-7.2,15.9-15.9S26.4,0.7,17.6,0.7z
			 M15.1,9.1v8.6l7.9,4.7l1.3-2.2l-6.7-4v-7H15.1z"/>
	</g>
</g>
</svg>
