<?xml version="1.0" encoding="utf-8"?>
<!-- Generator: Adobe Illustrator 18.0.0, SVG Export Plug-In . SVG Version: 6.00 Build 0)  -->
<!DOCTYPE svg PUBLIC "-//W3C//DTD SVG 1.1//EN" "http://www.w3.org/Graphics/SVG/1.1/DTD/svg11.dtd">
<svg version="1.1" id="Capa_1" xmlns="http://www.w3.org/2000/svg" xmlns:xlink="http://www.w3.org/1999/xlink" x="0px" y="0px"
	 width="12px" height="12px" viewBox="220.7 0 836.4 800" enable-background="new 220.7 0 836.4 800" xml:space="preserve">
<g enable-background="new    ">
	<path fill="#EAD063" d="M1044,335.1L861.6,513.1l43.2,251.3c0.5,3.5,0.5,6.5,0.5,10.1c0,13.1-6,25.1-20.6,25.1
		c-7,0-14.1-2.5-20.1-6L638.9,674.9L413.2,793.5c-6.5,3.5-13.1,6-20.1,6c-14.6,0-21.1-12.1-21.1-25.1c0-3.5,0.5-6.5,1-10.1
		l43.2-251.3l-183-177.9c-6-6.5-12.6-15.1-12.6-24.1c0-15.1,15.6-21.1,28.1-23.1l252.3-36.7L614.3,22.5c4.5-9.5,13.1-20.6,24.6-20.6
		c11.6,0,20.1,11.1,24.6,20.6l113.1,228.7l252.3,36.7c12.1,2,28.1,8,28.1,23.1C1057.1,320.1,1050.6,328.6,1044,335.1z"/>
</g>
</svg>
