<svg id="Layer_1" data-name="Layer 1" xmlns="http://www.w3.org/2000/svg" viewBox="0 0 1103.52 200"><defs><style>.cls-1{fill:#342d25;}</style></defs><title>TaxonWorks</title><path class="cls-1" d="M14.2,63.07C24.26,63.07,28,76.31,28,76.31s5.05,15.47,15.35,15.47c7.71,0,9.42-6.32,9.8-9.09,0-.13,0-0.25,0-0.38s0-.5.07-0.76c0-.05,0-0.1,0-0.15a4.56,4.56,0,0,0-2.71-4.82h0a18.22,18.22,0,0,1-8-5.55c-6.4-7.4-3-17,4.5-23.62-3.5-4-8.05-8.66-12-10.77C26.3,32,19.32,39.25,18.79,39.82L18.69,40q-0.9,1.23-1.76,2.48l-0.07.1Q16,43.88,15.09,45.24L15,45.39c-0.5.8-1,1.59-1.47,2.4l-0.3.5q-1.57,2.68-3,5.47L10,54.27q-0.65,1.32-1.26,2.65l-0.06.13Q8,58.47,7.45,59.91l-0.22.55c-0.32.77-.63,1.55-0.92,2.33l-0.24.63q-0.54,1.44-1,2.91l-0.12.37c-0.08.26-.16,0.52-0.24,0.77A12.6,12.6,0,0,1,14.2,63.07Z"/><path class="cls-1" d="M36.15,33c5.35,1.76,11.4,6.83,15.72,11,0.53-.31,1.06-0.61,1.61-0.9a31.06,31.06,0,0,1,7.24-2.67c-2.39-4.94-5.58-12.81-4.88-18.31,1.43-11.17,13.65-12,13.65-12S58.27,12.47,59,22.89c0.35,5,4.67,12.45,7.49,16.79,7-.1,13,2.69,15.75,8a12.48,12.48,0,0,1,.7,1.64h0a5.1,5.1,0,0,0,2.34,2.4c3.64,1.17,7.56,2.55,11.65,4.19a148.81,148.81,0,0,1,17,8.06,0.89,0.89,0,0,0,1-1.42c-27.24-26.14-8-36.35-8-36.35-9.84,14.24,6.6,24.52,25.49,35.14,16.64,9.35,28.42,19.49,41.3,12.67,6.42-3.4,1.94-11-1-15.16a53.74,53.74,0,0,1-5.6-9.24,10.41,10.41,0,0,1-.8-6.61c0.68-3.11-.39-6.78-2.75-10.49-1.75-2.76-5.12-5.68-7.62-7.63a21.18,21.18,0,0,1-4.26-4.42c-9-12.61-32.18-17.89-32.18-17.89h0A97.63,97.63,0,0,0,54,10.16h0A97.4,97.4,0,0,0,34.61,22.89l-0.75.63q-2.16,1.82-4.17,3.81l0,0q-1.17,1.13-2.31,2.31l0,0Q25.07,32,23,34.5l-0.17.2-0.38.46C25.21,32.8,29.65,30.85,36.15,33Zm109.64,0.94A7.74,7.74,0,0,1,156.55,42a7.22,7.22,0,0,1-7.73-.9A7.22,7.22,0,0,1,145.79,33.93Z"/><path class="cls-1" d="M53.17,106.91c-0.2-2-.36-4-0.44-6.3a18.44,18.44,0,0,1-7.22,1.47c-19,0-19.52-18.78-26.22-29.15-7-10.84-16.79.92-17.76,7.24,0,0.3-.09.54-0.13,0.72-0.11.64-.22,1.29-0.32,1.94C1,83.1,1,83.37,1,83.64c-0.12.78-.21,1.56-0.3,2.35,0,0.27-.06.54-0.09,0.81-0.11,1-.21,2.07-0.29,3.11,0,0.11,0,.22,0,0.33Q0.16,91.65.1,93.07q0,0.43,0,.87Q0,95.32,0,96.7c0,0.12,0,.23,0,0.35s0,0.08,0,.12,0,0.08,0,.13c0,0.4,0,.81,0,1.21s0,0.76,0,1.15c0,0.58,0,1.16.06,1.73,0,0.23,0,.47,0,0.7a97.2,97.2,0,0,0,43,76c-7.95-7.83-12.7-17.75-12.7-28.55,0-13.43,7.35-26,19.06-34.44A9,9,0,0,0,53.17,106.91Z"/><path class="cls-1" d="M128.31,170a59.45,59.45,0,0,1-18.3,4.43c-1.07.07-2.19,0.12-3.33,0.12-12.32,0-28.36-4.8-40.71-25.28l-1.62-2.67a16.61,16.61,0,0,0-2.91,9.33c0,13.89,16.65,26.49,36.65,26.49a58.48,58.48,0,0,0,15.89-2c-4.59,2.87-13.84,5.55-21.86,5.55C69.17,186,50,170.76,50,152.72a31.42,31.42,0,0,1,5.75-17.61,8.26,8.26,0,0,0,1.08-7.19h0c-10.55,6.11-17,15.44-17,26.6,0,17.19,15.31,31.89,37,37.89,1.23,0.26,2.46.5,3.7,0.71C96.15,195.74,110,193,119.45,184A35.12,35.12,0,0,0,128.31,170Z"/><path class="cls-1" d="M171,33.85A87.33,87.33,0,0,1,143,160.4l-0.19.17a6.35,6.35,0,0,1,.14-1.3,26.75,26.75,0,0,1,4.37-10.79c7.46-10.69,12.43-27-.29-48.1-7-11.63-21.68-28-51.73-40.11-4.13-1.66-8.12-3.06-11.81-4.23l-1.54-.48-0.18-.06q-1.59-.49-3.1-0.92l-0.15,0-2.93-.81-0.08,0-1.34-.35-0.07,0-2.58-.64-0.14,0-2.27-.53-0.17,0-1-.21h0L67,51.67l-0.18,0-0.71-.15-0.18,0-0.75-.15-0.15,0-0.55-.11-0.18,0L63.68,51l-0.12.42,0,0.14-0.09.32-0.05.18-0.09.31-0.06.22-0.09.32-0.06.23-0.1.35-0.07.24-0.1.39-0.06.24-0.12.47-0.08.31-0.14.56L62.33,56l-0.11.45-0.08.32L62,57.2l-0.09.36-0.1.42-0.09.38-0.1.45-0.09.39-0.11.48-0.09.38-0.13.56-0.11.51L61,61.86l-0.08.4-0.11.55-0.1.46-0.1.51-0.1.49-0.1.52-0.1.5-0.1.54-0.09.5L60,66.9l-0.09.51-0.11.65-0.09.51-0.17,1-0.08.5-0.1.64-0.08.54-0.1.63-0.08.56L59,73.06l-0.08.58-0.09.64-0.08.57-0.09.68-0.07.56-0.09.76-0.06.5q-0.32,2.66-.56,5.48V83q-0.07.84-.13,1.71v0q-0.06.84-.11,1.71v0.08q-0.05.85-.09,1.73v0c-0.15,3-.21,6.22-0.15,9.54a127.22,127.22,0,0,0,.85,12.72c0,0.35.08,0.7,0.13,1.06a103,103,0,0,0,3.61,17,114.36,114.36,0,0,0,5.25,13.18c0.86,1.71,1.78,3.4,2.79,5.07,9.23,15.29,21.52,23,36.58,23,1,0,2.09,0,3.15-.11a55.64,55.64,0,0,0,20.21-5.6c4.93-24.48-8.37-59.28-36.07-88.3A163.2,163.2,0,0,0,81.71,64.4c9.22,6.92,13.87,10.66,19.22,16.27,37.83,39.64,49.7,89.72,26.51,111.86A35.67,35.67,0,0,1,115.52,200a36.48,36.48,0,0,0,15.42-8.64,34.66,34.66,0,0,0,3.76-4.24A97.3,97.3,0,0,0,171,33.85Z"/><path class="cls-1" d="M331.33,44.3H257v14h28.71v95.91h6.22a10.58,10.58,0,0,0,10.58-10.58V58.33h28.87v-14Z"/><path class="cls-1" d="M363,70.23q-15.82,0-25.45,5.55v15.5a41.61,41.61,0,0,1,24-7.34q9.46,0,13.54,4.32t4.08,12.8v4.73h-13.7q-16.15,0-25.12,6.61t-9,18.51a22.75,22.75,0,0,0,7.1,17.21q7.1,6.77,18.84,6.77,16,0,22.35-10.44v9.79h5.24a10.58,10.58,0,0,0,10.58-10.58V101.72Q395.44,70.24,363,70.23Zm16.15,56.44A15,15,0,0,1,374.64,138q-4.49,4.32-12.32,4.32-6.85,0-10.44-3.26a11.51,11.51,0,0,1-3.59-9,11.07,11.07,0,0,1,4.65-9.13q4.65-3.59,13.78-3.59h12.4v9.3Z"/><path class="cls-1" d="M534.45,70.4q-17.62,0-28.38,12.32T495.3,113.62q0,18.27,10.44,30.18t28.71,11.91q18.43,0,29-12.07T573.92,113q0-18.6-10.28-30.58T534.45,70.4ZM551.33,134q-5.79,8.16-16.88,8.16a19.21,19.21,0,0,1-16.47-8.4q-6-8.4-6-20.63,0-12.39,5.87-20.8t16.47-8.4q11.74,0,17.29,8.24t5.55,21.12Q557.12,125.86,551.33,134Z"/><path class="cls-1" d="M638,70.4q-18.43,0-25.77,15.33V82.12a10.58,10.58,0,0,0-10.58-10.58h-5.4v82.7h5.4a10.58,10.58,0,0,0,10.58-10.58V109.38q0-11.9,6-18.51a19,19,0,0,1,14.52-6.61q7.18,0,11.5,4.57T648.63,102v41.62a10.58,10.58,0,0,0,10.58,10.58h5.4V98.29q0-12.88-7.18-20.39T638,70.4Z"/><path class="cls-1" d="M854.92,70.4q-17.62,0-28.38,12.32t-10.77,30.91q0,18.27,10.44,30.18t28.71,11.91q18.43,0,29-12.07T894.39,113q0-18.6-10.28-30.58T854.92,70.4ZM871.8,134q-5.79,8.16-16.88,8.16a19.21,19.21,0,0,1-16.47-8.4q-6-8.4-6-20.63,0-12.39,5.87-20.8t16.47-8.4q11.74,0,17.29,8.24t5.55,21.12Q877.59,125.86,871.8,134Z"/><path class="cls-1" d="M930.53,86.06V82.12a10.58,10.58,0,0,0-10.58-10.58h-5.4v82.7h5.4a10.58,10.58,0,0,0,10.58-10.58V110.2a28.71,28.71,0,0,1,5.38-17.45q5.38-7.34,13.7-7.34a19.28,19.28,0,0,1,7.67,1.47V70.72h-5.06Q936.56,70.72,930.53,86.06Z"/><path class="cls-1" d="M1098.05,117.36q-5.47-5.3-15.09-9.54-0.82-.32-2.85-1.22t-2.85-1.31l-2.53-1.22a14.1,14.1,0,0,1-2.45-1.39q-0.73-.57-2-1.39a7.19,7.19,0,0,1-1.88-1.55,19.29,19.29,0,0,1-1.22-1.79,7.05,7.05,0,0,1-.9-2.12,9.75,9.75,0,0,1-.24-2.2,8.28,8.28,0,0,1,3.34-6.85q3.34-2.61,9.05-2.61,12.56,0,20.55,4.73V74.38q-7.5-3.59-20.88-3.59-12.23,0-20.39,6.2t-8.16,17.13q0,15.5,19.41,23.49,6.85,2.94,9.71,4.32a20.51,20.51,0,0,1,5.63,4.24,9,9,0,0,1,2.77,6.44,8.14,8.14,0,0,1-3.51,6.85q-3.51,2.61-9.87,2.61a44.58,44.58,0,0,1-23.65-7v15.17q9.79,4.89,24.47,4.89,13.37,0,21.21-6.28t7.83-17.37Q1103.52,122.66,1098.05,117.36Z"/><path class="cls-1" d="M475.53,71.38a14.11,14.11,0,0,0-11.65,6.16l-15,22-15-22a14.11,14.11,0,0,0-11.65-6.16H411.54l28.27,41.43-28.27,41.43h10.65a14.11,14.11,0,0,0,11.65-6.16l15-22,15,22a14.11,14.11,0,0,0,11.65,6.16h10.65l-28.27-41.43,28.27-41.43H475.53Z"/><path class="cls-1" d="M1025.71,71.38a14.11,14.11,0,0,0-11.65,6.16l-23.63,34.63V54.88A10.58,10.58,0,0,0,979.85,44.3h-5.51V154.24h5.51a10.58,10.58,0,0,0,10.58-10.58v-30.2l23.63,34.63a14.11,14.11,0,0,0,11.65,6.16h10.65l-28.27-41.43,28.27-41.43h-10.65Z"/><path class="cls-1" d="M792,52.2L773.51,123,755,52.2a10.58,10.58,0,0,0-10.24-7.9h0a10.58,10.58,0,0,0-10.24,7.9L716,123,697.48,52.2a10.58,10.58,0,0,0-10.24-7.9h-8.17l28.76,109.94H716a10.58,10.58,0,0,0,10.24-7.9l18.52-70.8,18.52,70.8a10.58,10.58,0,0,0,10.24,7.9h8.17L810.44,44.3h-8.17A10.58,10.58,0,0,0,792,52.2Z"/></svg>