<svg width="444" height="59" viewBox="0 0 444 59" xmlns="http://www.w3.org/2000/svg"><title>2C8C3CB5-143A-454D-8DED-45C7FA15674A</title><g fill="#FEFEFE" fill-rule="evenodd"><path d="M39.392.18H.467v7.341h15.024v50.194h3.254a5.537 5.537 0 0 0 5.538-5.539V7.521h15.11V.181zM64.403 43.288c0 2.448-.783 4.425-2.347 5.933-1.566 1.508-3.714 2.262-6.445 2.262-2.39 0-4.212-.569-5.463-1.708-1.253-1.137-1.878-2.702-1.878-4.694 0-1.934.811-3.528 2.432-4.78 1.622-1.252 4.026-1.879 7.213-1.879h6.488v4.866zm-8.45-29.535c-5.52 0-9.96.968-13.317 2.902v8.11c3.756-2.56 7.938-3.842 12.548-3.842 3.3 0 5.662.755 7.085 2.262 1.422 1.51 2.134 3.743 2.134 6.701v2.476h-7.17c-5.634 0-10.017 1.152-13.146 3.457-3.13 2.305-4.695 5.535-4.695 9.688 0 3.643 1.238 6.645 3.713 9.006 2.476 2.362 5.762 3.543 9.86 3.543 5.576 0 9.475-1.82 11.694-5.464v5.122h2.742a5.537 5.537 0 0 0 5.538-5.538V30.228c0-10.983-5.663-16.475-16.987-16.475zM154.52 47.13c-2.021 2.845-4.966 4.267-8.835 4.267-3.642 0-6.517-1.463-8.621-4.395-2.106-2.93-3.16-6.53-3.16-10.799 0-4.324 1.026-7.952 3.074-10.884 2.049-2.93 4.922-4.395 8.622-4.395 4.097 0 7.113 1.438 9.048 4.31 1.934 2.874 2.902 6.56 2.902 11.054 0 4.384-1.011 7.997-3.03 10.842m-8.835-33.291c-6.146 0-11.097 2.149-14.853 6.444-3.756 4.297-5.634 9.688-5.634 16.176 0 6.374 1.82 11.638 5.464 15.792 3.64 4.155 8.649 6.232 15.023 6.232 6.43 0 11.48-2.105 15.152-6.317 3.67-4.21 5.506-9.56 5.506-16.048 0-6.488-1.793-11.823-5.378-16.006-3.585-4.182-8.68-6.273-15.28-6.273M199.892 13.838c-6.431 0-10.926 2.676-13.487 8.024v-1.889a5.537 5.537 0 0 0-5.538-5.537h-2.828v43.278h2.828a5.537 5.537 0 0 0 5.538-5.538V34.24c0-4.154 1.052-7.384 3.158-9.689 2.105-2.305 4.638-3.457 7.597-3.457 2.504 0 4.51.797 6.018 2.39 1.508 1.594 2.263 3.9 2.263 6.914v21.778a5.537 5.537 0 0 0 5.537 5.538h2.828V28.435c0-4.495-1.252-8.052-3.756-10.67-2.505-2.617-5.89-3.927-10.158-3.927M322.227 47.13c-2.02 2.845-4.966 4.267-8.835 4.267-3.642 0-6.517-1.463-8.62-4.395-2.107-2.93-3.16-6.53-3.16-10.799 0-4.324 1.025-7.952 3.073-10.884 2.05-2.93 4.922-4.395 8.622-4.395 4.097 0 7.113 1.438 9.048 4.31 1.934 2.874 2.902 6.56 2.902 11.054 0 4.384-1.01 7.997-3.03 10.842m-8.835-33.291c-6.146 0-11.097 2.149-14.853 6.444-3.756 4.297-5.634 9.688-5.634 16.176 0 6.374 1.821 11.638 5.464 15.792 3.641 4.155 8.65 6.232 15.023 6.232 6.43 0 11.481-2.105 15.152-6.317 3.67-4.21 5.506-9.56 5.506-16.048 0-6.488-1.793-11.823-5.378-16.006-3.585-4.182-8.679-6.273-15.28-6.273M352.959 22.033v-2.06a5.537 5.537 0 0 0-5.538-5.537h-2.827v43.278h2.827a5.537 5.537 0 0 0 5.538-5.538V34.667c0-3.528.939-6.573 2.817-9.134 1.878-2.56 4.268-3.84 7.17-3.84 1.479 0 2.817.255 4.012.767v-8.45h-2.646c-5.463 0-9.248 2.675-11.353 8.023M440.628 38.414c-1.907-1.85-4.539-3.513-7.896-4.994a49.314 49.314 0 0 1-1.494-.64 36.089 36.089 0 0 1-1.494-.683c-.285-.141-.725-.355-1.323-.64-.597-.284-1.024-.525-1.28-.725a13.393 13.393 0 0 0-1.067-.726c-.456-.284-.783-.555-.982-.811-.2-.256-.413-.568-.64-.94a3.703 3.703 0 0 1-.47-1.11 5.117 5.117 0 0 1-.128-1.151c0-1.48.583-2.674 1.75-3.585 1.166-.91 2.745-1.366 4.738-1.366 4.381 0 7.967.826 10.755 2.475V15.92c-2.618-1.251-6.26-1.878-10.926-1.878-4.268 0-7.825 1.082-10.67 3.244-2.846 2.163-4.268 5.15-4.268 8.963 0 5.407 3.385 9.505 10.158 12.292 2.39 1.024 4.083 1.779 5.08 2.262.994.484 1.976 1.225 2.944 2.22.967.996 1.451 2.12 1.451 3.37 0 1.482-.612 2.677-1.835 3.587-1.225.91-2.945 1.365-5.164 1.365-4.269 0-8.395-1.223-12.378-3.67v7.938c3.415 1.708 7.683 2.56 12.804 2.56 4.666 0 8.366-1.094 11.097-3.285 2.732-2.19 4.098-5.221 4.098-9.091 0-3.073-.954-5.534-2.86-7.384M114.853 14.35a7.383 7.383 0 0 0-6.099 3.223l-7.858 11.517-7.858-11.517a7.385 7.385 0 0 0-6.099-3.223h-5.574l14.794 21.682-14.794 21.683h5.575a7.385 7.385 0 0 0 6.099-3.223l7.858-11.517 7.857 11.517a7.383 7.383 0 0 0 6.1 3.223h5.575l-14.796-21.683 14.796-21.681h-5.576zM402.772 14.35a7.383 7.383 0 0 0-6.1 3.223l-12.364 18.121V5.718A5.537 5.537 0 0 0 378.77.181h-2.884v57.533h2.884a5.538 5.538 0 0 0 5.538-5.538V36.37l12.365 18.123a7.383 7.383 0 0 0 6.099 3.221h5.575l-14.795-21.681 14.795-21.683h-5.575zM280.48 4.317l-9.69 37.049-9.69-37.05A5.538 5.538 0 0 0 255.74.182a5.536 5.536 0 0 0-5.358 4.136l-9.69 37.049L231 4.316a5.536 5.536 0 0 0-5.357-4.135h-4.276l15.049 57.533h4.276a5.537 5.537 0 0 0 5.357-4.136l9.691-37.05 9.69 37.05a5.538 5.538 0 0 0 5.358 4.136h4.276L290.115.18h-4.278a5.537 5.537 0 0 0-5.356 4.136"/></g></svg>