<svg width="47" height="48" viewBox="0 0 47 48" xmlns="http://www.w3.org/2000/svg">
    <title>5B0334BE-6F60-46AA-8E99-5EF2E5EC3231</title>
    <g fill="#FFFFFF" fill-rule="evenodd">
        <path d="M3.407 15.135c2.416 0 3.32 3.18 3.32 3.18s1.211 3.711 3.682 3.711c1.85 0 2.261-1.516 2.352-2.182l.007-.09.017-.182.002-.036c.085-.88-.649-1.156-.649-1.156-.724-.245-1.363-.695-1.914-1.333-1.535-1.777-.716-4.084 1.08-5.668-.839-.965-1.933-2.078-2.89-2.584-2.102-1.114-3.778.624-3.905.76l-.025.035c-.144.197-.284.395-.422.596l-.016.024c-.145.213-.287.428-.425.646l-.023.036c-.119.191-.238.381-.352.575a23.675 23.675 0 0 0-.782 1.433l-.06.123a24.76 24.76 0 0 0-.305.637l-.014.031a24.486 24.486 0 0 0-.572 1.376l-.058.152c-.086.231-.168.463-.247.698l-.029.09-.058.185c.513-.565 1.256-1.057 2.286-1.057"/>
        <path d="M12.76 25.657a22.944 22.944 0 0 1-.105-1.513 4.427 4.427 0 0 1-1.733.354c-4.569 0-4.684-4.508-6.294-6.996C2.943 14.9.6 17.723.365 19.24c-.01.073-.022.13-.032.174-.025.154-.053.309-.075.464l-.028.195c-.028.188-.05.376-.073.564a22.957 22.957 0 0 0-.091.941l-.004.079c-.016.225-.03.452-.038.679-.004.07-.006.139-.008.208-.008.221-.012.442-.014.664L0 23.291v.059c0 .097.002.193.004.29 0 .092 0 .184.004.275.002.139.008.277.014.416l.006.168c.369 7.603 4.375 14.251 10.316 18.242-1.909-1.878-3.05-4.26-3.05-6.851 0-3.223 1.765-6.233 4.574-8.266a2.16 2.16 0 0 0 .893-1.967"/>
        <path d="M30.793 40.798c-1.07.442-2.625.942-4.393 1.064a12.16 12.16 0 0 1-.8.027c-2.957 0-6.807-1.152-9.77-6.066l-.389-.642c-.447.672-.698 1.423-.698 2.24 0 3.332 3.996 6.355 8.795 6.355 1.254 0 2.736-.145 3.813-.477-1.103.687-3.32 1.332-5.246 1.332-5.505 0-10.107-3.65-10.107-7.98 0-1.455.502-2.965 1.38-4.226a1.985 1.985 0 0 0 .258-1.726c-2.53 1.468-4.078 3.705-4.078 6.384 0 4.125 3.674 7.653 8.872 9.093.294.064.591.12.89.172 3.755.628 7.088-.04 9.347-2.196.97-.925 1.672-2.06 2.126-3.354"/>
        <path d="M41.05 8.123a20.857 20.857 0 0 1 3.877 12.145c0 7.81-4.276 14.622-10.613 18.227l-.045.04c0-.053-.002-.1.034-.313a6.425 6.425 0 0 1 1.05-2.59c1.79-2.564 2.982-6.484-.07-11.543-1.682-2.79-5.202-6.725-12.413-9.625a40.086 40.086 0 0 0-2.834-1.016l-.37-.116c-.015-.004-.03-.01-.044-.013a43.04 43.04 0 0 0-.744-.22l-.036-.01c-.242-.07-.477-.134-.703-.195l-.02-.005a39.79 39.79 0 0 0-.321-.084l-.016-.004a32.727 32.727 0 0 0-.652-.162 45.767 45.767 0 0 0-.546-.127l-.041-.01a21.43 21.43 0 0 0-.242-.052l-.228-.05-.042-.008-.17-.034-.042-.01a11.506 11.506 0 0 0-.216-.042c-.046-.01-.091-.017-.133-.025a8.243 8.243 0 0 0-.186-.035l-.03.1a3.057 3.057 0 0 1-.032.11l-.011.045-.021.074-.015.053a8.07 8.07 0 0 0-.021.077l-.015.055-.023.084-.016.058-.025.093-.015.058-.03.112c-.006.024-.012.049-.02.074l-.033.133a1.643 1.643 0 0 1-.017.067l-.027.108c-.006.025-.012.05-.02.076-.007.035-.016.069-.024.104l-.021.087a3.785 3.785 0 0 1-.025.102l-.021.092c-.01.035-.017.07-.025.107a2.586 2.586 0 0 0-.022.094c-.01.038-.018.077-.027.116l-.02.09-.031.136a5.385 5.385 0 0 1-.026.123 7.286 7.286 0 0 0-.037.17l-.021.097-.027.132-.023.11-.025.123-.023.118c-.01.04-.017.083-.025.125l-.023.119-.025.13-.023.122a6.39 6.39 0 0 1-.025.135 48.081 48.081 0 0 0-.049.277l-.022.123-.04.24-.02.12-.025.155a4.897 4.897 0 0 0-.02.128l-.024.15-.02.136-.022.149-.02.139-.021.154a6.438 6.438 0 0 0-.02.137l-.02.163-.018.135-.023.182-.014.119a40.48 40.48 0 0 0-.135 1.315l-.002.035c-.012.135-.022.27-.032.41l-.001.01c-.01.135-.02.272-.028.41l-.001.019c-.008.137-.016.275-.022.415l-.001.006c-.035.726-.05 1.493-.036 2.289.017.98.08 2.006.204 3.052l.03.254a24.72 24.72 0 0 0 .866 4.089c.305.925.796 2.218 1.26 3.163.208.41.429.817.67 1.217 2.214 3.67 5.165 5.526 8.78 5.527.249 0 .5-.01.756-.027 2.17-.15 3.98-.913 4.85-1.344 1.183-5.874-2.007-14.228-8.655-21.193a39.153 39.153 0 0 0-2.91-2.754c2.213 1.66 3.33 2.559 4.615 3.905 9.08 9.513 11.928 21.532 6.362 26.845a8.552 8.552 0 0 1-2.861 1.794c1.412-.401 2.665-1.086 3.7-2.074.33-.316.63-.656.902-1.017 8.44-3.518 14.372-11.844 14.372-21.558A23.257 23.257 0 0 0 41.05 8.123"/>
        <path d="M34.988 8.143c.52-.294 1.26-.23 1.855.216.594.445.865 1.136.729 1.719-.52.294-1.26.229-1.854-.216-.595-.445-.865-1.136-.73-1.72M8.675 7.918c1.284.422 2.736 1.638 3.772 2.634a7.417 7.417 0 0 1 2.124-.856C13.998 8.508 13.23 6.62 13.4 5.3c.342-2.68 3.277-2.886 3.277-2.886s-2.693.579-2.52 3.078c.084 1.212 1.12 2.987 1.798 4.03 1.67-.024 3.123.647 3.78 1.918.066.128.12.26.168.394h.002s.207.446.56.575a42.09 42.09 0 0 1 2.795 1.006 35.915 35.915 0 0 1 4.072 1.934c.218.122.432-.167.25-.34-6.535-6.274-1.92-8.723-1.92-8.723-2.362 3.417 1.585 5.885 6.117 8.434 3.993 2.245 6.82 4.677 9.912 3.04 1.542-.816.465-2.632-.23-3.637-.522-.756-.877-1.22-1.343-2.217a2.502 2.502 0 0 1-.192-1.586c.163-.747-.095-1.627-.66-2.52-.42-.662-1.228-1.361-1.83-1.83a5.075 5.075 0 0 1-1.022-1.062C34.265 1.882 28.69.616 28.69.616V.614A23.442 23.442 0 0 0 23.35 0c-3.735 0-7.265.879-10.395 2.438h-.001a23.378 23.378 0 0 0-4.647 3.055l-.18.15c-.345.293-.68.598-1.001.915l-.008.008c-.187.182-.372.366-.553.554l-.008.008c-.36.372-.706.756-1.04 1.15l-.041.049-.091.112c.665-.567 1.73-1.035 3.29-.522"/>
    </g>
</svg>