<svg xmlns="http://www.w3.org/2000/svg" width="1580" height="1582" viewBox="0 0 1580 1582">
    <g fill="none" fill-rule="evenodd">
        <path fill="#413A32" d="M1387.736 1191.784l-35.614-25.204c-14.769-10.451-19.31-30.985-10.74-46.848l1.928-3.308c1.813-3.113 2.88-4.948 3.323-5.716 9.721-14.822 29.168-20.105 44.941-11.885l39.083 20.367a2 2 0 1 0 1.848-3.547l-39.083-20.367c-17.512-9.127-39.062-3.355-49.832 12.77-.198.267-.255.363-.345.515l-.102.174c-.004.003-.005.007-.007.01l-.55.934c-.185.313-.378.515-.57.844-.205.349-.207.313-.258.313-.012 0-.024.167-.035.188-.015.037-.022.135-.034.172-.029.049-.057.128-.086.178-.48.825-1.062 1.84-1.75 3.02-.282.485-.543.909-.784 1.322-.033.053-.057.12-.09.12h-.003c-.038 0-.059.134-.113.227-.329.538-.62 1.053-.888 1.544-.43.738-.624 1.217-.815 1.546-.147.253-.16.262-.16.421v.002c0 .018-.11.053-.117.063.001-.001-.026-.001-.022-.002-.026.089-.078.255-.11.46-.023.049-.055.097-.076.145-7.85 17.242-2.554 38.495 13.143 49.603l35.61 25.205a2 2 0 1 0 2.308-3.265M1418.051 681.855c.131.421.209.662.343 1.175.248.944.548 2.304.899 4.15 1.015 5.342 2.218 13.481 3.6 24.981 1.208 10.056 1.956 17.77 2.33 23.448.251 3.81.305 6.41.25 7.681 1.204 28.035 24.53 50.546 52.116 50.546h31.992a2 2 0 0 0 0-4h-31.992c-25.406 0-46.943-20.762-48.133-46.11.075-1.698.018-4.333-.242-8.275-.359-5.448-1.059-12.792-2.164-22.138l76.76-8.883a2.012 2.012 0 0 0 1.758-2.229 2.004 2.004 0 0 0-2.216-1.764l-76.779 8.855c-1.271-10.329-2.389-17.798-3.35-22.858-.367-1.93-.687-3.378-.96-4.419a15.546 15.546 0 0 0-.315-1.076c-4.754-24.989 11.125-50.012 35.707-56.078l30.405-7.502a2 2 0 1 0-.958-3.884l-30.405 7.503c-26.709 6.59-43.899 33.753-38.646 60.877"/>
        <path fill="#413A32" d="M1334.891 1260.906l-35.812-31.037c-14.174-12.284-35.95-11.08-48.667 2.695-.129.14-.234.285-.317.43-.717.74-1.88 1.928-3.534 3.6l-21.33-20.957c-17.138-16.836-18.82-44.342-4.583-63.483.841-1.025 2.307-2.814 4.481-5.47 28.59-34.924 52.88-72.99 72.256-113.402 2.543-5.305 3.88-8.111 4.23-8.88.224-.594.233-.623.243-.736 10.997-20.94 36.615-31.242 59.203-23.11l104.843 37.743a2 2 0 0 0 1.355-3.763l-104.843-37.744c-25.943-9.34-55.5 3.724-66.059 29.196-.017.08-.019.156-.029.234-.839 1.758-1.614 3.377-2.55 5.33-19.237 40.124-43.356 77.92-71.744 112.598l-1.705 2.082c-.07.078-.132.15-.2.228l-.007-.006-.172.21a49.363 49.363 0 0 0-2.308 2.83l-.52.64c-.486.602-.486.602-.523.654a.385.385 0 0 0 .037.09c-.09.13-.183.258-.272.388-14.245 20.636-12.074 49.406 6.062 67.224l21.32 20.947-1.212 1.222c-.093.086-.17.16-.255.24l-.009-.01-.282.288-.024.023c-.363.353-.655.653-.934.953l-.405.414c-.24.253-.24.253-.36.409-.013.018-.028.047-.042.072l-.025.029c-11.449 13.182-11.64 33.392.07 46.647l31.814 36.017a2 2 0 1 0 2.998-2.648l-31.815-36.017c-10.523-11.912-10.187-30.228.416-41.897.62-.62 2.013-2.025 4.321-4.354.002-.002 0-.003 0-.005l-.002-.001v-.001c3-3.03 4.762-4.821 5.51-5.608.166-.175.287-.303.37-.395.212-.26.23-.28.286-.388 11.35-11.38 30.05-12.146 42.292-1.535l35.813 31.037a2.001 2.001 0 0 0 2.62-3.023M1046.596 208.057l4.923 2.188c17.125 7.611 37.845.245 46.32-16.469l21.526-42.454a2 2 0 0 0-3.569-1.809l-21.525 42.454c-7.51 14.814-25.948 21.37-41.127 14.623l-6.75-3-7.642-3.304c-15.242-6.592-22.853-24.56-16.978-40.086l16.678-44.075a2 2 0 0 0-3.74-1.416l-16.678 44.075c-6.63 17.525 1.927 37.733 19.132 45.173l5.767 2.494-11.683 26.287c-9.798 22.045-35.232 33.51-58.32 27.002a15580.504 15580.504 0 0 0-13.75-4.54c-22.072-8.625-35.062-32.742-29.509-56.008l25.855-108.31a2 2 0 1 0-3.89-.929L925.78 198.264c-5.922 24.81 7.574 50.466 30.624 60.132l.017.033c.326.177.326.177.362.191.324.113.514.177.777.265l.384.127.141.047c1.388.521 2.69.956 4.006 1.331l.035.012h.001l.084.025c.026.005.05.004.076.008l.906.3-78.007 230.541a2 2 0 0 0 3.79 1.282L966.99 261.99l.767.254c.101.038.194.071.294.107l-.004.011.301.098c1.126.41 2.127.736 3.124 1.025a205.569 205.569 0 0 0 1.54.503c.206.067.206.067.558.12l.028-.055c24.498 5.995 50.94-6.364 61.306-29.689l11.691-26.306zM235.394 859.418c-.005-.43-.017-.548-.032-.705-.004-.038.038-.08.034-.118-.086-1.513-.45-4.432-.455-4.464-.008-.03-1.618-17.527-1.789-19.827l29.93-2.257C290.521 829.962 312 806.039 312 778.49v-.005c0-.017-.085-10.138.034-13.003.046-1.104-.838-2.036-1.942-2.081a2.011 2.011 0 0 0-2.094 1.915c-.119 2.89.002 14.97.002 14.972-1 24.673-20.457 45.889-45.225 47.77l-29.81 2.256c-.072-.986-.19-1.924-.249-2.766-.025-.353-.065-.562-.09-.936-.012-.157-.032-18.692-.032-18.692 0-25.645-20.74-47.442-46.352-48.723l-33.55-1.677.2-3.646a2.27 2.27 0 0 0 .067-.413l.004-.062.004-.083c1.375-18.674-12.46-35.065-31.086-36.715l-47.123-4.176a2 2 0 1 0-.354 3.984l47.094 4.176C137.345 721.989 149 735.492 149 751.24v.015c0 .023.022.04.017.07-.013.094.202.204.187.43-.056.832-.204 3.233-.204 7.554v-.473h-.313c-.199 4-.365 6.262-.409 7.523-.019.542-.05.998-.045 1.198.004.097-.009.157.022.42-.698 16.292-14.318 29.608-30.683 29.815l-47.013.61a2.008 2.008 0 0 0-1.976 2.033 2.002 2.002 0 0 0 2.024 1.978l47.01-.593c18.741-.237 34.246-15.61 34.645-34.356.004-.185-.012-.358-.039-.726.035-.987.116-2.701.248-5.224l33.775 1.678C209.728 764.366 229 784.406 229 807.92v18.497c0 .846-.142 1.055-.117 1.409.071 1.012.046 2.139.133 3.353.25 3.468.458 6.937.717 10.176.132 1.65.234 3.202.358 4.635.19 2.196 1.188 12.162 1.29 13.109 1 21.696-14.283 41.606-35.878 45.759l-32.328 6.216-.397-2.098a2.505 2.505 0 0 0-.033-.313l-.01-.047h.001l-.07-.364-.156-.8a89.178 89.178 0 0 0-.195-.99c-.035-.182-.035-.182-.105-.43-.007-.015-.017-.03-.025-.045l-.028-.113c-4.316-17.02-20.953-28.832-38.593-26.822l-47.21 5.378a2 2 0 0 0 .453 3.974l47.21-5.378c15.826-1.803 30.992 8.995 34.592 24.397.15.808.391 2.85 1.391 6.366v.047H159.713c.793 4 1.188 6.479 1.347 7.26.048.24.044.32.073.423.011.034.007.048.015.073.001.005-.004.008-.003.013 2.346 15.568-7.597 31.114-22.963 35.304l-46.126 12.579a2 2 0 1 0 1.052 3.859l46.124-12.58c18.081-4.931 29.46-23.727 25.444-42.025a2.472 2.472 0 0 0-.119-.387c-.163-.85-.378-1.972-.639-3.35l32.338-6.22c23.44-4.507 40.03-25.98 39.138-49.367M1205.559 1381.163a2 2 0 0 0 .657-2.897l-110.363-156.75c-13.857-19.68-10.614-47.257 6.8-63.756l3.245-2.837c21.784-19.054 41.936-40.236 60.248-63.26 4.175-5.25 11.69-12.104 19.496-17.105 3.029-1.941 6.039-3.581 9.007-4.89a2.006 2.006 0 0 0 1.193-2.114h-.001a2.004 2.004 0 0 0-2.791-1.555c-3.17 1.398-6.365 3.14-9.566 5.19-8.182 5.243-16.024 12.396-20.467 17.984a490.26 490.26 0 0 1-26.401 30.499l-21.101-20.362c-19.817-19.121-52.166-19.467-72.372-.797l-16.66 12.23c-.803.59-1.144 1.685-.69 2.57a2.002 2.002 0 0 0 2.973.717l16.836-12.36.178-.147c18.643-17.305 48.64-17.008 66.956.665l21.14 20.4a473.873 473.873 0 0 1-30.913 29.588 53.124 53.124 0 0 0-2.996 2.62l-1.396 1.22-.358.315-.424.37.004.004c-.11.102-.19.179-.19.179l.145.146c-16.944 18.217-19.537 46.378-5.166 66.79l110.299 156.656c.602.855 1.767 1.2 2.678.687M1175.91 693.94a249.54 249.54 0 0 0-.467-1.985 385.136 385.136 0 0 0-1.857-7.408 509.132 509.132 0 0 0-7.42-25.611 2.001 2.001 0 0 0-3.812 1.212 503.451 503.451 0 0 1 7.361 25.41 375.635 375.635 0 0 1 1.838 7.328c.178.745.331 1.397.458 1.95l.15.661c7.166 26.653 35 45.404 62.305 42.045l115.86-14.64a2 2 0 0 0-.49-3.97l-115.859 14.64c-25.326 3.115-51.305-14.386-57.932-39.025a26.816 26.816 0 0 0-.136-.608M370.426 203.785a2 2 0 0 0-.477 2.787l233.5 330a2 2 0 1 0 3.265-2.31l-233.5-330a2 2 0 0 0-2.788-.477M553.741 1001.932l-299.5 270a2 2 0 0 0 2.68 2.97l299.5-270a2 2 0 1 0-2.68-2.97M1210.346 1383.657l27.188 36.08a1.992 1.992 0 0 1-.396 2.798 1.994 1.994 0 0 1-2.8-.391l-27.187-36.08c-3.03 5.556-10.527 22.586 1.19 38.137 14.248 18.906 38.426 11.112 38.426 11.112s14.156-21.093-.091-40c-11.718-15.55-30.154-13.038-36.33-11.656M1280.903 1328.138l30.229 33.573c.738.82.677 2.078-.15 2.822a1.994 1.994 0 0 1-2.822-.145l-30.23-33.573c-2.534 5.798-8.518 23.417 4.51 37.887 15.841 17.592 39.248 7.72 39.248 7.72s12.264-22.246-3.577-39.838c-13.028-14.47-31.176-10.361-37.208-8.446M1377.599 1269.869c-14.695-12.774-32.207-6.484-37.96-3.848l34.095 29.639c.833.723.925 1.98.195 2.819a1.995 1.995 0 0 1-2.819.2l-34.096-29.64c-1.809 6.065-5.601 24.282 9.094 37.056 17.867 15.53 39.896 2.88 39.896 2.88s9.461-23.575-8.405-39.106M1431.365 1198.178c-15.551-11.718-32.581-4.221-38.137-1.191l36.08 27.188a1.993 1.993 0 0 1 .391 2.799 1.994 1.994 0 0 1-2.798.396l-36.08-27.188c-1.382 6.175-3.894 24.612 11.657 36.33 18.906 14.247 39.999.091 39.999.091s7.794-24.178-11.112-38.425M1511.886 1027.589c-18.178-6.978-32.482 4.923-36.987 9.367l42.176 16.19a1.993 1.993 0 0 1 1.147 2.583 1.994 1.994 0 0 1-2.58 1.152l-42.177-16.191c.374 6.318 3.041 24.733 21.219 31.71 22.101 8.485 38.476-10.937 38.476-10.937s.827-25.39-21.274-33.874M1546.75 765.976c-19.468.34-28.273 16.731-30.785 22.54l45.17-.788a1.995 1.995 0 0 1 2.032 1.965 1.995 1.995 0 0 1-1.962 2.034l-45.17.788c2.713 5.717 12.085 21.793 31.553 21.453 23.669-.412 31.576-24.554 31.576-24.554s-8.744-23.851-32.414-23.438M1538.522 673.317c-19.326 2.373-26.368 19.596-28.26 25.635l44.841-5.506a1.993 1.993 0 0 1 2.225 1.742 1.995 1.995 0 0 1-1.738 2.229l-44.84 5.505c3.296 5.403 14.296 20.41 33.622 18.037 23.497-2.885 28.837-27.721 28.837-27.721s-11.19-22.806-34.687-19.921M1519.956 582.615c-18.972 4.38-24.176 22.245-25.426 28.45l44.02-10.163a1.994 1.994 0 0 1 2.395 1.5 1.994 1.994 0 0 1-1.496 2.396l-44.019 10.163c3.843 5.029 16.351 18.804 35.324 14.424 23.066-5.326 25.781-30.583 25.781-30.583s-13.513-21.513-36.579-16.187M1421.207 344.761a1.992 1.992 0 0 1 2.782.493c.634.905.42 2.148-.488 2.783l-37.007 25.913c5.447 3.223 22.205 11.309 38.155.141 19.392-13.579 12.447-38.014 12.447-38.014s-20.587-14.884-39.979-1.305c-15.95 11.168-14.083 29.681-12.917 35.901l37.007-25.912zM1361.174 269.93a1.994 1.994 0 0 1 2.826.053c.767.795.75 2.056-.047 2.826l-32.498 31.382c5.884 2.33 23.701 7.697 37.707-5.83 17.029-16.444 6.347-39.492 6.347-39.492s-22.662-11.48-39.691 4.964c-14.006 13.526-9.266 31.52-7.142 37.48l32.498-31.382zM1293.109 204.248a1.994 1.994 0 0 1 2.811-.293c.858.695.996 1.949.298 2.81l-28.431 35.11c6.124 1.596 24.462 4.75 36.715-10.382 14.898-18.397 1.487-39.972 1.487-39.972s-23.892-8.633-38.79 9.765c-12.253 15.132-5.355 32.413-2.521 38.07l28.431-35.108zM1138.054 100.806a1.994 1.994 0 0 1 2.64-1.01 1.995 1.995 0 0 1 1.015 2.637l-18.376 41.27c6.329-.042 24.858-1.741 32.778-19.53 9.629-21.626-8.91-38.994-8.91-38.994s-25.312-2.155-34.94 19.472c-7.92 17.787 3.216 32.695 7.418 37.426l18.375-41.271zM1054.31 65.102a1.994 1.994 0 0 1 2.583-1.147 1.994 1.994 0 0 1 1.151 2.58l-16.19 42.177c6.318-.374 24.733-3.041 31.711-21.22 8.483-22.1-10.938-38.474-10.938-38.474s-25.39-.827-33.874 21.274c-6.978 18.178 4.922 32.482 9.367 36.987l16.19-42.177zM954.1 82.784l9.393-44.19a1.993 1.993 0 0 1 2.371-1.537 1.996 1.996 0 0 1 1.542 2.369l-9.393 44.19c6.181-1.358 23.952-6.873 28-25.918 4.922-23.156-16.822-36.291-16.822-36.291s-25.207 3.155-30.129 26.31c-4.048 19.047 9.944 31.313 15.038 35.067M603.142 87.31l-12.453-43.427a1.993 1.993 0 0 1 1.373-2.47 1.994 1.994 0 0 1 2.473 1.368l12.452 43.427c4.82-4.101 17.922-17.314 12.555-36.03-6.525-22.757-31.89-24.146-31.89-24.146s-20.776 14.62-14.25 37.376c5.367 18.717 23.479 22.979 29.74 23.902M441.048 151.595l-19.804-40.605a1.992 1.992 0 0 1 .922-2.671 1.995 1.995 0 0 1 2.673.917l19.804 40.605c4.035-4.875 14.644-20.162 6.108-37.662-10.378-21.278-35.599-18.241-35.599-18.241s-17.92 18.005-7.543 39.282c8.535 17.501 27.113 18.553 33.44 18.375M364.17 199.517l-27.188-36.08a1.993 1.993 0 0 1 .395-2.798 1.994 1.994 0 0 1 2.799.391l27.189 36.08c3.03-5.556 10.527-22.586-1.191-38.137-14.247-18.906-38.426-11.112-38.426-11.112s-14.156 21.093.091 40c11.718 15.55 30.155 13.038 36.331 11.656M103.583 470.444c17.647 8.229 32.746-2.645 37.551-6.764l-40.945-19.093a1.994 1.994 0 0 1-.964-2.657 1.994 1.994 0 0 1 2.655-.968l40.944 19.092c.068-6.328-1.308-24.884-18.955-33.113-21.455-10.005-39.145 8.228-39.145 8.228s-2.596 25.27 18.859 35.275M33.503 735.532c19.424 1.358 29.624-14.204 32.632-19.772l-45.067-3.15a1.994 1.994 0 0 1-1.852-2.136 1.995 1.995 0 0 1 2.131-1.856l45.067 3.152c-2.204-5.932-10.139-22.763-29.563-24.12-23.615-1.652-33.596 21.708-33.596 21.708s6.632 24.523 30.248 26.174M63.199 803.413l-45.17.788a1.992 1.992 0 0 1-2.031-1.964 1.993 1.993 0 0 1 1.961-2.035l45.17-.788c-2.713-5.718-12.084-21.793-31.553-21.453C7.907 778.374 0 802.516 0 802.516s8.744 23.851 32.414 23.438c19.468-.34 28.273-16.733 30.785-22.54M39.577 986.49a1.994 1.994 0 0 1 1.368-2.473l43.427-12.452c-4.101-4.82-17.313-17.922-36.03-12.555-22.756 6.525-24.145 31.89-24.145 31.89s14.619 20.775 37.375 14.25c18.717-5.367 22.979-23.48 23.903-29.74l-43.428 12.452a1.993 1.993 0 0 1-2.47-1.372M217.22 1310.678a1.993 1.993 0 0 1-2.818-.2 1.994 1.994 0 0 1 .195-2.819l34.095-29.639c-5.753-2.634-23.265-8.926-37.96 3.849-17.866 15.53-8.405 39.107-8.405 39.107s22.029 12.65 39.896-2.88c14.695-12.775 10.903-30.992 9.094-37.056l-34.096 29.639zM623.987 1499.584l-12.453 43.427a1.992 1.992 0 0 1-2.472 1.368 1.995 1.995 0 0 1-1.373-2.47l12.453-43.428c-6.261.924-24.374 5.186-29.741 23.903-6.525 22.756 14.25 37.375 14.25 37.375s25.366-1.39 31.891-24.145c5.367-18.717-7.735-31.93-12.555-36.03"/>
        <path fill="#413A32" d="M1172.019 1161.503l-32.498-31.383c-2.124 5.962-6.865 23.955 7.142 37.48 17.029 16.445 39.69 4.966 39.69 4.966s10.682-23.05-6.347-39.494c-14.006-13.525-31.823-8.16-37.707-5.83l32.498 31.384c.793.766.82 2.025.047 2.825a1.994 1.994 0 0 1-2.825.052M1317.706 1104.522l-39.125-22.589c-.619 6.3-.865 24.904 15.997 34.64 20.502 11.836 39.713-4.785 39.713-4.785s4.79-24.948-15.713-36.784c-16.862-9.736-32.852-.22-37.997 3.465l39.125 22.59a1.993 1.993 0 0 1 .73 2.73 1.995 1.995 0 0 1-2.73.733M1218.623 1060.686l38.725 23.268c.728-6.286 1.299-24.885-15.391-34.913-20.292-12.193-39.79 4.09-39.79 4.09s-5.223 24.86 15.069 37.054c16.69 10.028 32.843.793 38.051-2.802l-38.724-23.268a1.994 1.994 0 0 1-.681-2.743 1.994 1.994 0 0 1 2.741-.686M1284.626 1276.243l-33.041-30.811c-2.02 5.998-6.445 24.071 7.795 37.35 17.314 16.145 39.771 4.272 39.771 4.272s10.279-23.232-7.035-39.377c-14.24-13.279-31.961-7.603-37.803-5.17l33.041 30.811c.806.752.854 2.011.096 2.824a1.994 1.994 0 0 1-2.824.101M1385.967 1142.85l-39.513-21.902c-.509 6.308-.43 24.915 16.599 34.355 20.706 11.477 39.624-5.477 39.624-5.477s4.352-25.028-16.353-36.505c-17.03-9.44-32.851.354-37.931 4.128l39.513 21.902a1.994 1.994 0 0 1 .777 2.718 1.995 1.995 0 0 1-2.716.78M887.95 1011.061l19.804 40.605a1.992 1.992 0 0 1-.922 2.671 1.994 1.994 0 0 1-2.673-.918l-19.804-40.605c-4.035 4.876-14.644 20.163-6.108 37.663 10.378 21.278 35.599 18.241 35.599 18.241s17.92-18.005 7.543-39.282c-8.536-17.5-27.113-18.553-33.44-18.375M983.609 784.573c-19.444-1.019-29.371 14.72-32.282 20.338l45.115 2.365a1.993 1.993 0 0 1 1.889 2.102 1.994 1.994 0 0 1-2.098 1.892l-45.116-2.364c2.308 5.893 10.535 22.582 29.98 23.601 23.64 1.24 33.212-22.292 33.212-22.292s-7.06-24.403-30.7-25.642M1071.716 852.464l-44.347-8.62c1.466 6.156 7.29 23.829 26.403 27.544 23.239 4.517 35.992-17.453 35.992-17.453s-3.595-25.148-26.833-29.665c-19.113-3.716-31.134 10.488-34.8 15.647l44.349 8.62a1.995 1.995 0 0 1 1.578 2.345 1.994 1.994 0 0 1-2.342 1.582M815.855 408.673s-24.404 7.06-25.643 30.7c-1.019 19.445 14.72 29.371 20.34 32.283l2.363-45.116a1.994 1.994 0 0 1 2.103-1.889 1.995 1.995 0 0 1 1.891 2.099l-2.364 45.115c5.894-2.308 22.583-10.535 23.601-29.98 1.24-23.64-22.291-33.212-22.291-33.212M1155.183 820.505l-45.067-3.15c2.205 5.931 10.139 22.761 29.563 24.12 23.615 1.651 33.596-21.71 33.596-21.71s-6.632-24.522-30.248-26.174c-19.424-1.358-29.623 14.205-32.632 19.772l45.067 3.152a1.993 1.993 0 0 1 1.852 2.134 1.994 1.994 0 0 1-2.131 1.856M502.113 1134.889a1.994 1.994 0 0 1-2.812.293 1.995 1.995 0 0 1-.298-2.81l28.431-35.11c-6.123-1.596-24.46-4.75-36.714 10.382-14.899 18.397-1.488 39.972-1.488 39.972s23.892 8.633 38.79-9.765c12.255-15.132 5.356-32.413 2.521-38.071l-28.43 35.109zM341.387 800.479l45.15-1.577c-2.813-5.67-12.463-21.578-31.923-20.898-23.66.826-31.143 25.102-31.143 25.102s9.16 23.695 32.818 22.868c19.46-.68 27.977-17.223 30.387-23.074l-45.15 1.577a1.994 1.994 0 0 1-2.064-1.93 1.994 1.994 0 0 1 1.925-2.068M1162.357 1015.338c21.093 10.747 39.408-6.856 39.408-6.856s3.477-25.165-17.616-35.912c-17.349-8.84-32.819 1.5-37.764 5.449l40.253 20.51a1.994 1.994 0 0 1 .871 2.689 1.994 1.994 0 0 1-2.687.875l-40.253-20.51c-.288 6.322.44 24.915 17.788 33.755M640.81 1127.496a1.993 1.993 0 0 1-2.64 1.01 1.994 1.994 0 0 1-1.015-2.637l18.375-41.271c-6.328.042-24.858 1.742-32.778 19.53-9.628 21.626 8.91 38.995 8.91 38.995s25.312 2.155 34.941-19.472c7.92-17.787-3.216-32.695-7.419-37.426l-18.375 41.27zM1114.875 936.184c22.245 8.097 38.278-11.608 38.278-11.608s.384-25.4-21.861-33.497c-18.297-6.66-32.391 5.488-36.818 10.011l42.452 15.451a1.993 1.993 0 0 1 1.192 2.563 1.994 1.994 0 0 1-2.56 1.196l-42.452-15.45c.484 6.31 3.472 24.675 21.769 31.334M1060.146 1018.434c18.655 14.575 39.993.79 39.993.79s8.214-24.04-10.441-38.614c-15.343-11.988-32.502-4.79-38.11-1.857l35.6 27.814a1.993 1.993 0 0 1 .342 2.805 1.993 1.993 0 0 1-2.804.347l-35.6-27.814c-1.49 6.151-4.323 24.541 11.02 36.53M882.093 1099.85l13.208 43.202a1.993 1.993 0 0 1-1.328 2.494 1.995 1.995 0 0 1-2.497-1.324l-13.208-43.203c-4.748 4.184-17.618 17.623-11.925 36.243 6.922 22.64 32.308 23.585 32.308 23.585s20.516-14.98 13.595-37.619c-5.693-18.62-23.877-22.565-30.153-23.379M438.95 860.288c19.282-2.71 26.023-20.053 27.809-26.124l-44.738 6.288a1.993 1.993 0 0 1-2.255-1.703 1.993 1.993 0 0 1 1.698-2.259l44.738-6.288c-3.39-5.343-14.65-20.157-33.932-17.447-23.443 3.296-28.349 28.22-28.349 28.22s11.586 22.608 35.029 19.313M395.644 606.822c17.192 9.14 32.84-.927 37.853-4.79l-39.889-21.21a1.994 1.994 0 0 1-.824-2.703 1.994 1.994 0 0 1 2.702-.828l39.889 21.21c.399-6.316-.004-24.92-17.196-34.061-20.903-11.114-39.522 6.168-39.522 6.168s-3.915 25.1 16.987 36.214M1373.468 716.25l44.84-5.505c-3.296-5.402-14.296-20.41-33.622-18.037-23.497 2.885-28.837 27.72-28.837 27.72s11.19 22.808 34.687 19.923c19.326-2.373 26.369-19.596 28.26-25.636l-44.841 5.506a1.994 1.994 0 0 1-2.225-1.742 1.994 1.994 0 0 1 1.738-2.228M1049.688 200.731c6.323-.264 24.782-2.609 32.076-20.663 8.868-21.949-10.265-38.66-10.265-38.66s-25.372-1.27-34.24 20.679c-7.294 18.053 4.355 32.563 8.72 37.145l16.924-41.887a1.992 1.992 0 0 1 2.602-1.102 1.994 1.994 0 0 1 1.107 2.6l-16.924 41.888zM954.155 215.748c-5.693 18.62 7.177 32.059 11.924 36.243l13.209-43.203a1.993 1.993 0 0 1 2.496-1.324 1.994 1.994 0 0 1 1.329 2.494l-13.208 43.203c6.276-.814 24.46-4.76 30.152-23.38 6.922-22.638-13.595-37.618-13.595-37.618s-25.386.946-32.307 23.585M822.771 83.255s-24.276 7.484-25.102 31.143c-.68 19.459 15.23 29.109 20.898 31.922l1.577-45.15a1.993 1.993 0 0 1 2.07-1.925 1.996 1.996 0 0 1 1.928 2.065l-1.577 45.15c5.852-2.411 22.395-10.928 23.074-30.387.827-23.66-22.868-32.818-22.868-32.818M329.708 404.409c14.695 12.774 32.207 6.483 37.96 3.848l-34.095-29.64a1.992 1.992 0 0 1-.195-2.818 1.995 1.995 0 0 1 2.819-.2l34.096 29.639c1.809-6.065 5.6-24.281-9.094-37.056-17.867-15.531-39.896-2.88-39.896-2.88s-9.461 23.576 8.405 39.107M235.111 396.845c14.916 12.516 32.315 5.921 38.022 3.185l-34.608-29.039a1.994 1.994 0 0 1-.244-2.816 1.995 1.995 0 0 1 2.815-.249l34.608 29.04c1.703-6.095 5.177-24.375-9.739-36.891-18.135-15.217-39.94-2.184-39.94-2.184s-9.049 23.737 9.086 38.954M136.595 507.8s-1.713 25.346 20.079 34.596c17.923 7.608 32.634-3.786 37.291-8.07l-41.586-17.652a1.993 1.993 0 0 1-1.056-2.621 1.994 1.994 0 0 1 2.619-1.061l41.586 17.652c-.153-6.327-2.176-24.824-20.099-32.432-21.792-9.25-38.834 9.589-38.834 9.589M109.74 921.163l44.491-7.845c-3.574-5.222-15.345-19.634-34.52-16.252-23.314 4.11-27.347 29.192-27.347 29.192s12.368 22.19 35.682 18.078c19.175-3.38 25.307-20.949 26.88-27.079l-44.49 7.845a1.993 1.993 0 0 1-2.315-1.623 1.995 1.995 0 0 1 1.62-2.316M1138.084 523.555c-15.95 11.168-14.082 29.68-12.917 35.9l37.007-25.911a1.992 1.992 0 0 1 2.782.493c.634.905.42 2.147-.488 2.783l-37.007 25.913c5.447 3.223 22.205 11.309 38.155.14 19.392-13.578 12.447-38.013 12.447-38.013s-20.587-14.884-39.979-1.305M698.854 576.301l16.19 42.177a1.992 1.992 0 0 1-1.152 2.58 1.993 1.993 0 0 1-2.582-1.147l-16.19-42.176c-4.445 4.505-16.345 18.809-9.367 36.987 8.483 22.101 33.873 21.274 33.873 21.274s19.422-16.375 10.94-38.476c-6.979-18.178-25.394-20.845-31.712-21.219M879.74 511.957a1.994 1.994 0 0 1 1.242 2.539l-14.708 42.716c6.3-.595 24.61-3.903 30.95-22.313 7.708-22.384-12.274-38.07-12.274-38.07s-25.403.059-33.111 22.443c-6.34 18.41 6.054 32.29 10.653 36.637l14.708-42.716a1.993 1.993 0 0 1 2.54-1.236M798.577 1518.801l.788 45.17a1.992 1.992 0 0 1-1.964 2.031 1.993 1.993 0 0 1-2.035-1.961l-.788-45.17c-5.718 2.713-21.793 12.085-21.453 31.553.413 23.669 24.555 31.576 24.555 31.576s23.851-8.744 23.438-32.414c-.34-19.468-16.733-28.273-22.54-30.785M885.328 1512.479l6.287 44.738a1.993 1.993 0 0 1-1.702 2.255 1.995 1.995 0 0 1-2.259-1.7l-6.287-44.736c-5.344 3.39-20.157 14.65-17.447 33.932 3.294 23.443 28.22 28.348 28.22 28.348s22.607-11.586 19.313-35.03c-2.71-19.28-20.054-26.021-26.125-27.807M1476.149 1113.57c-17.349-8.84-32.819 1.5-37.764 5.45l40.253 20.51c.983.5 1.376 1.697.871 2.688a1.995 1.995 0 0 1-2.687.876l-40.253-20.51c-.288 6.322.439 24.915 17.788 33.754 21.093 10.748 39.408-6.856 39.408-6.856s3.477-25.165-17.616-35.912M1513.222 511.557a1.995 1.995 0 0 1-1.147 2.583l-42.176 16.19c4.505 4.444 18.809 16.345 36.987 9.367 22.101-8.484 21.274-33.874 21.274-33.874s-16.375-19.422-38.476-10.938c-18.178 6.978-20.845 25.393-21.219 31.71l42.177-16.19a1.993 1.993 0 0 1 2.58 1.152"/>
        <path fill="#00CC92" d="M299.29 253.922l-31.382-32.498a1.994 1.994 0 0 1 .052-2.826 1.996 1.996 0 0 1 2.826.047l31.382 32.498c2.33-5.884 7.697-23.701-5.83-37.707-16.444-17.029-39.492-6.347-39.492-6.347s-11.48 22.662 4.964 39.691c13.526 14.006 31.52 9.266 37.48 7.142M509.918 1424.474a1.993 1.993 0 0 1-2.689.871 1.994 1.994 0 0 1-.875-2.687l20.51-40.253c-6.322-.289-24.916.439-33.756 17.788-10.747 21.093 6.858 39.408 6.858 39.408s25.163 3.477 35.912-17.616c8.838-17.349-1.502-32.819-5.45-37.764l-20.51 40.253zM1058.47 934.035s4.352-25.028-16.353-36.505c-17.03-9.44-32.851.354-37.931 4.13l39.513 21.901a1.994 1.994 0 0 1 .777 2.717 1.994 1.994 0 0 1-2.716.781l-39.513-21.902c-.509 6.308-.431 24.915 16.599 34.355 20.705 11.477 39.624-5.477 39.624-5.477M955.693 466.44a1.992 1.992 0 0 1 2.688-.871 1.994 1.994 0 0 1 .876 2.687l-20.51 40.253c6.322.288 24.915-.44 33.755-17.788 10.747-21.093-6.857-39.408-6.857-39.408s-25.164-3.477-35.912 17.616c-8.839 17.349 1.501 32.819 5.45 37.764l20.51-40.253zM515.212 1012.726c15.344-11.988 12.51-30.378 11.021-36.529l-35.6 27.814c-.869.68-2.12.53-2.805-.347a1.994 1.994 0 0 1 .342-2.805l35.6-27.814c-5.608-2.933-22.766-10.13-38.11 1.856-18.654 14.575-10.44 38.614-10.44 38.614s21.337 13.786 39.992-.789M585.662 792.762c-19.365 2.035-26.707 19.133-28.703 25.138l44.929-4.722a1.993 1.993 0 0 1 2.195 1.78 1.995 1.995 0 0 1-1.777 2.198l-44.93 4.722c3.202 5.459 13.939 20.656 33.303 18.621 23.544-2.474 29.316-27.213 29.316-27.213s-10.79-22.999-34.333-20.524M1270.007 384.069s-21.575-13.412-39.972 1.486c-15.132 12.254-11.978 30.592-10.382 36.716l35.11-28.431a1.992 1.992 0 0 1 2.81.298 1.993 1.993 0 0 1-.293 2.81l-35.109 28.431c5.658 2.835 22.939 9.733 38.071-2.521 18.398-14.898 9.765-38.789 9.765-38.789M763.175 225.231l-1.577-45.15a1.994 1.994 0 0 1 1.93-2.065 1.994 1.994 0 0 1 2.068 1.925l1.577 45.15c5.67-2.813 21.578-12.463 20.898-31.922-.826-23.659-25.102-31.143-25.102-31.143s-23.695 9.159-22.869 32.818c.68 19.459 17.223 27.976 23.075 30.387M391.257 698.928l-43.835-10.93a1.994 1.994 0 0 1-1.454-2.423 1.995 1.995 0 0 1 2.42-1.458l43.837 10.93c-1.141-6.225-6.033-24.178-24.926-28.888-22.97-5.727-36.855 15.545-36.855 15.545s2.273 25.302 25.243 31.029c18.893 4.71 31.64-8.845 35.57-13.805M286.713 1061.195s-18.918-16.954-39.623-5.477c-17.03 9.44-17.108 28.047-16.6 34.355l39.513-21.902a1.993 1.993 0 0 1 2.716.781c.536.966.193 2.18-.776 2.717l-39.513 21.902c5.08 3.775 20.9 13.57 37.93 4.13 20.706-11.478 16.353-36.506 16.353-36.506M772.77 1279.324l-1.577 45.15a1.992 1.992 0 0 1-2.068 1.926 1.994 1.994 0 0 1-1.929-2.066l1.577-45.15c-5.852 2.411-22.396 10.928-23.075 30.388-.826 23.659 22.869 32.818 22.869 32.818s24.276-7.485 25.102-31.144c.679-19.459-15.23-29.109-20.899-31.922M625.462 672.225c18.135 15.217 39.94 2.184 39.94 2.184s9.048-23.737-9.086-38.954c-14.916-12.516-32.315-5.92-38.022-3.185l34.608 29.04c.844.708.959 1.962.244 2.814a1.993 1.993 0 0 1-2.815.25l-34.608-29.04c-1.703 6.095-5.177 24.375 9.739 36.891M779.577.836S755.727 9.58 756.14 33.25c.34 19.468 16.732 28.273 22.541 30.785l-.789-45.17a1.993 1.993 0 0 1 1.965-2.031 1.994 1.994 0 0 1 2.035 1.96l.788 45.17c5.717-2.712 21.793-12.083 21.453-31.552C803.72 8.742 779.577.836 779.577.836M690.116 70.289l-5.506-44.841a1.993 1.993 0 0 1 1.742-2.225 1.995 1.995 0 0 1 2.23 1.738l5.504 44.84c5.403-3.296 20.41-14.296 18.037-33.622-2.885-23.497-27.72-28.837-27.72-28.837s-22.807 11.19-19.922 34.686c2.373 19.326 19.596 26.369 25.635 28.26M68.651 553.467c18.297 6.66 32.391-5.49 36.818-10.011l-42.453-15.452a1.994 1.994 0 0 1-1.192-2.562 1.994 1.994 0 0 1 2.561-1.196l42.452 15.45c-.484-6.31-3.472-24.675-21.769-31.334-22.246-8.097-38.279 11.608-38.279 11.608s-.384 25.4 21.862 33.497M80.2 625.928l-43.834-10.93a1.994 1.994 0 0 1-1.454-2.423 1.995 1.995 0 0 1 2.42-1.458l43.837 10.93c-1.142-6.225-6.033-24.178-24.926-28.888-22.97-5.727-36.855 15.545-36.855 15.545s2.273 25.302 25.243 31.029c18.893 4.71 31.64-8.845 35.57-13.805M69.12 1073.728a1.995 1.995 0 0 1 1.146-2.582l42.177-16.19c-4.505-4.444-18.81-16.345-36.988-9.367-22.1 8.484-21.273 33.874-21.273 33.874s16.374 19.421 38.475 10.938c18.178-6.979 20.845-25.394 21.22-31.71L71.7 1074.88a1.994 1.994 0 0 1-2.58-1.153M285.945 1375.388a1.994 1.994 0 0 1-2.822.146 1.996 1.996 0 0 1-.151-2.823l30.23-33.573c-6.032-1.915-24.18-6.024-37.21 8.446-15.84 17.593-3.575 39.84-3.575 39.84s23.407 9.87 39.247-7.722c13.029-14.47 7.045-32.088 4.51-37.887l-30.23 33.573zM711.086 1513.586l-5.506 44.84a1.992 1.992 0 0 1-2.228 1.738 1.994 1.994 0 0 1-1.742-2.225l5.506-44.841c-6.04 1.892-23.262 8.935-25.635 28.26-2.885 23.498 19.921 34.687 19.921 34.687s24.836-5.34 27.721-28.837c2.373-19.326-12.635-30.326-18.037-33.622M1059.804 1176.211s15.241-20.324 2.003-39.95c-10.888-16.142-29.431-14.598-35.671-13.542l25.263 37.454c.616.914.38 2.151-.542 2.773a1.993 1.993 0 0 1-2.774-.537l-25.263-37.453c-3.317 5.39-11.695 22.004-.807 38.146 13.238 19.626 37.791 13.11 37.791 13.11M847.545 1354.568l2.365 45.115a1.993 1.993 0 0 1-1.892 2.1 1.995 1.995 0 0 1-2.103-1.89l-2.363-45.116c-5.62 2.912-21.359 12.838-20.34 32.283 1.24 23.641 25.643 30.7 25.643 30.7s23.53-9.572 22.291-33.212c-1.018-19.445-17.707-27.672-23.6-29.98M660.653 1039.696c10.318-16.513 1.366-32.825-2.138-38.095l-23.94 38.312a1.994 1.994 0 0 1-2.754.634 1.995 1.995 0 0 1-.638-2.753l23.94-38.313c-6.272-.838-24.858-1.734-35.176 14.779-12.545 20.076 3.396 39.855 3.396 39.855s24.765 5.657 37.31-14.42M976.83 701.277l-40.605 19.804c4.875 4.035 20.162 14.644 37.663 6.108 21.277-10.377 18.24-35.6 18.24-35.6s-18.005-17.92-39.282-7.542c-17.501 8.536-18.552 27.113-18.375 33.439l40.605-19.804a1.994 1.994 0 0 1 2.672.922 1.995 1.995 0 0 1-.918 2.673M891.307 338.439s-25.258 2.715-30.583 25.782c-4.38 18.972 9.395 31.48 14.423 35.323l10.163-44.019a1.993 1.993 0 0 1 2.398-1.496 1.994 1.994 0 0 1 1.499 2.396l-10.162 44.019c6.204-1.25 24.068-6.454 28.448-25.426 5.326-23.066-16.186-36.579-16.186-36.579M560.572 386.936s-16.954 18.918-5.477 39.623c9.44 17.03 28.047 17.108 34.355 16.6l-21.902-39.513a1.993 1.993 0 0 1 .781-2.716 1.994 1.994 0 0 1 2.717.776l21.902 39.513c3.775-5.08 13.569-20.901 4.129-37.931-11.477-20.705-36.505-16.352-36.505-16.352M849.168 1253.567s22.402-11.979 18.7-35.36c-3.047-19.232-20.506-25.669-26.607-27.349l7.067 44.621a1.993 1.993 0 0 1-1.663 2.285 1.995 1.995 0 0 1-2.288-1.659l-7.067-44.62c-5.284 3.482-19.898 15-16.852 34.23 3.703 23.382 28.71 27.852 28.71 27.852M669.915 1175.019l-13.209 43.203a1.993 1.993 0 0 1-2.496 1.325 1.995 1.995 0 0 1-1.329-2.494l13.21-43.204c-6.277.814-24.46 4.759-30.154 23.38-6.922 22.639 13.595 37.619 13.595 37.619s25.386-.947 32.307-23.585c5.693-18.621-7.176-32.06-11.924-36.244M357.055 911.3a1.994 1.994 0 0 1 1.368-2.473l43.427-12.452c-4.1-4.821-17.313-17.922-36.03-12.555-22.756 6.525-24.145 31.89-24.145 31.89s14.62 20.775 37.375 14.25c18.717-5.367 22.98-23.48 23.903-29.74l-43.428 12.452a1.993 1.993 0 0 1-2.47-1.372M1085.099 609.034a1.992 1.992 0 0 1-2.773-.542 1.994 1.994 0 0 1 .536-2.774l37.454-25.263c-5.389-3.317-22.004-11.695-38.146-.807-19.626 13.238-13.109 37.792-13.109 37.792s20.324 15.24 39.95 2.002c16.142-10.888 14.599-29.431 13.542-35.671l-37.454 25.263zM562.678 270.497l-19.093-40.944c-.466-1-.04-2.185.969-2.655a1.995 1.995 0 0 1 2.657.964l19.092 40.945c4.12-4.805 14.993-19.904 6.764-37.551-10.004-21.455-35.275-18.86-35.275-18.86s-18.232 17.69-8.227 39.146c8.228 17.647 26.785 19.023 33.113 18.955M517.178 1219.337a1.993 1.993 0 0 1 2.755-.633 1.994 1.994 0 0 1 .638 2.753l-23.94 38.312c6.273.838 24.858 1.734 35.177-14.778 12.544-20.076-3.396-39.856-3.396-39.856s-24.767-5.657-37.312 14.42c-10.317 16.512-1.365 32.824 2.138 38.095l23.94-38.313zM532.19 654.587a1.993 1.993 0 0 1-.965-2.656 1.994 1.994 0 0 1 2.654-.97l40.945 19.094c.068-6.33-1.308-24.885-18.955-33.114-21.456-10.005-39.145 8.228-39.145 8.228s-2.596 25.27 18.86 35.275c17.646 8.229 32.745-2.645 37.55-6.764l-40.945-19.093zM780.07 557.953l2.364 45.115a1.993 1.993 0 0 1-1.892 2.099 1.995 1.995 0 0 1-2.102-1.89l-2.365-45.115c-5.619 2.912-21.357 12.838-20.338 32.283 1.24 23.64 25.642 30.7 25.642 30.7s23.531-9.572 22.292-33.212c-1.019-19.445-17.708-27.672-23.6-29.98M971.658 1495.81l10.163 44.018a1.994 1.994 0 0 1-1.5 2.396 1.996 1.996 0 0 1-2.398-1.496l-10.162-44.019c-5.029 3.843-18.804 16.351-14.424 35.324 5.325 23.066 30.583 25.781 30.583 25.781s21.512-13.513 16.187-36.579c-4.38-18.972-22.245-24.176-28.449-25.426M1054.854 1468.301l16.19 42.177a1.993 1.993 0 0 1-1.151 2.58 1.994 1.994 0 0 1-2.583-1.147l-16.19-42.177c-4.445 4.506-16.345 18.81-9.367 36.988 8.484 22.101 33.874 21.273 33.874 21.273s19.421-16.374 10.938-38.475c-6.978-18.178-25.393-20.845-31.711-21.219"/>
        <path fill="#756B5E" d="M22.387 892.987a1.994 1.994 0 0 1 1.738-2.228l44.84-5.506c-3.296-5.403-14.296-20.41-33.622-18.037-23.497 2.885-28.837 27.721-28.837 27.721s11.19 22.806 34.687 19.921c19.326-2.373 26.369-19.596 28.26-25.635l-44.841 5.506a1.994 1.994 0 0 1-2.225-1.742M833.665 1076.764a1.995 1.995 0 0 1-2.288-1.659l-7.067-44.62c-5.284 3.482-19.898 15-16.852 34.23 3.703 23.382 28.71 27.852 28.71 27.852s22.402-11.979 18.7-35.36c-3.047-19.232-20.506-25.669-26.607-27.349l7.067 44.621a1.993 1.993 0 0 1-1.663 2.285M721.574 346.602a1.993 1.993 0 0 1 2.258 1.698l6.288 44.738c5.344-3.39 20.157-14.651 17.447-33.932-3.294-23.443-28.22-28.35-28.22-28.35s-22.607 11.587-19.313 35.03c2.71 19.282 20.053 26.023 26.125 27.809l-6.288-44.738a1.993 1.993 0 0 1 1.703-2.255M604.787 954.507c-5.842-2.433-23.563-8.11-37.803 5.17-17.313 16.146-7.035 39.377-7.035 39.377s22.458 11.874 39.771-4.271c14.24-13.28 9.815-31.353 7.795-37.351l-33.04 30.81a1.994 1.994 0 0 1-2.825-.1 1.995 1.995 0 0 1 .096-2.824l33.041-30.811zM143.637 761.18l-45.15-1.577a1.992 1.992 0 0 1-1.925-2.068 1.994 1.994 0 0 1 2.065-1.93l45.15 1.578c-2.41-5.852-10.928-22.395-30.387-23.075-23.659-.826-32.818 22.869-32.818 22.869s7.484 24.276 31.142 25.102c19.46.679 29.11-15.23 31.923-20.9M179.759 834.965l45.005-3.938c-3.105-5.514-13.575-20.896-32.972-19.199-23.583 2.064-29.787 26.698-29.787 26.698s10.387 23.183 33.97 21.12c19.397-1.698 27.037-18.664 29.138-24.634l-45.005 3.938a1.994 1.994 0 0 1-2.164-1.819 1.995 1.995 0 0 1 1.815-2.166M618.402 553.468a1.995 1.995 0 0 1 2.792.44l26.554 36.549c3.127-5.502 10.92-22.4-.525-38.151-13.915-19.152-38.225-11.782-38.225-11.782s-14.523 20.843-.608 39.995c11.445 15.753 29.923 13.563 36.122 12.289l-26.555-36.55a1.994 1.994 0 0 1 .445-2.79M1135.242 1431.628l21.21 39.89c.517.973.153 2.18-.83 2.701a1.995 1.995 0 0 1-2.702-.824l-21.21-39.889c-3.862 5.013-13.93 20.661-4.79 37.853 11.115 20.902 36.215 16.987 36.215 16.987s17.28-18.619 6.167-39.522c-9.141-17.192-27.744-17.595-34.06-17.196M1487.628 418.608s-18.62-17.282-39.522-6.168c-17.192 9.14-17.595 27.744-17.196 34.06l39.89-21.21a1.992 1.992 0 0 1 2.7.829 1.995 1.995 0 0 1-.823 2.704l-39.89 21.209c5.014 3.862 20.661 13.93 37.854 4.79 20.902-11.114 16.987-36.214 16.987-36.214M1218.222 148.003a1.993 1.993 0 0 1 2.731-.73 1.994 1.994 0 0 1 .733 2.73l-22.588 39.124c6.298.619 24.904.866 34.639-15.997 11.837-20.502-4.784-39.713-4.784-39.713s-24.948-4.79-36.785 15.713c-9.736 16.863-.219 32.852 3.466 37.997l22.588-39.124zM866.551 68.656l2.364-45.116a1.994 1.994 0 0 1 2.102-1.89 1.995 1.995 0 0 1 1.893 2.1l-2.365 45.115c5.893-2.308 22.583-10.535 23.602-29.98 1.239-23.64-22.293-33.212-22.293-33.212s-24.402 7.06-25.641 30.7c-1.019 19.445 14.719 29.37 20.338 32.283M520.861 114.674L505.41 72.221a1.994 1.994 0 0 1 1.197-2.56 1.994 1.994 0 0 1 2.562 1.192l15.452 42.452c4.522-4.427 16.671-18.521 10.011-36.818-8.097-22.245-33.497-21.861-33.497-21.861s-19.705 16.033-11.608 38.278c6.66 18.297 25.025 21.285 31.335 21.77M200.45 314.858c15.132 12.254 32.413 5.356 38.072 2.52l-35.11-28.43a1.992 1.992 0 0 1-.293-2.81 1.995 1.995 0 0 1 2.81-.298l35.11 28.43c1.596-6.123 4.75-24.461-10.382-36.715-18.397-14.898-39.972-1.486-39.972-1.486s-8.633 23.89 9.765 38.789M146.719 389.08c16.513 10.319 32.825 1.367 38.095-2.137l-38.312-23.94a1.994 1.994 0 0 1-.634-2.754 1.994 1.994 0 0 1 2.753-.638l38.313 23.94c.838-6.273 1.734-24.858-14.78-35.176-20.075-12.545-39.854 3.395-39.854 3.395s-5.657 24.766 14.419 37.31M150.44 1138.157l-39.514 21.902a1.993 1.993 0 0 1-2.716-.78 1.994 1.994 0 0 1 .777-2.718l39.513-21.903c-5.08-3.774-20.9-13.568-37.93-4.128-20.706 11.477-16.354 36.505-16.354 36.505s18.92 16.954 39.624 5.477c17.03-9.44 17.108-28.047 16.6-34.355M158.835 1237.828c-.925.6-2.158.343-2.764-.59a1.996 1.996 0 0 1 .585-2.765l37.889-24.605c-5.331-3.411-21.796-12.077-38.126-1.472-19.854 12.893-13.766 37.556-13.766 37.556s20.054 15.593 39.908 2.7c16.33-10.605 15.11-29.172 14.163-35.43l-37.89 24.606zM356.194 1433.248a1.994 1.994 0 0 1-2.792.44 1.995 1.995 0 0 1-.444-2.79l26.554-36.55c-6.2-1.274-24.677-3.464-36.121 12.29-13.915 19.152.607 39.995.607 39.995s24.31 7.37 38.225-11.783c11.445-15.751 3.653-32.649.526-38.15l-26.555 36.548zM438.046 1478.535a1.993 1.993 0 0 1-2.717.776 1.994 1.994 0 0 1-.782-2.715l21.903-39.513c-6.308-.509-24.915-.431-34.355 16.599-11.477 20.705 5.477 39.623 5.477 39.623s25.028 4.353 36.505-16.352c9.44-17.03-.354-32.851-4.129-37.931l-21.902 39.513zM523.304 1515.911a1.993 1.993 0 0 1-2.583 1.147 1.993 1.993 0 0 1-1.151-2.58l16.19-42.177c-6.318.374-24.733 3.041-31.711 21.22-8.483 22.1 10.939 38.474 10.939 38.474s25.389.828 33.873-21.273c6.978-18.178-4.922-32.482-9.367-36.988l-16.19 42.177zM1063.333 1378.365l18.376 41.271a1.994 1.994 0 0 1-1.015 2.638 1.995 1.995 0 0 1-2.64-1.01l-18.375-41.272c-4.202 4.732-15.338 19.64-7.418 37.427 9.628 21.626 34.94 19.472 34.94 19.472s18.539-17.369 8.91-38.996c-7.92-17.787-26.449-19.487-32.778-19.53M679.144 1429.484l-7.067 44.621a1.994 1.994 0 0 1-2.288 1.66 1.994 1.994 0 0 1-1.663-2.286l7.067-44.62c-6.101 1.68-23.56 8.116-26.606 27.348-3.703 23.381 18.699 35.36 18.699 35.36s25.007-4.47 28.71-27.852c3.046-19.23-11.568-30.748-16.852-34.23M913.59 1426.904l9.393 44.19a1.994 1.994 0 0 1-1.54 2.37 1.996 1.996 0 0 1-2.373-1.538l-9.393-44.19c-5.094 3.754-19.086 16.02-15.037 35.066 4.922 23.156 30.128 26.311 30.128 26.311s21.745-13.135 16.823-36.29c-4.049-19.046-21.82-24.56-28-25.919M1010.222 1002.058s11.083-22.859-5.657-39.598c-13.768-13.768-31.676-8.715-37.6-6.487l31.946 31.945c.78.78.784 2.04-.002 2.826a1.994 1.994 0 0 1-2.826.003l-31.945-31.945c-2.228 5.923-7.282 23.831 6.486 37.6 16.74 16.74 39.598 5.656 39.598 5.656M957.726 912.72l-35.6-27.815c-1.49 6.151-4.323 24.541 11.02 36.53 18.655 14.574 39.993.788 39.993.788s8.214-24.039-10.441-38.614c-15.343-11.987-32.502-4.789-38.11-1.856l35.6 27.814a1.994 1.994 0 0 1 .343 2.805 1.994 1.994 0 0 1-2.805.347M1075.853 774.887l-45.006 3.938c3.106 5.514 13.576 20.896 32.973 19.199 23.583-2.064 29.786-26.698 29.786-26.698s-10.387-23.183-33.97-21.12c-19.397 1.697-27.037 18.664-29.137 24.634l45.005-3.938a1.994 1.994 0 0 1 2.163 1.819 1.995 1.995 0 0 1-1.814 2.166M726.16 1108.479c-6.072 1.786-23.415 8.527-26.125 27.808-3.295 23.443 19.312 35.029 19.312 35.029s24.926-4.905 28.22-28.348c2.71-19.282-12.103-30.542-17.447-33.932l-6.287 44.737a1.994 1.994 0 0 1-2.259 1.699 1.994 1.994 0 0 1-1.702-2.256l6.287-44.737zM1231.479 491.033l-37.007 25.913c5.446 3.222 22.204 11.309 38.154.14 19.392-13.578 12.447-38.014 12.447-38.014s-20.586-14.883-39.978-1.305c-15.95 11.168-14.083 29.682-12.918 35.902l37.007-25.913a1.994 1.994 0 0 1 2.783.494c.633.904.42 2.147-.488 2.783M1241.706 328.84l31.382-32.497a1.994 1.994 0 0 1 2.826-.046c.794.767.822 2.028.052 2.825l-31.383 32.498c5.961 2.124 23.955 6.864 37.481-7.142 16.444-17.03 4.964-39.691 4.964-39.691s-23.048-10.682-39.493 6.347c-13.526 14.007-8.16 31.823-5.829 37.707M585.26 177.099l-13.208-43.203a1.993 1.993 0 0 1 1.328-2.494 1.995 1.995 0 0 1 2.497 1.324l13.208 43.203c4.748-4.184 17.617-17.623 11.925-36.243-6.922-22.64-32.308-23.585-32.308-23.585s-20.516 14.98-13.595 37.619c5.693 18.62 23.877 22.565 30.153 23.379M302.876 756.433l-44.93-4.721a1.994 1.994 0 0 1-1.776-2.198 1.993 1.993 0 0 1 2.194-1.78l44.93 4.721c-1.996-6.006-9.34-23.103-28.703-25.138-23.544-2.475-34.334 20.524-34.334 20.524s5.773 24.739 29.316 27.213c19.365 2.036 30.102-13.161 33.303-18.62M1186.684 612.885c-18.178 6.978-20.845 25.393-21.219 31.71l42.177-16.19a1.993 1.993 0 0 1 2.58 1.152 1.995 1.995 0 0 1-1.147 2.583l-42.176 16.19c4.505 4.444 18.809 16.345 36.987 9.367 22.101-8.484 21.274-33.874 21.274-33.874s-16.375-19.422-38.476-10.938M470.146 1258.72c-6.24-1.058-24.783-2.6-35.67 13.541-13.239 19.626 2.002 39.95 2.002 39.95s24.553 6.517 37.791-13.109c10.888-16.142 2.51-32.757-.807-38.146L448.2 1298.41a1.992 1.992 0 0 1-2.774.537 1.993 1.993 0 0 1-.542-2.773l25.263-37.454z"/>
        <path fill="#756B5E" d="M687.217 1424.88l.023.005c.01.018.016.028-.064-.014a.91.91 0 0 1 .04.009m444.313 2.292a2 2 0 0 0 .807-2.71l-22.733-41.88c-8.915-16.423-29.596-22.904-46.382-14.603-.016.007-2.343 1.153-3.68 1.78l-80.731-171.752c-10.084-21.454-2.448-47.503 16.983-60.9 1.032-.636 2.624-1.62 4.839-2.988a372.066 372.066 0 0 0 9.196-5.87l10.955-8.233c.043-.032.076-.071.115-.106.055-.05.113-.096.162-.15.042-.045.074-.095.11-.143.043-.057.088-.111.124-.171.032-.053.055-.11.082-.165.028-.061.06-.12.083-.183.02-.058.034-.12.049-.18.017-.063.036-.125.046-.19.01-.062.01-.125.015-.188.004-.065.01-.13.008-.194-.002-.065-.014-.13-.022-.193-.01-.063-.014-.126-.028-.19-.016-.066-.041-.13-.064-.196-.02-.058-.036-.116-.062-.173-.03-.066-.071-.13-.11-.193-.025-.044-.044-.092-.075-.135l-110.363-156.75c-15.832-22.485-48.572-30.89-73.274-18.813l-1.876.918c-6.735 3.142-13.956 4.998-22.333 5.934-6.435.719-11.682.862-23.79.862-87.26 0-158-70.74-158-158 0-12.632.77-21.775 2.914-30.405l1.107-2.95c9.665-25.773-2.255-56.882-26.664-69.602l-26.712-13.92a238.799 238.799 0 0 1 31.527-43.501 1.994 1.994 0 0 0 .548-.598c43.498-47.345 105.919-77.024 175.28-77.024 67.912 0 131.997 26.483 170.484 71.303l2.412 3.094c16.934 21.698 49.565 27.528 72.974 13.037l27.656-17.28a2 2 0 0 0-2.106-3.401l-27.656 17.28c-21.672 13.416-52.037 7.99-67.715-12.097l-2.471-3.166c-39.346-45.824-104.55-72.77-173.577-72.77-3.54 0-7.058.093-10.562.243l-11.385-316.322.566-.022.22-.008c.055.01.104.029.16.037 27.608-.046 51.033-22.258 52.427-49.774l1.468-29.008 6.05.456c18.713 1.403 35.217-12.607 36.873-31.301l4.175-47.124a1.999 1.999 0 1 0-3.984-.353l-4.175 47.123c-1.464 16.515-16.01 29.494-32.54 28.254l-8.215-.593-7.044-.485c-16.583-.425-30.23-14.398-30.44-30.987l-.594-47.085c-.014-1.105-.921-2.027-2.025-2.013a1.983 1.983 0 0 0-1.974 2.006l.594 47c.238 18.74 15.605 34.3 34.337 34.78l4.967.125-1.468 29.772c-1.253 24.733-21.741 44.365-46.366 45.365-.002 0-2.602.005-5.145.108-5.622.226-8.455.249-9.02.28-.06 0-.06-.048-.54.033-23.188-.265-43.431-17.871-46.403-41.353L695.566 78.178a2.005 2.005 0 0 0-2.236-1.74 1.997 1.997 0 0 0-1.733 2.233l13.973 110.38c3.413 26.97 27.788 46.725 55.078 44.612a.677.677 0 0 1 .045-.002c.566-.02 2.305-.138 2.944-.163l11.387 316.368c-27.94 1.658-54.604 8.043-79.198 18.389L570.223 277.49c.915-.37 5.083-2.368 5.142-2.4 21.916-11.763 33.263-38.001 25.669-62.047l-8.935-28.295 7.41-2.221c17.963-5.39 28.517-24.414 23.582-42.511L610.51 93.89a2 2 0 1 0-3.86 1.052l12.58 46.125c4.365 16.005-4.986 32.862-20.871 37.628l-9.353 2.805-.022.008h-.006l-.01.006-3.871 1.364c-15.652 5.524-33.31-2.526-39.4-17.96l-17.256-43.736a2 2 0 0 0-3.721 1.468l17.257 43.737c6.879 17.435 26.77 26.503 44.45 20.263l1.869-.66 8.923 28.257c7.249 22.955-4.25 48.146-25.907 58.408-1.101.469-10.575 5.064-11.464 5.444-21.881 7.778-47.14-1.78-58.41-22.538l-53.1-97.958c-.527-.971-1.741-1.401-2.712-.874a1.96 1.96 0 0 0-.803 2.677l53.1 97.8c12.15 22.38 39.24 32.426 62.802 24.27.154-.05.254-.088.336-.116-.063.039 3.79-1.488 5.462-2.31l.013-.008 125.619 290.804c-30.352 13.365-57.433 32.78-79.723 56.723L378.369 412.342l.88-.956c.097-.095.186-.195.282-.291l.019.017.535-.585.129-.14a54.117 54.117 0 0 0 1.85-2.026 346.73 346.73 0 0 0 .877-.965c.014 0 .015 0 .349-.498 15.927-19.765 15.727-48.573-1.294-67.521l-73.927-82.296a2 2 0 1 0-2.976 2.673l73.927 82.296c15.798 17.586 15.886 44.452 1.045 62.56l-.021.026a.683.683 0 0 0-.046.045 1679.4 1679.4 0 0 0-5.888 6.382 2590.607 2590.607 0 0 0-5.512 5.995c-.018.022-.038.052-.057.078a2.525 2.525 0 0 1-.052.05c-16.614 15.908-43.182 17.793-61.876 3.55l-23.22-17.691c1.482-1.923 2.553-3.307 3.243-4.192.115-.096.227-.208.332-.34.015-.017.028-.037.043-.055a.79.79 0 0 1 .027-.035c11.696-14.607 9.79-36.238-4.335-48.48l-35.812-31.037a2 2 0 1 0-2.62 3.023l35.812 31.036c12.167 10.545 14.094 29.013 4.633 41.918-.188.19-.188.19-.24.254-.07.083-.174.212-.324.402-.678.855-2.324 2.979-5.155 6.658a1113.97 1113.97 0 0 0-4.31 5.618l-.133.19-.044.054c-10.107 12.013-28.221 14.76-41.45 5.94l-39.37-26.246a2 2 0 0 0-2.218 3.328l39.369 26.246c15.549 10.367 37.005 6.588 48.087-8.422l.085-.11.038-.05c.072-.1.135-.2.187-.3l1.715-2.23 23.236 17.704c21.947 16.72 53.844 12.956 71.285-8.411.015-.02.022-.04.036-.06l.15-.163 234.067 214.23C571.1 672.399 547.58 729.16 547.58 791.418c0 9.5.563 18.892 1.639 28.144l-75.854 8.753c-.477-4.414-.777-9.145-.891-14.19-.255-11.27.354-23.367 1.525-35.345.346-3.538.717-6.8 1.087-9.707.129-1.016.249-1.915.357-2.687 2.809-28.487-16.452-55.541-43.193-61.712l-29.776-6.871c1.5-6.18 3.159-12.434 5.026-18.824l.49-1.677.08-.228c.025-.084 1.326-6.034 1.338-6.18.004-.021.206-.045.21-.067 5.219-24.424-7.263-50.238-30.438-60.2l-175.007-75.25c.748-1.698 1.344-2.99 1.755-3.907.11-.134.223-.29.309-.467 8.195-16.912 1.444-37.436-15.207-46l-41.538-21.363a2 2 0 0 0-1.827 3.557l41.54 21.364c14.18 7.29 20.249 24.427 14.183 39.054l-.005.012a1.024 1.024 0 0 0-.084.109 6.404 6.404 0 0 0-.342.65c-.405.872-1.427 3.172-3.208 7.228-1.776 4.047-2.768 6.336-3.123 7.195a7.317 7.317 0 0 0-.183.475c-.028.08-.028.08-.083.347a.794.794 0 0 0-.012.064l-.022.05c-6.574 14.185-23.126 21.094-37.963 15.479l-44.075-16.676a2 2 0 1 0-1.415 3.74l44.074 16.678c17.556 6.642 37.225-2.186 43.93-19.721.069-.181.113-.356.135-.525.387-.896.918-2.116 1.603-3.68L377.699 614.3c21.65 9.307 33.317 33.688 28.019 56.525-.307 1.045-.973 3.32-2.056 7.03-3.217 11.013-5.893 21.663-8.04 32.16a1499.67 1499.67 0 0 0-1.695 8.34c-.018.332-.026.51-.03.615l-.012.05c-5.734 22.442-27.496 38.553-51.014 36.767l-30.115-2.287c.434-4.748 1.003-9.332 2.15-17.89.36-2.684 1.094-13.265 1.094-13.265v-.001c1-24.887-15.372-48.081-39.941-53.855l-187.15-44.02c-1.075-.252-2.087.415-2.34 1.49-.252 1.075.447 2.152 1.522 2.404l187.296 44.019c23.29 5.474 39.014 27.983 37.003 51.697-.171 1.29-.43 3.29-.796 6.077-.176 1.345-.294 2.242-.654 4.923-1.322 9.86-1.882 14.495-2.353 20.172a2.002 2.002 0 0 0 1.828 2.159c.228.018.447-.01.656-.063.116.03.235.054.359.064l31.138 2.365c27.489 2.087 52.693-18.34 56.334-45.657 0-.047-.008-.088-.01-.134l.649-3.168a363.421 363.421 0 0 1 2.003-9.126l29.808 6.879c24.759 5.714 42.702 30.898 40.262 56.339-.241 1.71-.364 2.624-.495 3.656-.375 2.945-.75 6.246-1.1 9.824-1.186 12.125-1.802 24.375-1.543 35.824.133 5.882.499 11.386 1.12 16.447a250.311 250.311 0 0 0 8.533 41.239c2.235 7.546 4.63 14.339 7.029 20.273a150.333 150.333 0 0 0 2.327 5.468c.247.548.467 1.025.658 1.428 9.393 24.169-1.337 53.285-23.748 65.376l-172.763 93.212a2.001 2.001 0 0 0 1.899 3.52l172.763-93.211c24.212-13.063 35.725-44.362 25.748-70.004-.464-.985-.674-1.44-.911-1.966a148.355 148.355 0 0 1-2.265-5.322c-2.351-5.818-4.704-12.491-6.902-19.91a246.706 246.706 0 0 1-8.121-38.48l75.874-8.754c12.355 92.782 77.525 170.752 167.427 198.942.756.206 1.46.386 2.185.562 2.78.675 5.75 1.258 8.717 1.75 1.038.172 2.002.32 2.868.445 26.162 4.402 45.822 28.59 44.862 54.083l-7.12 189.07-15.378-.278c-28.414-.731-52.384 16.813-57.093 43.214l-19.223 107.789c-.885-.154-4.662-.825-4.95-.871-.034-.008-.034-.008-.438-.03-17.462-1.924-34.344 9.549-38.601 26.8l-11.333 45.932a2 2 0 1 0 3.883.959l11.334-45.931c3.823-15.493 19.195-25.763 34.905-23.707.868.154 2.949.517 6.468 1.127.004 0 .006 0 .01.002 4.624.802 7.362 1.266 8.558 1.456.259.04.446.069.573.086a4.56 4.56 0 0 0 .462.03c15.786 2.963 26.97 17.948 25.139 34.022l-5.378 47.209a2.001 2.001 0 0 0 3.975.453l5.378-47.21c2.118-18.592-11.14-35.85-29.643-38.616l-.018-.003-.084-.014a2.302 2.302 0 0 0-.485-.022 850.85 850.85 0 0 1-5.814-.99l19.22-107.77c4.345-24.36 26.532-40.6 53.067-39.915l17.355.313.019-.001h.017c25.28 0 42.568 4.48 53.427 13.057 9.302 7.345 13.977 18.804 15.419 33.04l2.955 30.323-.208-2.13c-27.525 1-49.337 26.309-48.992 53.887l1.4 111.422c.013 1.105.92 1.702 2.024 1.689 1.105-.014 1.989-1.064 1.975-2.168l-1.4-112.067c-.318-25.443 20.042-47.371 45.435-48.894 0 0 10.55-.358 11.19-.425 23.573-.893 45.015 15.672 49.182 39.186l5.28 29.645s-3.05.824-5.3 1.23c-18.498 3-30.7 20.777-28.352 39.316l5.98 46.697c.14 1.096 1.14 1.594 2.236 1.455 1.096-.14 1.872-1.278 1.734-2.374l-5.982-47.321c-1.996-15.77 8.617-30.567 24.007-34.03.287-.014 17.759-3.532 17.78-3.543l.016-.004c15.616-2.876 30.874 6.984 34.529 22.618l10.718 45.848a2 2 0 0 0 3.895-.911l-10.718-45.848c-4.274-18.284-22.553-29.604-40.83-25.287-.196.046-3.384.768-5.785 1.238l-5.27-29.731c-4.52-25.508-27.741-43.46-53.18-42.481-.028 0-6.621.314-7.375.386l-2.965-29.274c-3.238-31.984-23.11-48.071-70.75-48.526l7.118-188.976c1.035-27.5-20.05-53.44-47.17-58.038a149.7 149.7 0 0 1-3.904-.587c-2.877-.477-5.754-1.042-8.428-1.691a79.712 79.712 0 0 1-2.007-.514C619.89 987.785 551.58 896.213 551.58 791.417c0-41.051 10.394-79.674 28.693-113.383l26.814 13.973c22.617 11.786 33.722 40.77 24.767 64.65l-1.146 3.058c-2.328 9.259-3.128 18.717-3.128 31.702 0 89.47 72.53 162 162 162 12.256 0 17.6-.146 24.233-.887 8.784-.982 16.42-2.944 23.613-6.3l1.909-.933c22.937-11.214 53.546-3.356 68.246 17.523l109.248 155.164-9.255 6.959a367.585 367.585 0 0 1-9.045 5.773l-.577.356a52.87 52.87 0 0 0-4.329 2.673l-.56.346-.634.392-.023.015-.176.108.002.003-.172.114.065.096c-20.03 14.942-27.583 42.238-16.936 64.89l80.729 171.746a270.569 270.569 0 0 1-5.703 2.559c-17.243 7.364-25.665 27.464-18.822 44.925l17.325 44.208a2 2 0 0 0 3.724-1.46l-17.324-44.207c-5.89-15.028 1.017-32.305 15.44-39.231.122-.012 16.047-7.476 16.06-7.481 14.54-6.14 31.849-.276 39.442 13.71l22.749 41.887a2.01 2.01 0 0 0 2.719.807M244.897 1124.24a2.032 2.032 0 0 0-.09-.296c-.198-.36-.295-.523-.43-.752-.084-.14-.158-.265-.23-.389a51.984 51.984 0 0 0-2.168-3.638c-.02-.025-.042-.042-.062-.066l-1.619-2.708c-8.393-14.039-16.006-27.918-22.926-41.863a4392.115 4392.115 0 0 1-2.677-5.406 2.318 2.318 0 0 0-.16-.503c-.013-.03-.029-.059-.043-.09-11.26-25.197-40.825-37.716-66.505-27.999l-29.114 11.016a2 2 0 0 0 1.416 3.741l29.114-11.016c22.485-8.508 48.271 1.493 59.726 22.435.154.45.19.525.237.626.385.813 1.783 3.653 4.423 8.974 3 6.044 6.136 12.076 9.4 18.113l-68.543 36.23a2 2 0 0 0 1.87 3.536l68.584-36.252a648.968 648.968 0 0 0 11.764 20.51c1.981 3.313 3.245 5.425 3.892 6.504 11.101 21.013 5.045 47.725-14.512 61.566l-25.818 18.271a1.999 1.999 0 1 0 2.31 3.265l25.818-18.27c20.892-14.785 27.572-43.06 16.364-65.497l-.02-.042"/>
        <path fill="#756B5E" d="M459.581 1243.417l1.065-1.693.091.057.083.066-1.239 1.57zm78.92 135.169s-3.309-1.639-4.482-2.157l12.738-28.347c11.22-25.16.397-55.303-24.252-67.407l-62.039-39.083c-21.65-17.092-53.724-13.992-71.706 6.93l-72.702 84.592a2.002 2.002 0 1 0 3.038 2.607l72.71-84.594c16.584-19.295 46.24-22.163 66.207-6.399l.503.382 62.187 39.104c22.78 11.125 32.862 38.996 22.503 62.223l-12.639 28.344a841.602 841.602 0 0 1-3.95-1.759 2.282 2.282 0 0 0-.455-.286c-16.91-8.193-37.367-1.385-45.839 15.323l-21.526 42.454a2 2 0 0 0 3.568 1.809l21.526-42.454c7.204-14.209 24.246-20.319 38.85-14.284.03.025.056.041.302.193.098.053.232.118.447.218.87.406 3.187 1.441 7.283 3.251 3.838 1.697 5.96 2.626 6.684 2.932.254.107.336.14.468.178.034.012.065.02.16.036a.036.036 0 0 0 .008.004c14.125 6.786 21.314 23.611 16.117 38.601l-15.519 44.765a2 2 0 0 0 3.78 1.31l15.518-43.766c6.13-17.678-2.118-37.72-19.489-44.72zM1230.642 330.509l.018.017h.001c.023.022.045.046.07.067.131.123.267.224.405.304.782.76 1.977 1.93 3.618 3.543L1213.8 355.77c-19.327 19.671-19.87 52.04-1.218 72.34l.133.146-22.168 19.212c-19.15 16.598-23.437 45.212-10.936 66.683.082.163.135.267.182.354-.083-.089-.016.02.171.293.04.06.087.129.152.222l.133.194a51.38 51.38 0 0 0 2.99 4.338c.001.002.002.005.004.006l.063.087.006.006c.236.344.43.623.623.903l2.981 4.327c.053.154.126.308.221.462 14.514 23.55 45.488 32.144 69.707 19.174l168.681-90.336a1.999 1.999 0 1 0-1.888-3.526l-168.682 90.337c-21.07 11.284-47.758 4.854-61.977-14.165 0-.002-.002-.003-.003-.004-.123-.345-.132-.356-.153-.37-.574-.875-2.295-3.388-5.595-8.17a4717.983 4717.983 0 0 0-3.645-5.284c-12.166-19.948-8.346-46.969 9.585-62.509l22.133-19.181 1.176 1.505c16.965 21.737 48.967 26.504 71.537 10.653l91.718-64.413a2 2 0 1 0-2.299-3.274l-91.718 64.413c-20.827 14.626-50.43 10.217-66.085-9.84l-2.47-3.165-.039-.041c-.01-.012-.017-.026-.027-.04-.018-.02-.04-.034-.058-.055l-1.508-1.65c-17.212-18.73-16.708-48.677 1.127-66.83l20.95-21.323c1.363 1.346 2.393 2.365 3.116 3.082.08.125.176.245.29.363.017.019.034.034.051.052l.071.07c13.052 13.384 34.705 14.18 48.592 1.704l35.194-31.615a2 2 0 0 0-2.673-2.976l-35.194 31.615c-11.9 10.692-30.3 10.366-41.948-.435l-.009-.009c-.024-.036-.034-.048-.044-.061a8.084 8.084 0 0 0-.434-.468 833.26 833.26 0 0 0-5.628-5.575l-.005-.005c-.002-.002-.004-.002-.006-.005-3.223-3.175-5.097-5.007-5.87-5.745a18.429 18.429 0 0 0-.38-.353c-.067-.062-.067-.062-.316-.24-.009-.007-.017-.01-.025-.015-.002-.004-.004-.005-.006-.007-11.178-11.375-11.869-29.92-1.324-42.087l31.037-35.812a2 2 0 0 0-3.023-2.62l-31.037 35.813c-12.257 14.143-11.08 35.857 2.61 48.59"/>
        <path fill="#756B5E" d="M1048.976 493.936l1.2.994c.913.763 1.975 1.663 3.172 2.693a425.139 425.139 0 0 1 11.357 10.147c11.754 10.869 23.507 22.797 34.472 35.41 11.152 12.828 20.86 25.66 28.705 38.292 10.79 19.454 24.75 49.977 30.808 67.595a1.998 1.998 0 0 0 2.541 1.24 1.998 1.998 0 0 0 1.241-2.54c-6.138-17.854-20.195-48.587-31.142-68.32-8.017-12.914-17.85-25.912-29.134-38.891-11.068-12.732-22.922-24.762-34.775-35.722a432.86 432.86 0 0 0-11.464-10.244 287.452 287.452 0 0 0-4.073-3.438c-19.138-17.505-22.992-48.35-8.775-69.396l152.13-225.22a2 2 0 1 0-3.315-2.238l-152.129 225.219c-15.344 22.716-11.198 55.798 9.181 74.419M1460.86 530.552l-230 88.5a1.999 1.999 0 1 0 1.442 3.73l230-88.5a2 2 0 0 0-1.442-3.73M384.447 1389.064a2 2 0 0 0 2.782-.513l47.5-69.5a2.002 2.002 0 0 0-.513-2.782 2.002 2.002 0 0 0-2.782.513l-47.5 69.5a2 2 0 0 0 .513 2.782M620.653 1058.228a2 2 0 0 0-2.76.617l-88 139a2 2 0 1 0 3.377 2.143l88-139a2 2 0 0 0-.617-2.76"/>
    </g>
</svg>
