<svg xmlns="http://www.w3.org/2000/svg" width="1580" height="1580" viewBox="0 0 1580 1580">
    <g fill="none" fill-rule="evenodd">
        <path fill="#413A32" d="M1387.736 1190.278l-35.614-25.172c-14.769-10.44-19.31-30.946-10.74-46.79l1.928-3.304a2079.85 2079.85 0 0 0 3.323-5.709c9.721-14.803 29.168-20.078 44.941-11.869l39.083 20.342a1.997 1.997 0 1 0 1.847-3.543l-39.082-20.341c-17.512-9.116-39.062-3.35-49.832 12.753-.198.267-.255.363-.345.515l-.102.173a.041.041 0 0 0-.007.01l-.55.933c-.185.312-.378.515-.57.844-.205.347-.207.312-.258.311-.012.001-.024.167-.035.189-.015.036-.022.134-.034.17-.029.05-.057.129-.086.178-.48.825-1.062 1.838-1.75 3.018-.282.483-.543.907-.784 1.32-.033.052-.057.119-.09.119h-.003c-.038 0-.059.135-.113.228-.329.537-.62 1.051-.888 1.542-.43.737-.624 1.215-.815 1.544-.147.251-.16.26-.16.42v.002c0 .018-.11.053-.117.062.001-.001-.026-.001-.022-.002-.026.089-.078.256-.11.46-.023.048-.055.096-.076.144-7.85 17.22-2.554 38.448 13.143 49.542l35.61 25.172a2.001 2.001 0 0 0 2.787-.477c.639-.9.424-2.147-.478-2.784M1418.051 680.993c.131.42.209.661.343 1.174.248.943.548 2.3.899 4.143 1.015 5.337 2.218 13.465 3.6 24.95 1.208 10.044 1.956 17.748 2.33 23.42.251 3.803.305 6.4.25 7.67 1.204 28 24.53 50.483 52.116 50.483h31.992a1.998 1.998 0 0 0 0-3.995h-31.992c-25.406 0-46.943-20.736-48.133-46.053.075-1.695.018-4.327-.242-8.264-.359-5.44-1.059-12.775-2.164-22.11l76.76-8.871a2.01 2.01 0 0 0 1.758-2.227 2.004 2.004 0 0 0-2.216-1.761l-76.779 8.843c-1.271-10.315-2.389-17.775-3.35-22.829-.367-1.927-.687-3.373-.96-4.413a15.511 15.511 0 0 0-.315-1.075c-4.754-24.957 11.125-49.948 35.707-56.007l30.405-7.492a1.997 1.997 0 1 0-.958-3.88l-30.405 7.494c-26.709 6.582-43.899 33.71-38.646 60.8"/>
        <path fill="#413A32" d="M1334.891 1259.312l-35.812-30.998c-14.174-12.269-35.95-11.065-48.667 2.692-.129.14-.234.284-.317.43a548.38 548.38 0 0 1-3.534 3.594l-21.33-20.93c-17.138-16.815-18.82-44.286-4.583-63.403.841-1.023 2.307-2.81 4.481-5.463 28.59-34.88 52.88-72.898 72.256-113.258 2.543-5.299 3.88-8.101 4.23-8.87.224-.593.233-.621.243-.734 10.997-20.913 36.615-31.203 59.203-23.081l104.843 37.695a1.996 1.996 0 1 0 1.355-3.758l-104.843-37.696c-25.943-9.328-55.5 3.719-66.059 29.159-.017.08-.019.156-.029.233-.839 1.756-1.614 3.373-2.55 5.325-19.237 40.072-43.356 77.82-71.744 112.454l-1.705 2.08-.2.227-.007-.006-.172.211a49.313 49.313 0 0 0-2.308 2.826l-.52.639c-.486.601-.486.601-.523.653a.384.384 0 0 0 .037.09c-.09.13-.183.258-.272.387-14.245 20.61-12.074 49.344 6.062 67.14l21.32 20.92-1.212 1.22c-.093.086-.17.161-.255.241l-.009-.01-.282.287-.024.023c-.363.352-.655.652-.934.951l-.405.414c-.24.253-.24.253-.36.408-.013.018-.028.047-.042.072l-.025.03c-11.449 13.165-11.64 33.35.07 46.587l31.814 35.972a2 2 0 0 0 2.823.175c.828-.73.906-1.993.175-2.82l-31.815-35.971c-10.523-11.897-10.187-30.19.416-41.844.62-.62 2.013-2.023 4.321-4.349.002-.002 0-.003 0-.005H1248v-.002c3-3.025 4.762-4.815 5.51-5.6.166-.176.287-.303.37-.395.212-.26.23-.28.286-.388 11.35-11.365 30.05-12.13 42.292-1.533l35.813 30.998a2.003 2.003 0 0 0 2.822-.202 1.996 1.996 0 0 0-.202-2.817M1046.596 207.794l4.923 2.185c17.125 7.602 37.845.245 46.32-16.448l21.526-42.4a1.997 1.997 0 0 0-.88-2.686 2.003 2.003 0 0 0-2.689.88l-21.525 42.4c-7.51 14.795-25.948 21.341-41.127 14.604l-6.75-2.996-7.642-3.3c-15.242-6.584-22.853-24.53-16.978-40.035l16.678-44.02a2 2 0 1 0-3.741-1.414l-16.677 44.02c-6.63 17.502 1.927 37.685 19.132 45.115l5.767 2.491-11.683 26.254c-9.798 22.017-35.232 33.468-58.32 26.968a15580.149 15580.149 0 0 0-13.75-4.536c-22.072-8.613-35.062-32.7-29.509-55.936l25.855-108.173a2 2 0 1 0-3.891-.928L925.78 198.013c-5.922 24.78 7.574 50.403 30.624 60.056l.017.033c.326.177.326.177.362.191.324.113.514.177.777.265l.384.127.141.047c1.388.52 2.69.954 4.006 1.329l.035.012.001-.001.084.026c.026.005.05.004.076.008l.906.3-78.007 230.249a2 2 0 0 0 3.789 1.28l78.016-230.277.767.254c.101.038.194.07.294.106l-.004.011.301.098c1.126.41 2.127.735 3.124 1.024a205.628 205.628 0 0 0 1.54.502c.206.067.206.067.558.12l.028-.055c24.498 5.988 50.94-6.356 61.306-29.651l11.691-26.273zM235.394 858.331c-.005-.43-.017-.547-.032-.704-.004-.038.038-.08.034-.118-.086-1.51-.45-4.426-.455-4.458-.008-.03-1.618-17.505-1.789-19.802l29.93-2.254c27.44-2.082 48.918-25.975 48.918-53.49v-.004c0-.017-.085-10.126.034-12.987.046-1.103-.838-2.033-1.942-2.078a2.01 2.01 0 0 0-2.094 1.912c-.119 2.888.002 14.952.002 14.953-1 24.642-20.457 45.831-45.225 47.71l-29.81 2.253c-.072-.985-.19-1.921-.249-2.762-.025-.353-.065-.562-.09-.935-.012-.157-.032-18.669-.032-18.669 0-25.612-20.74-47.382-46.352-48.661l-33.55-1.675.2-3.641c.034-.128.056-.266.067-.413l.004-.062.004-.083c1.375-18.65-12.46-35.02-31.086-36.668l-47.123-4.17a1.997 1.997 0 1 0-.354 3.979l47.094 4.17C137.345 721.076 149 734.562 149 750.29v.015c0 .023.022.041.017.071-.013.093.202.203.187.428-.056.831-.204 3.23-.204 7.545v-.473h-.313c-.199 3.995-.365 6.255-.409 7.514-.019.541-.05.997-.045 1.196.004.097-.009.157.022.42-.698 16.271-14.318 29.57-30.683 29.777l-47.013.61a2.007 2.007 0 0 0-1.976 2.03 2 2 0 0 0 2.024 1.975l47.01-.592c18.741-.237 34.246-15.59 34.645-34.312.004-.185-.012-.358-.039-.726.035-.985.116-2.697.248-5.217l33.775 1.676C209.728 763.399 229 783.414 229 806.898v18.474c0 .845-.142 1.054-.117 1.407.071 1.011.046 2.137.133 3.349.25 3.464.458 6.928.717 10.163.132 1.65.234 3.198.358 4.63.19 2.193 1.188 12.146 1.29 13.092 1 21.668-14.283 41.553-35.878 45.7l-32.328 6.209-.397-2.095a2.499 2.499 0 0 0-.033-.313l-.01-.047h.001l-.07-.363-.156-.8a88.974 88.974 0 0 0-.195-.988c-.035-.182-.035-.182-.105-.43-.007-.015-.017-.03-.025-.045l-.028-.112c-4.316-16.998-20.953-28.796-38.593-26.789l-47.21 5.372a1.998 1.998 0 1 0 .453 3.969l47.21-5.372c15.826-1.8 30.992 8.984 34.592 24.367.15.807.391 2.847 1.391 6.358v.047H159.713c.793 3.994 1.188 6.47 1.347 7.25.048.24.044.32.073.423.011.034.007.048.015.073.001.005-.004.008-.003.013 2.346 15.548-7.597 31.074-22.963 35.26l-46.126 12.562a1.997 1.997 0 1 0 1.052 3.854l46.124-12.564c18.081-4.925 29.46-23.697 25.444-41.972a2.467 2.467 0 0 0-.119-.386c-.163-.848-.378-1.97-.639-3.346l32.338-6.211c23.44-4.502 40.03-25.948 39.138-49.306M1205.559 1379.417a1.995 1.995 0 0 0 .657-2.894l-110.363-156.55c-13.857-19.657-10.614-47.199 6.8-63.677l3.245-2.833c21.784-19.03 41.936-40.186 60.248-63.18 4.175-5.243 11.69-12.09 19.496-17.084 3.029-1.938 6.039-3.576 9.007-4.883a2.003 2.003 0 0 0 1.193-2.112h-.001a2.004 2.004 0 0 0-2.791-1.553c-3.17 1.396-6.365 3.136-9.566 5.184-8.182 5.236-16.024 12.38-20.467 17.96a489.816 489.816 0 0 1-26.401 30.461l-21.101-20.336c-19.817-19.097-52.166-19.443-72.372-.796l-16.66 12.214c-.803.59-1.144 1.683-.69 2.568a2.004 2.004 0 0 0 2.973.715l16.836-12.344.178-.147c18.643-17.283 48.64-16.986 66.956.664l21.14 20.374a473.614 473.614 0 0 1-30.611 29.287l-.302.264a53.107 53.107 0 0 0-2.996 2.617c-.604.527-.711.62-1.396 1.22l-.358.313c-.27.234-.413.36-.424.37l.004.003c-.11.102-.19.179-.19.179l.145.146c-16.944 18.194-19.537 46.32-5.166 66.705l110.299 156.458c.602.854 1.767 1.2 2.678.687M1175.91 693.062a248.96 248.96 0 0 0-.467-1.981 384.248 384.248 0 0 0-1.857-7.399 507.995 507.995 0 0 0-7.42-25.58 2.002 2.002 0 0 0-2.512-1.298 1.997 1.997 0 0 0-1.3 2.509 502.327 502.327 0 0 1 7.361 25.378 374.77 374.77 0 0 1 1.838 7.32c.178.744.331 1.394.458 1.946l.15.661c7.166 26.619 35 45.346 62.305 41.991l115.86-14.62a1.998 1.998 0 1 0-.49-3.965l-115.859 14.62c-25.326 3.111-51.305-14.368-57.932-38.976a26.752 26.752 0 0 0-.136-.606M370.426 203.527a1.995 1.995 0 0 0-.477 2.784l233.5 329.583a2.002 2.002 0 0 0 2.788.477 1.997 1.997 0 0 0 .477-2.785l-233.5-329.582a2.001 2.001 0 0 0-2.788-.477M553.741 1000.665l-299.5 269.66a1.996 1.996 0 0 0-.145 2.82 2 2 0 0 0 2.825.145l299.5-269.658c.82-.74.885-2.002.145-2.822a2.002 2.002 0 0 0-2.825-.145M1210.346 1381.908l27.188 36.034c.664.88.493 2.126-.396 2.795a1.996 1.996 0 0 1-2.8-.39l-27.187-36.035c-3.03 5.549-10.527 22.557 1.19 38.088 14.248 18.883 38.426 11.098 38.426 11.098s14.156-21.066-.091-39.949c-11.718-15.53-30.154-13.022-36.33-11.641M1280.903 1326.459l30.229 33.53a1.989 1.989 0 0 1-.15 2.819 1.996 1.996 0 0 1-2.822-.145l-30.23-33.53c-2.534 5.79-8.518 23.387 4.51 37.839 15.841 17.57 39.248 7.71 39.248 7.71s12.264-22.218-3.577-39.788c-13.028-14.452-31.176-10.348-37.208-8.435M1377.599 1268.264c-14.695-12.758-32.207-6.476-37.96-3.844l34.095 29.602c.833.722.925 1.977.195 2.815a1.996 1.996 0 0 1-2.819.2l-34.096-29.601c-1.809 6.056-5.601 24.25 9.094 37.008 17.867 15.511 39.896 2.877 39.896 2.877s9.461-23.546-8.405-39.057M1431.365 1196.663c-15.551-11.703-32.581-4.215-38.137-1.19l36.08 27.154a1.989 1.989 0 0 1 .391 2.796 1.996 1.996 0 0 1-2.798.395l-36.08-27.153c-1.382 6.167-3.894 24.58 11.657 36.284 18.906 14.229 39.999.09 39.999.09s7.794-24.147-11.112-38.376M1511.886 1026.29c-18.178-6.97-32.482 4.916-36.987 9.355l42.176 16.17a1.99 1.99 0 0 1 1.147 2.579 1.995 1.995 0 0 1-2.58 1.15l-42.177-16.17c.374 6.31 3.041 24.702 21.219 31.67 22.101 8.474 38.476-10.923 38.476-10.923s.827-25.358-21.274-33.831M1546.75 765.007c-19.468.34-28.273 16.711-30.785 22.513l45.17-.788a1.993 1.993 0 0 1 2.032 1.962 1.994 1.994 0 0 1-1.962 2.033l-45.17.787c2.713 5.71 12.085 21.765 31.553 21.425 23.669-.412 31.576-24.523 31.576-24.523s-8.744-23.821-32.414-23.409M1538.522 672.466c-19.326 2.37-26.368 19.571-28.26 25.602l44.841-5.499a1.993 1.993 0 0 1 2.225 1.74 1.993 1.993 0 0 1-1.738 2.226l-44.84 5.498c3.296 5.397 14.296 20.385 33.622 18.015 23.497-2.882 28.837-27.686 28.837-27.686s-11.19-22.778-34.687-19.896M1519.956 581.879c-18.972 4.374-24.176 22.217-25.426 28.413l44.02-10.15a1.994 1.994 0 0 1 2.395 1.498 1.992 1.992 0 0 1-1.496 2.394l-44.019 10.15c3.843 5.022 16.351 18.78 35.324 14.406 23.066-5.32 25.781-30.546 25.781-30.546s-13.513-21.484-36.579-16.165M1421.207 344.325a1.994 1.994 0 0 1 2.782.493 1.99 1.99 0 0 1-.488 2.779l-37.007 25.88c5.447 3.22 22.205 11.295 38.155.141 19.392-13.562 12.447-37.966 12.447-37.966s-20.587-14.865-39.979-1.303c-15.95 11.154-14.083 29.643-12.917 35.855l37.007-25.879zM1361.174 269.59a1.996 1.996 0 0 1 2.826.052c.767.794.75 2.053-.047 2.822l-32.498 31.342c5.884 2.328 23.701 7.688 37.707-5.821 17.029-16.425 6.347-39.443 6.347-39.443s-22.662-11.466-39.691 4.957c-14.006 13.51-9.266 31.48-7.142 37.434l32.498-31.343zM1293.109 203.99a1.995 1.995 0 0 1 2.811-.293 1.99 1.99 0 0 1 .298 2.807l-28.431 35.065c6.124 1.594 24.462 4.744 36.715-10.369 14.898-18.374 1.487-39.921 1.487-39.921s-23.892-8.622-38.79 9.752c-12.253 15.113-5.355 32.372-2.521 38.023l28.431-35.064zM1138.054 100.678a1.995 1.995 0 0 1 2.64-1.008 1.991 1.991 0 0 1 1.015 2.633l-18.376 41.22c6.329-.044 24.858-1.74 32.778-19.506 9.629-21.6-8.91-38.946-8.91-38.946s-25.312-2.152-34.94 19.448c-7.92 17.764 3.216 32.653 7.418 37.378l18.375-41.219zM1054.31 65.02a1.995 1.995 0 0 1 2.583-1.146 1.99 1.99 0 0 1 1.151 2.578l-16.19 42.122c6.318-.373 24.733-3.037 31.711-21.192 8.483-22.072-10.938-38.426-10.938-38.426s-25.39-.826-33.874 21.247c-6.978 18.155 4.922 32.441 9.367 36.94l16.19-42.123zM954.1 82.68l9.393-44.135a1.993 1.993 0 0 1 2.371-1.535 1.993 1.993 0 0 1 1.542 2.366l-9.393 44.134c6.181-1.356 23.952-6.864 28-25.885 4.922-23.127-16.822-36.245-16.822-36.245s-25.207 3.15-30.129 26.278c-4.048 19.021 9.944 31.272 15.038 35.021M603.142 87.2l-12.453-43.373a1.99 1.99 0 0 1 1.373-2.466 1.994 1.994 0 0 1 2.473 1.366l12.452 43.372c4.82-4.096 17.922-17.292 12.555-35.985C613.017 27.386 587.652 26 587.652 26s-20.776 14.602-14.25 37.329c5.367 18.693 23.479 22.95 29.74 23.872M441.048 151.403l-19.804-40.553a1.988 1.988 0 0 1 .922-2.668 1.996 1.996 0 0 1 2.673.916l19.804 40.554c4.035-4.87 14.644-20.137 6.108-37.615-10.378-21.25-35.599-18.218-35.599-18.218s-17.92 17.982-7.543 39.233c8.535 17.478 27.113 18.53 33.44 18.351M364.17 199.265l-27.188-36.035a1.989 1.989 0 0 1 .395-2.794 1.995 1.995 0 0 1 2.799.39l27.189 36.035c3.03-5.55 10.527-22.558-1.191-38.089-14.247-18.882-38.426-11.098-38.426-11.098s-14.156 21.066.091 39.95c11.718 15.53 30.155 13.021 36.331 11.64M103.583 469.85c17.647 8.218 32.746-2.642 37.551-6.756l-40.945-19.07a1.99 1.99 0 0 1-.964-2.653c.467-1 1.65-1.435 2.655-.966l40.944 19.067c.068-6.32-1.308-24.852-18.955-33.07-21.455-9.993-39.145 8.217-39.145 8.217s-2.596 25.238 18.859 35.23M33.503 734.602c19.424 1.357 29.624-14.186 32.632-19.747l-45.067-3.147a1.992 1.992 0 0 1-1.852-2.132 1.994 1.994 0 0 1 2.131-1.854l45.067 3.148c-2.204-5.924-10.139-22.734-29.563-24.09-23.615-1.649-33.596 21.682-33.596 21.682s6.632 24.492 30.248 26.14M63.199 802.397l-45.17.787a1.99 1.99 0 0 1-2.031-1.961 1.992 1.992 0 0 1 1.961-2.033l45.17-.787c-2.713-5.71-12.084-21.765-31.553-21.425C7.907 777.39 0 801.502 0 801.502s8.744 23.82 32.414 23.408c19.468-.34 28.273-16.712 30.785-22.513M39.577 985.243a1.991 1.991 0 0 1 1.368-2.47l43.427-12.436c-4.101-4.815-17.313-17.9-36.03-12.54-22.756 6.518-24.145 31.85-24.145 31.85s14.619 20.75 37.375 14.232c18.717-5.36 22.979-23.45 23.903-29.702l-43.428 12.436a1.993 1.993 0 0 1-2.47-1.37M217.22 1309.022a1.995 1.995 0 0 1-2.818-.2 1.99 1.99 0 0 1 .195-2.816l34.095-29.601c-5.753-2.632-23.265-8.915-37.96 3.843-17.866 15.511-8.405 39.057-8.405 39.057s22.029 12.635 39.896-2.876c14.695-12.759 10.903-30.952 9.094-37.009l-34.096 29.602zM623.987 1497.688l-12.453 43.372a1.992 1.992 0 0 1-2.472 1.366 1.992 1.992 0 0 1-1.373-2.467l12.453-43.373c-6.261.923-24.374 5.18-29.741 23.873-6.525 22.727 14.25 37.328 14.25 37.328s25.366-1.388 31.891-24.115c5.367-18.693-7.735-31.888-12.555-35.984"/>
        <path fill="#413A32" d="M1172.019 1160.034l-32.498-31.343c-2.124 5.954-6.865 23.925 7.142 37.434 17.029 16.423 39.69 4.958 39.69 4.958s10.682-23.02-6.347-39.444c-14.006-13.508-31.823-8.15-37.707-5.821l32.498 31.343c.793.765.82 2.022.047 2.821a1.995 1.995 0 0 1-2.825.052M1317.706 1103.126l-39.125-22.56c-.619 6.29-.865 24.872 15.997 34.596 20.502 11.82 39.713-4.78 39.713-4.78s4.79-24.916-15.713-36.737c-16.862-9.723-32.852-.22-37.997 3.46l39.125 22.561a1.99 1.99 0 0 1 .73 2.727 1.996 1.996 0 0 1-2.73.733M1218.623 1059.345l38.725 23.238c.728-6.278 1.299-24.853-15.391-34.868-20.292-12.178-39.79 4.085-39.79 4.085s-5.223 24.829 15.069 37.007c16.69 10.015 32.843.792 38.051-2.799l-38.724-23.238a1.99 1.99 0 0 1-.681-2.74 1.995 1.995 0 0 1 2.741-.685M1284.626 1274.63l-33.041-30.773c-2.02 5.99-6.445 24.041 7.795 37.303 17.314 16.125 39.771 4.267 39.771 4.267s10.279-23.203-7.035-39.327c-14.24-13.263-31.961-7.594-37.803-5.164l33.041 30.772a1.99 1.99 0 0 1 .096 2.82 1.996 1.996 0 0 1-2.824.102M1385.967 1141.405l-39.513-21.874c-.509 6.3-.43 24.883 16.599 34.311 20.706 11.463 39.624-5.47 39.624-5.47s4.352-24.996-16.353-36.459c-17.03-9.428-32.851.354-37.931 4.123l39.513 21.874a1.99 1.99 0 0 1 .777 2.715 1.996 1.996 0 0 1-2.716.78M887.95 1009.783l19.804 40.554c.484.99.078 2.181-.922 2.667a1.996 1.996 0 0 1-2.673-.916l-19.804-40.554c-4.035 4.87-14.644 20.137-6.108 37.615 10.378 21.251 35.599 18.218 35.599 18.218s17.92-17.982 7.543-39.232c-8.536-17.479-27.113-18.53-33.44-18.352M983.609 783.581c-19.444-1.017-29.371 14.7-32.282 20.313l45.115 2.362a1.992 1.992 0 0 1 1.889 2.099 1.993 1.993 0 0 1-2.098 1.89l-45.116-2.361c2.308 5.885 10.535 22.553 29.98 23.57 23.64 1.238 33.212-22.263 33.212-22.263s-7.06-24.372-30.7-25.61M1071.716 851.386l-44.347-8.609c1.466 6.148 7.29 23.799 26.403 27.51 23.239 4.51 35.992-17.432 35.992-17.432s-3.595-25.116-26.833-29.627c-19.113-3.711-31.134 10.475-34.8 15.627l44.349 8.61a1.992 1.992 0 0 1 1.578 2.341 1.994 1.994 0 0 1-2.342 1.58M815.855 408.156s-24.404 7.051-25.643 30.662c-1.019 19.42 14.72 29.333 20.34 32.242l2.363-45.06a1.993 1.993 0 0 1 2.103-1.886c1.102.058 1.95.99 1.891 2.096l-2.364 45.058c5.894-2.305 22.583-10.521 23.601-29.942 1.24-23.61-22.291-33.17-22.291-33.17M1155.183 819.468l-45.067-3.147c2.205 5.924 10.139 22.733 29.563 24.09 23.615 1.65 33.596-21.682 33.596-21.682s-6.632-24.491-30.248-26.141c-19.424-1.356-29.623 14.187-32.632 19.747l45.067 3.148a1.991 1.991 0 0 1 1.852 2.131 1.994 1.994 0 0 1-2.131 1.854M502.113 1133.454a1.995 1.995 0 0 1-2.812.293 1.991 1.991 0 0 1-.298-2.807l28.431-35.064c-6.123-1.595-24.46-4.745-36.714 10.367-14.899 18.374-1.488 39.922-1.488 39.922s23.892 8.622 38.79-9.753c12.255-15.113 5.356-32.372 2.521-38.023l-28.43 35.065zM341.387 799.467l45.15-1.575c-2.813-5.662-12.463-21.55-31.923-20.872-23.66.825-31.143 25.07-31.143 25.07s9.16 23.666 32.818 22.84c19.46-.679 27.977-17.202 30.387-23.045l-45.15 1.575a1.992 1.992 0 0 1-2.064-1.928 1.993 1.993 0 0 1 1.925-2.065M1162.357 1014.054c21.093 10.734 39.408-6.847 39.408-6.847s3.477-25.133-17.616-35.867c-17.349-8.828-32.819 1.498-37.764 5.442l40.253 20.485a1.99 1.99 0 0 1 .871 2.685 1.995 1.995 0 0 1-2.687.874l-40.253-20.484c-.288 6.314.44 24.883 17.788 33.712M640.81 1126.07a1.994 1.994 0 0 1-2.64 1.009 1.99 1.99 0 0 1-1.015-2.634l18.375-41.218c-6.328.041-24.858 1.74-32.778 19.505-9.628 21.599 8.91 38.946 8.91 38.946s25.312 2.152 34.941-19.448c7.92-17.764-3.216-32.654-7.419-37.379l-18.375 41.22zM1114.875 935c22.245 8.088 38.278-11.593 38.278-11.593s.384-25.368-21.861-33.454c-18.297-6.652-32.391 5.48-36.818 9.998l42.452 15.432a1.99 1.99 0 0 1 1.192 2.56 1.994 1.994 0 0 1-2.56 1.194l-42.452-15.432c.484 6.302 3.472 24.645 21.769 31.296M1060.146 1017.147c18.655 14.556 39.993.788 39.993.788s8.214-24.009-10.441-38.565c-15.343-11.972-32.502-4.784-38.11-1.854l35.6 27.779a1.989 1.989 0 0 1 .342 2.801 1.995 1.995 0 0 1-2.804.347l-35.6-27.78c-1.49 6.144-4.323 24.51 11.02 36.484M882.093 1098.459l13.208 43.148a1.99 1.99 0 0 1-1.328 2.491 1.995 1.995 0 0 1-2.497-1.322l-13.208-43.149c-4.748 4.179-17.618 17.601-11.925 36.197 6.922 22.61 32.308 23.556 32.308 23.556s20.516-14.961 13.595-37.572c-5.693-18.596-23.877-22.536-30.153-23.35M438.95 859.2c19.282-2.706 26.023-20.027 27.809-26.09l-44.738 6.279a1.992 1.992 0 0 1-2.255-1.7 1.991 1.991 0 0 1 1.698-2.256l44.738-6.28c-3.39-5.337-14.65-20.132-33.932-17.425-23.443 3.29-28.349 28.184-28.349 28.184s11.586 22.58 35.029 19.289M395.644 606.055c17.192 9.129 32.84-.926 37.853-4.784l-39.889-21.183a1.99 1.99 0 0 1-.824-2.7 1.996 1.996 0 0 1 2.702-.827l39.889 21.183c.399-6.308-.004-24.888-17.196-34.018-20.903-11.1-39.522 6.16-39.522 6.16s-3.915 25.069 16.987 36.169M1373.468 715.345l44.84-5.499c-3.296-5.395-14.296-20.384-33.622-18.014-23.497 2.881-28.837 27.686-28.837 27.686s11.19 22.778 34.687 19.897c19.326-2.37 26.369-19.571 28.26-25.604l-44.841 5.5a1.993 1.993 0 0 1-2.225-1.74 1.992 1.992 0 0 1 1.738-2.226M1049.688 200.477c6.323-.263 24.782-2.605 32.076-20.637 8.868-21.92-10.265-38.61-10.265-38.61s-25.372-1.27-34.24 20.652c-7.294 18.03 4.355 32.522 8.72 37.098l16.924-41.834a1.993 1.993 0 0 1 2.602-1.1 1.991 1.991 0 0 1 1.107 2.596l-16.924 41.835zM954.155 215.475c-5.693 18.597 7.177 32.019 11.924 36.197l13.209-43.148a1.994 1.994 0 0 1 2.496-1.322 1.991 1.991 0 0 1 1.329 2.49l-13.208 43.149c6.276-.813 24.46-4.753 30.152-23.35 6.922-22.61-13.595-37.571-13.595-37.571s-25.386.945-32.307 23.555M822.771 83.15s-24.276 7.474-25.102 31.103c-.68 19.435 15.23 29.072 20.898 31.882l1.577-45.093a1.992 1.992 0 0 1 2.07-1.923 1.994 1.994 0 0 1 1.928 2.063l-1.577 45.093c5.852-2.408 22.395-10.914 23.074-30.349.827-23.629-22.868-32.776-22.868-32.776M329.708 403.898c14.695 12.757 32.207 6.474 37.96 3.843l-34.095-29.602a1.988 1.988 0 0 1-.195-2.815 1.996 1.996 0 0 1 2.819-.2l34.096 29.602c1.809-6.058 5.6-24.25-9.094-37.01-17.867-15.51-39.896-2.876-39.896-2.876s-9.461 23.546 8.405 39.058M235.111 396.343c14.916 12.5 32.315 5.914 38.022 3.181l-34.608-29.002a1.99 1.99 0 0 1-.244-2.812 1.997 1.997 0 0 1 2.815-.25l34.608 29.004c1.703-6.087 5.177-24.344-9.739-36.844-18.135-15.198-39.94-2.181-39.94-2.181s-9.049 23.707 9.086 38.904M136.595 507.159s-1.713 25.313 20.079 34.551c17.923 7.599 32.634-3.781 37.291-8.06l-41.586-17.63a1.99 1.99 0 0 1-1.056-2.617 1.995 1.995 0 0 1 2.619-1.06l41.586 17.63c-.153-6.319-2.176-24.793-20.099-32.391-21.792-9.238-38.834 9.577-38.834 9.577M109.74 919.999l44.491-7.835c-3.574-5.216-15.345-19.61-34.52-16.232-23.314 4.105-27.347 29.155-27.347 29.155s12.368 22.161 35.682 18.055c19.175-3.376 25.307-20.922 26.88-27.044l-44.49 7.835a1.993 1.993 0 0 1-2.315-1.621 1.992 1.992 0 0 1 1.62-2.313M1138.084 522.893c-15.95 11.154-14.082 29.643-12.917 35.856l37.007-25.88a1.994 1.994 0 0 1 2.782.493 1.99 1.99 0 0 1-.488 2.78l-37.007 25.88c5.447 3.218 22.205 11.294 38.155.14 19.392-13.562 12.447-37.966 12.447-37.966s-20.587-14.865-39.979-1.303M698.854 575.572l16.19 42.124a1.99 1.99 0 0 1-1.152 2.577 1.994 1.994 0 0 1-2.582-1.146l-16.19-42.122c-4.445 4.499-16.345 18.785-9.367 36.94 8.483 22.073 33.873 21.247 33.873 21.247s19.422-16.354 10.94-38.427c-6.979-18.155-25.394-20.819-31.712-21.193M879.74 511.31a1.991 1.991 0 0 1 1.242 2.535l-14.708 42.662c6.3-.594 24.61-3.898 30.95-22.284 7.708-22.356-12.274-38.022-12.274-38.022s-25.403.059-33.111 22.414c-6.34 18.387 6.054 32.25 10.653 36.591l14.708-42.662a1.994 1.994 0 0 1 2.54-1.234M798.577 1516.88l.788 45.114a1.99 1.99 0 0 1-1.964 2.028 1.992 1.992 0 0 1-2.035-1.958l-.788-45.113c-5.718 2.71-21.793 12.07-21.453 31.513.413 23.639 24.555 31.536 24.555 31.536s23.851-8.733 23.438-32.373c-.34-19.443-16.733-28.237-22.54-30.746M885.328 1510.567l6.287 44.681a1.99 1.99 0 0 1-1.702 2.252 1.995 1.995 0 0 1-2.259-1.696l-6.287-44.68c-5.344 3.385-20.157 14.63-17.447 33.888 3.294 23.414 28.22 28.312 28.22 28.312s22.607-11.571 19.313-34.984c-2.71-19.257-20.054-25.99-26.125-27.773M1476.149 1112.162c-17.349-8.829-32.819 1.498-37.764 5.443l40.253 20.484c.983.5 1.376 1.695.871 2.685a1.996 1.996 0 0 1-2.687.874l-40.253-20.484c-.288 6.314.439 24.884 17.788 33.712 21.093 10.734 39.408-6.848 39.408-6.848s3.477-25.133-17.616-35.866M1513.222 510.91a1.992 1.992 0 0 1-1.147 2.58l-42.176 16.17c4.505 4.438 18.809 16.324 36.987 9.355 22.101-8.474 21.274-33.832 21.274-33.832s-16.375-19.397-38.476-10.924c-18.178 6.97-20.845 25.361-21.219 31.67l42.177-16.17a1.994 1.994 0 0 1 2.58 1.151"/>
        <path fill="#00CC92" d="M299.29 253.601l-31.382-32.457a1.99 1.99 0 0 1 .052-2.822 1.997 1.997 0 0 1 2.826.047l31.382 32.456c2.33-5.876 7.697-23.67-5.83-37.659-16.444-17.007-39.492-6.339-39.492-6.339s-11.48 22.634 4.964 39.641c13.526 13.988 31.52 9.254 37.48 7.133M509.918 1422.673a1.995 1.995 0 0 1-2.689.87 1.99 1.99 0 0 1-.875-2.684l20.51-40.202c-6.322-.288-24.916.439-33.756 17.766-10.747 21.066 6.858 39.358 6.858 39.358s25.163 3.473 35.912-17.594c8.838-17.327-1.502-32.777-5.45-37.716l-20.51 40.202zM1058.47 932.854s4.352-24.996-16.353-36.458c-17.03-9.429-32.851.353-37.931 4.123l39.513 21.875a1.99 1.99 0 0 1 .777 2.713 1.996 1.996 0 0 1-2.716.78l-39.513-21.874c-.509 6.3-.431 24.883 16.599 34.311 20.705 11.463 39.624-5.47 39.624-5.47M955.693 465.85a1.993 1.993 0 0 1 2.688-.87 1.99 1.99 0 0 1 .876 2.684l-20.51 40.202c6.322.288 24.915-.438 33.755-17.765 10.747-21.067-6.857-39.359-6.857-39.359s-25.164-3.472-35.912 17.594c-8.839 17.327 1.501 32.778 5.45 37.716l20.51-40.202zM515.212 1011.446c15.344-11.973 12.51-30.34 11.021-36.483l-35.6 27.779c-.869.678-2.12.53-2.805-.347a1.99 1.99 0 0 1 .342-2.801l35.6-27.779c-5.608-2.93-22.766-10.118-38.11 1.854-18.654 14.556-10.44 38.565-10.44 38.565s21.337 13.769 39.992-.788M585.662 791.76c-19.365 2.032-26.707 19.109-28.703 25.106l44.929-4.716a1.992 1.992 0 0 1 2.195 1.778 1.994 1.994 0 0 1-1.777 2.195l-44.93 4.716c3.202 5.452 13.939 20.63 33.303 18.597 23.544-2.47 29.316-27.178 29.316-27.178s-10.79-22.97-34.333-20.498M1270.007 383.583s-21.575-13.395-39.972 1.485c-15.132 12.238-11.978 30.553-10.382 36.67l35.11-28.396a1.994 1.994 0 0 1 2.81.298c.695.857.569 2.11-.293 2.806l-35.109 28.395c5.658 2.832 22.939 9.72 38.071-2.518 18.398-14.879 9.765-38.74 9.765-38.74M763.175 224.946l-1.577-45.093a1.993 1.993 0 0 1 1.93-2.062 1.993 1.993 0 0 1 2.068 1.923l1.577 45.092c5.67-2.809 21.578-12.447 20.898-31.881-.826-23.63-25.102-31.104-25.102-31.104s-23.695 9.148-22.869 32.777c.68 19.434 17.223 27.94 23.075 30.348M391.257 698.044l-43.835-10.915a1.992 1.992 0 0 1-1.454-2.42 1.995 1.995 0 0 1 2.42-1.457l43.837 10.916c-1.141-6.217-6.033-24.147-24.926-28.851-22.97-5.72-36.855 15.525-36.855 15.525s2.273 25.27 25.243 30.99c18.893 4.705 31.64-8.834 35.57-13.788M286.713 1059.854s-18.918-16.933-39.623-5.47c-17.03 9.428-17.108 28.011-16.6 34.311l39.513-21.874a1.994 1.994 0 0 1 2.716.78 1.99 1.99 0 0 1-.776 2.713l-39.513 21.875c5.08 3.77 20.9 13.551 37.93 4.123 20.706-11.462 16.353-36.458 16.353-36.458M772.77 1277.707l-1.577 45.093a1.991 1.991 0 0 1-2.068 1.923 1.992 1.992 0 0 1-1.929-2.063l1.577-45.093c-5.852 2.408-22.396 10.915-23.075 30.349-.826 23.629 22.869 32.776 22.869 32.776s24.276-7.474 25.102-31.103c.679-19.435-15.23-29.072-20.899-31.882M625.462 671.375c18.135 15.198 39.94 2.182 39.94 2.182s9.048-23.707-9.086-38.905c-14.916-12.5-32.315-5.914-38.022-3.181l34.608 29.002a1.99 1.99 0 0 1 .244 2.812c-.71.846-1.966.96-2.815.248l-34.608-29.002c-1.703 6.087-5.177 24.344 9.739 36.844M779.577.835s-23.85 8.733-23.438 32.373c.34 19.443 16.732 28.237 22.541 30.746l-.789-45.113a1.992 1.992 0 0 1 1.965-2.028 1.993 1.993 0 0 1 2.035 1.958l.788 45.113c5.717-2.71 21.793-12.069 21.453-31.513C803.72 8.73 779.577.835 779.577.835M690.116 70.2l-5.506-44.784a1.991 1.991 0 0 1 1.742-2.222 1.995 1.995 0 0 1 2.23 1.735l5.504 44.784c5.403-3.292 20.41-14.278 18.037-33.58-2.885-23.467-27.72-28.8-27.72-28.8s-22.807 11.175-19.922 34.642c2.373 19.301 19.596 26.335 25.635 28.225M68.651 552.767c18.297 6.652 32.391-5.482 36.818-9.998l-42.453-15.433a1.99 1.99 0 0 1-1.192-2.558 1.995 1.995 0 0 1 2.561-1.195l42.452 15.432c-.484-6.302-3.472-24.645-21.769-31.296-22.246-8.087-38.279 11.594-38.279 11.594s-.384 25.367 21.862 33.454M80.2 625.137L36.367 614.22a1.992 1.992 0 0 1-1.454-2.42 1.995 1.995 0 0 1 2.42-1.457L81.17 621.26c-1.142-6.217-6.033-24.147-24.926-28.851-22.97-5.72-36.855 15.525-36.855 15.525s2.273 25.27 25.243 30.99c18.893 4.705 31.64-8.834 35.57-13.787M69.12 1072.371a1.992 1.992 0 0 1 1.146-2.58l42.177-16.17c-4.505-4.438-18.81-16.324-36.988-9.354-22.1 8.473-21.273 33.83-21.273 33.83s16.374 19.398 38.475 10.925c18.178-6.97 20.845-25.36 21.22-31.67l-42.177 16.17a1.995 1.995 0 0 1-2.58-1.15M285.945 1373.649a1.996 1.996 0 0 1-2.822.146 1.992 1.992 0 0 1-.151-2.82l30.23-33.53c-6.032-1.913-24.18-6.017-37.21 8.435-15.84 17.57-3.575 39.79-3.575 39.79s23.407 9.858 39.247-7.713c13.029-14.451 7.045-32.047 4.51-37.839l-30.23 33.53zM711.086 1511.672l-5.506 44.784a1.992 1.992 0 0 1-2.228 1.735 1.992 1.992 0 0 1-1.742-2.222l5.506-44.784c-6.04 1.89-23.262 8.924-25.635 28.225-2.885 23.467 19.921 34.642 19.921 34.642s24.836-5.333 27.721-28.8c2.373-19.302-12.635-30.288-18.037-33.58M1059.804 1174.724s15.241-20.298 2.003-39.9c-10.888-16.12-29.431-14.579-35.671-13.524l25.263 37.406a1.99 1.99 0 0 1-.542 2.77 1.994 1.994 0 0 1-2.774-.536l-25.263-37.406c-3.317 5.383-11.695 21.976-.807 38.098 13.238 19.601 37.791 13.092 37.791 13.092M847.545 1352.856l2.365 45.058a1.991 1.991 0 0 1-1.892 2.096 1.994 1.994 0 0 1-2.103-1.886l-2.363-45.06c-5.62 2.909-21.359 12.822-20.34 32.243 1.24 23.611 25.643 30.661 25.643 30.661s23.53-9.56 22.291-33.17c-1.018-19.42-17.707-27.637-23.6-29.942M660.653 1038.381c10.318-16.492 1.366-32.783-2.138-38.046l-23.94 38.263a1.995 1.995 0 0 1-2.754.633 1.99 1.99 0 0 1-.638-2.75l23.94-38.264c-6.272-.837-24.858-1.732-35.176 14.76-12.545 20.051 3.396 39.805 3.396 39.805s24.765 5.65 37.31-14.4M976.83 700.39l-40.605 19.78c4.875 4.03 20.162 14.625 37.663 6.1 21.277-10.364 18.24-35.554 18.24-35.554s-18.005-17.899-39.282-7.534c-17.501 8.525-18.552 27.079-18.375 33.397l40.605-19.78a1.995 1.995 0 0 1 2.672.922 1.992 1.992 0 0 1-.918 2.67M891.307 338.011s-25.258 2.712-30.583 25.75c-4.38 18.948 9.395 31.44 14.423 35.278l10.163-43.963a1.993 1.993 0 0 1 2.398-1.495 1.992 1.992 0 0 1 1.499 2.393l-10.162 43.964c6.204-1.249 24.068-6.446 28.448-25.394 5.326-23.037-16.186-36.533-16.186-36.533M560.572 386.447s-16.954 18.894-5.477 39.573c9.44 17.008 28.047 17.086 34.355 16.579l-21.902-39.463a1.989 1.989 0 0 1 .781-2.713 1.995 1.995 0 0 1 2.717.775l21.902 39.463c3.775-5.073 13.569-20.874 4.129-37.883-11.477-20.679-36.505-16.331-36.505-16.331M849.168 1251.983s22.402-11.964 18.7-35.316c-3.047-19.207-20.506-25.636-26.607-27.314l7.067 44.564a1.99 1.99 0 0 1-1.663 2.283 1.994 1.994 0 0 1-2.288-1.657l-7.067-44.565c-5.284 3.479-19.898 14.981-16.852 34.188 3.703 23.352 28.71 27.817 28.71 27.817M669.915 1173.533l-13.209 43.149a1.993 1.993 0 0 1-2.496 1.323 1.992 1.992 0 0 1-1.329-2.49l13.21-43.15c-6.277.813-24.46 4.753-30.154 23.35-6.922 22.61 13.595 37.572 13.595 37.572s25.386-.946 32.307-23.556c5.693-18.597-7.176-32.019-11.924-36.198M357.055 910.148a1.991 1.991 0 0 1 1.368-2.47l43.427-12.437c-4.1-4.815-17.313-17.899-36.03-12.539-22.756 6.517-24.145 31.85-24.145 31.85s14.62 20.749 37.375 14.232c18.717-5.36 22.98-23.45 23.903-29.702l-43.428 12.436a1.994 1.994 0 0 1-2.47-1.37M1085.099 608.264a1.993 1.993 0 0 1-2.773-.541 1.99 1.99 0 0 1 .536-2.771l37.454-25.231c-5.389-3.313-22.004-11.68-38.146-.806-19.626 13.221-13.109 37.744-13.109 37.744s20.324 15.221 39.95 2c16.142-10.875 14.599-29.394 13.542-35.626l-37.454 25.23zM562.678 270.155l-19.093-40.892a1.99 1.99 0 0 1 .969-2.652 1.996 1.996 0 0 1 2.657.963l19.092 40.893c4.12-4.799 14.993-19.879 6.764-37.503-10.004-21.428-35.275-18.836-35.275-18.836s-18.232 17.668-8.227 39.096c8.228 17.625 26.785 18.999 33.113 18.93M517.178 1217.796a1.994 1.994 0 0 1 2.755-.633 1.99 1.99 0 0 1 .638 2.75l-23.94 38.264c6.273.837 24.858 1.731 35.177-14.76 12.544-20.05-3.396-39.805-3.396-39.805s-24.767-5.65-37.312 14.401c-10.317 16.492-1.365 32.783 2.138 38.047l23.94-38.264zM532.19 653.76a1.99 1.99 0 0 1-.965-2.653c.467-1 1.65-1.437 2.654-.968l40.945 19.069c.068-6.321-1.308-24.854-18.955-33.073-21.456-9.992-39.145 8.218-39.145 8.218s-2.596 25.238 18.86 35.23c17.646 8.22 32.745-2.641 37.55-6.755l-40.945-19.069zM780.07 557.248l2.364 45.057a1.992 1.992 0 0 1-1.892 2.097 1.994 1.994 0 0 1-2.102-1.887l-2.365-45.059c-5.619 2.909-21.357 12.822-20.338 32.242 1.24 23.612 25.642 30.662 25.642 30.662s23.531-9.56 22.292-33.17c-1.019-19.42-17.708-27.637-23.6-29.942M971.658 1493.918l10.163 43.964a1.992 1.992 0 0 1-1.5 2.393 1.996 1.996 0 0 1-2.398-1.494l-10.162-43.964c-5.029 3.838-18.804 16.33-14.424 35.28 5.325 23.036 30.583 25.748 30.583 25.748s21.512-13.496 16.187-36.533c-4.38-18.948-22.245-24.145-28.449-25.394M1054.854 1466.445l16.19 42.124a1.99 1.99 0 0 1-1.151 2.576 1.995 1.995 0 0 1-2.583-1.145l-16.19-42.124c-4.445 4.5-16.345 18.786-9.367 36.941 8.484 22.073 33.874 21.246 33.874 21.246s19.421-16.353 10.938-38.426c-6.978-18.155-25.393-20.819-31.711-21.192"/>
        <path fill="#756B5E" d="M22.387 891.858a1.992 1.992 0 0 1 1.738-2.225l44.84-5.499c-3.296-5.396-14.296-20.384-33.622-18.014C11.846 869 6.506 893.806 6.506 893.806s11.19 22.777 34.687 19.896c19.326-2.37 26.369-19.572 28.26-25.603l-44.841 5.5a1.993 1.993 0 0 1-2.225-1.74M833.665 1075.403a1.994 1.994 0 0 1-2.288-1.657l-7.067-44.564c-5.284 3.478-19.898 14.98-16.852 34.187 3.703 23.353 28.71 27.817 28.71 27.817s22.402-11.964 18.7-35.315c-3.047-19.208-20.506-25.637-26.607-27.315l7.067 44.565a1.99 1.99 0 0 1-1.663 2.282M721.574 346.164a1.993 1.993 0 0 1 2.258 1.696l6.288 44.681c5.344-3.386 20.157-14.632 17.447-33.89-3.294-23.412-28.22-28.312-28.22-28.312s-22.607 11.571-19.313 34.984c2.71 19.258 20.053 25.99 26.125 27.774l-6.288-44.681a1.991 1.991 0 0 1 1.703-2.252M604.787 953.3c-5.842-2.43-23.563-8.099-37.803 5.165-17.313 16.124-7.035 39.326-7.035 39.326s22.458 11.859 39.771-4.266c14.24-13.263 9.815-31.313 7.795-37.304l-33.04 30.772a1.996 1.996 0 0 1-2.825-.1 1.99 1.99 0 0 1 .096-2.82l33.041-30.773zM143.637 760.217l-45.15-1.575a1.99 1.99 0 0 1-1.925-2.065 1.993 1.993 0 0 1 2.065-1.926l45.15 1.575c-2.41-5.845-10.928-22.367-30.387-23.046-23.659-.825-32.818 22.84-32.818 22.84s7.484 24.245 31.142 25.07c19.46.678 29.11-15.21 31.923-20.873M179.759 833.91l45.005-3.934c-3.105-5.507-13.575-20.87-32.972-19.174-23.583 2.061-29.787 26.664-29.787 26.664s10.387 23.154 33.97 21.093c19.397-1.696 27.037-18.64 29.138-24.603l-45.005 3.933a1.994 1.994 0 0 1-2.164-1.816 1.993 1.993 0 0 1 1.815-2.163M618.402 552.768a1.997 1.997 0 0 1 2.792.44l26.554 36.502c3.127-5.495 10.92-22.37-.525-38.102-13.915-19.128-38.225-11.767-38.225-11.767s-14.523 20.816-.608 39.944c11.445 15.733 29.923 13.546 36.122 12.273l-26.555-36.502a1.99 1.99 0 0 1 .445-2.788M1135.242 1429.819l21.21 39.838a1.99 1.99 0 0 1-.83 2.699 1.996 1.996 0 0 1-2.702-.823l-21.21-39.839c-3.862 5.007-13.93 20.635-4.79 37.805 11.115 20.876 36.215 16.966 36.215 16.966s17.28-18.596 6.167-39.472c-9.141-17.17-27.744-17.573-34.06-17.174M1487.628 418.079s-18.62-17.26-39.522-6.16c-17.192 9.129-17.595 27.708-17.196 34.016l39.89-21.182a1.993 1.993 0 0 1 2.7.827c.52.975.155 2.18-.823 2.7l-39.89 21.183c5.014 3.857 20.661 13.913 37.854 4.784 20.902-11.1 16.987-36.168 16.987-36.168M1218.222 147.816a1.995 1.995 0 0 1 2.731-.728 1.99 1.99 0 0 1 .733 2.725l-22.588 39.075c6.298.618 24.904.865 34.639-15.977 11.837-20.476-4.784-39.663-4.784-39.663s-24.948-4.783-36.785 15.693c-9.736 16.842-.219 32.81 3.466 37.95l22.588-39.075zM866.551 68.57l2.364-45.06a1.993 1.993 0 0 1 2.102-1.886 1.994 1.994 0 0 1 1.893 2.096l-2.365 45.058c5.893-2.305 22.583-10.522 23.602-29.942 1.239-23.61-22.293-33.17-22.293-33.17s-24.402 7.05-25.641 30.66c-1.019 19.421 14.719 29.335 20.338 32.243M520.861 114.529l-15.452-42.4a1.99 1.99 0 0 1 1.197-2.556 1.994 1.994 0 0 1 2.562 1.19l15.452 42.399c4.522-4.422 16.671-18.498 10.011-36.772-8.097-22.217-33.497-21.833-33.497-21.833s-19.705 16.013-11.608 38.23c6.66 18.273 25.025 21.258 31.335 21.742M200.45 314.46c15.132 12.238 32.413 5.35 38.072 2.518l-35.11-28.395a1.988 1.988 0 0 1-.293-2.807 1.996 1.996 0 0 1 2.81-.297l35.11 28.395c1.596-6.117 4.75-24.431-10.382-36.67-18.397-14.88-39.972-1.484-39.972-1.484s-8.633 23.86 9.765 38.74M146.719 388.589c16.513 10.305 32.825 1.364 38.095-2.135l-38.312-23.91a1.99 1.99 0 0 1-.634-2.75 1.995 1.995 0 0 1 2.753-.638l38.313 23.91c.838-6.265 1.734-24.827-14.78-35.132-20.075-12.529-39.854 3.391-39.854 3.391s-5.657 24.735 14.419 37.264M150.44 1136.718l-39.514 21.875a1.994 1.994 0 0 1-2.716-.78 1.99 1.99 0 0 1 .777-2.714l39.513-21.875c-5.08-3.77-20.9-13.551-37.93-4.123-20.706 11.462-16.354 36.459-16.354 36.459s18.92 16.932 39.624 5.47c17.03-9.428 17.108-28.012 16.6-34.312M158.835 1236.263c-.925.6-2.158.343-2.764-.59a1.992 1.992 0 0 1 .585-2.76l37.889-24.575c-5.331-3.406-21.796-12.061-38.126-1.47-19.854 12.877-13.766 37.509-13.766 37.509s20.054 15.573 39.908 2.696c16.33-10.591 15.11-29.135 14.163-35.384l-37.89 24.574zM356.194 1431.437a1.995 1.995 0 0 1-2.792.439 1.99 1.99 0 0 1-.444-2.787l26.554-36.503c-6.2-1.273-24.677-3.46-36.121 12.273-13.915 19.128.607 39.945.607 39.945s24.31 7.36 38.225-11.767c11.445-15.733 3.653-32.608.526-38.103l-26.555 36.503zM438.046 1476.666a1.994 1.994 0 0 1-2.717.775 1.99 1.99 0 0 1-.782-2.712l21.903-39.463c-6.308-.508-24.915-.43-34.355 16.578-11.477 20.679 5.477 39.573 5.477 39.573s25.028 4.348 36.505-16.331c9.44-17.009-.354-32.81-4.129-37.883l-21.902 39.463zM523.304 1513.995a1.993 1.993 0 0 1-2.583 1.145 1.99 1.99 0 0 1-1.151-2.577l16.19-42.123c-6.318.373-24.733 3.037-31.711 21.192-8.483 22.073 10.939 38.426 10.939 38.426s25.389.827 33.873-21.246c6.978-18.155-4.922-32.44-9.367-36.941l-16.19 42.124zM1063.333 1376.623l18.376 41.218a1.99 1.99 0 0 1-1.015 2.635 1.996 1.996 0 0 1-2.64-1.01l-18.375-41.218c-4.202 4.726-15.338 19.614-7.418 37.38 9.628 21.598 34.94 19.447 34.94 19.447s18.539-17.347 8.91-38.947c-7.92-17.765-26.449-19.462-32.778-19.505M679.144 1427.677l-7.067 44.565a1.993 1.993 0 0 1-2.288 1.657 1.992 1.992 0 0 1-1.663-2.282l7.067-44.565c-6.101 1.678-23.56 8.107-26.606 27.314-3.703 23.352 18.699 35.316 18.699 35.316s25.007-4.465 28.71-27.817c3.046-19.207-11.568-30.71-16.852-34.188M913.59 1425.1l9.393 44.135a1.991 1.991 0 0 1-1.54 2.366 1.996 1.996 0 0 1-2.373-1.536l-9.393-44.134c-5.094 3.75-19.086 16-15.037 35.022 4.922 23.127 30.128 26.278 30.128 26.278s21.745-13.119 16.823-36.245c-4.049-19.021-21.82-24.53-28-25.886M1010.222 1000.791s11.083-22.83-5.657-39.548c-13.768-13.75-31.676-8.704-37.6-6.478l31.946 31.904a1.99 1.99 0 0 1-.002 2.823 1.996 1.996 0 0 1-2.826.003l-31.945-31.905c-2.228 5.916-7.282 23.8 6.486 37.552 16.74 16.718 39.598 5.65 39.598 5.65M957.726 911.565l-35.6-27.779c-1.49 6.144-4.323 24.51 11.02 36.483 18.655 14.557 39.993.788 39.993.788s8.214-24.008-10.441-38.565c-15.343-11.972-32.502-4.783-38.11-1.854l35.6 27.78a1.99 1.99 0 0 1 .343 2.8 1.996 1.996 0 0 1-2.805.347M1075.853 773.907l-45.006 3.933c3.106 5.507 13.576 20.87 32.973 19.175 23.583-2.062 29.786-26.664 29.786-26.664s-10.387-23.154-33.97-21.094c-19.397 1.695-27.037 18.64-29.137 24.603l45.005-3.933a1.993 1.993 0 0 1 2.163 1.817 1.993 1.993 0 0 1-1.814 2.163M726.16 1107.078c-6.072 1.783-23.415 8.516-26.125 27.772-3.295 23.414 19.312 34.985 19.312 34.985s24.926-4.899 28.22-28.312c2.71-19.258-12.103-30.503-17.447-33.89l-6.287 44.681a1.993 1.993 0 0 1-2.259 1.697 1.992 1.992 0 0 1-1.702-2.253l6.287-44.68zM1231.479 490.412l-37.007 25.88c5.446 3.218 22.204 11.295 38.154.14 19.392-13.56 12.447-37.966 12.447-37.966s-20.586-14.864-39.978-1.303c-15.95 11.154-14.083 29.644-12.918 35.857l37.007-25.88a1.995 1.995 0 0 1 2.783.493 1.99 1.99 0 0 1-.488 2.78M1241.706 328.425l31.382-32.457a1.995 1.995 0 0 1 2.826-.046 1.99 1.99 0 0 1 .052 2.822l-31.383 32.457c5.961 2.121 23.955 6.855 37.481-7.133 16.444-17.008 4.964-39.641 4.964-39.641s-23.048-10.669-39.493 6.339c-13.526 13.99-8.16 31.783-5.829 37.66M585.26 176.875l-13.208-43.148a1.99 1.99 0 0 1 1.328-2.491 1.995 1.995 0 0 1 2.497 1.322l13.208 43.148c4.748-4.178 17.617-17.6 11.925-36.197-6.922-22.61-32.308-23.555-32.308-23.555s-20.516 14.961-13.595 37.572c5.693 18.596 23.877 22.536 30.153 23.349M302.876 755.477l-44.93-4.716a1.992 1.992 0 0 1-1.776-2.195 1.993 1.993 0 0 1 2.194-1.778l44.93 4.716c-1.996-5.998-9.34-23.074-28.703-25.106-23.544-2.472-34.334 20.498-34.334 20.498s5.773 24.707 29.316 27.179c19.365 2.032 30.102-13.146 33.303-18.598M1186.684 612.11c-18.178 6.97-20.845 25.36-21.219 31.67l42.177-16.17a1.994 1.994 0 0 1 2.58 1.15 1.992 1.992 0 0 1-1.147 2.58l-42.176 16.17c4.505 4.439 18.809 16.325 36.987 9.355 22.101-8.473 21.274-33.83 21.274-33.83s-16.375-19.398-38.476-10.925M470.146 1257.128c-6.24-1.056-24.783-2.597-35.67 13.525-13.239 19.601 2.002 39.9 2.002 39.9s24.553 6.508 37.791-13.093c10.888-16.122 2.51-32.716-.807-38.098l-25.263 37.406a1.993 1.993 0 0 1-2.774.536 1.99 1.99 0 0 1-.542-2.77l25.263-37.406z"/>
        <path fill="#756B5E" d="M687.217 1423.078l.023.005c.01.018.016.028-.064-.014a.898.898 0 0 1 .04.01m444.313 2.288a1.996 1.996 0 0 0 .807-2.706l-22.733-41.827c-8.915-16.403-29.596-22.875-46.382-14.585-.016.007-2.343 1.152-3.68 1.778l-80.731-171.535c-10.084-21.427-2.448-47.443 16.983-60.822l4.839-2.985c3.08-1.9 6.145-3.854 9.196-5.863l10.955-8.222c.043-.032.076-.071.115-.106.055-.05.113-.096.162-.15.042-.045.074-.095.11-.143.043-.057.088-.11.124-.17.032-.054.055-.11.082-.165.028-.061.06-.12.083-.183.02-.058.034-.119.049-.179.017-.064.036-.126.046-.19.01-.063.01-.126.015-.188.004-.065.01-.13.008-.194-.002-.065-.014-.13-.022-.193-.01-.063-.014-.126-.028-.189-.016-.067-.041-.13-.064-.197-.02-.057-.036-.115-.062-.172-.03-.066-.071-.13-.11-.193-.025-.044-.044-.092-.075-.135l-110.363-156.55c-15.832-22.458-48.572-30.852-73.274-18.79l-1.876.916c-6.735 3.138-13.956 4.992-22.333 5.926-6.435.719-11.682.861-23.79.861-87.26 0-158-70.65-158-157.8 0-12.616.77-21.747 2.914-30.366l1.107-2.947c9.665-25.74-2.255-56.81-26.664-69.514l-26.712-13.902a238.508 238.508 0 0 1 31.527-43.446 1.993 1.993 0 0 0 .548-.597c43.498-47.286 105.919-76.927 175.28-76.927 67.912 0 131.997 26.45 170.484 71.213l2.412 3.09c16.934 21.67 49.565 27.493 72.974 13.02l27.656-17.258a1.997 1.997 0 1 0-2.106-3.396l-27.656 17.258c-21.672 13.399-52.037 7.98-67.715-12.082l-2.471-3.162c-39.346-45.766-104.55-72.678-173.577-72.678-3.54 0-7.058.093-10.562.243l-11.385-315.922.566-.022.22-.008c.055.01.104.029.16.037 27.608-.046 51.033-22.23 52.427-49.711l1.468-28.972 6.05.456c18.713 1.4 35.217-12.591 36.873-31.262l4.175-47.064a2 2 0 1 0-3.984-.353l-4.175 47.064c-1.464 16.494-16.01 29.456-32.54 28.218l-8.215-.592-7.044-.485c-16.583-.424-30.23-14.38-30.44-30.948l-.594-47.025c-.014-1.104-.921-2.024-2.025-2.01a1.982 1.982 0 0 0-1.974 2.003l.594 46.942c.238 18.716 15.605 34.255 34.337 34.736l4.967.123-1.468 29.735c-1.253 24.702-21.741 44.309-46.366 45.307-.002 0-2.602.005-5.145.108-5.622.226-8.455.249-9.02.28-.06 0-.06-.048-.54.033-23.188-.265-43.431-17.848-46.403-41.3L695.566 78.078a2.004 2.004 0 0 0-2.236-1.737 1.995 1.995 0 0 0-1.733 2.23l13.973 110.24c3.413 26.936 27.788 46.666 55.078 44.555l.045-.002c.566-.02 2.305-.138 2.944-.163l11.387 315.968c-27.94 1.656-54.604 8.033-79.198 18.366L570.223 277.14c.915-.37 5.083-2.365 5.142-2.397 21.916-11.748 33.263-37.953 25.669-61.969l-8.935-28.259 7.41-2.218c17.963-5.382 28.517-24.383 23.582-42.457l-12.58-46.067a2 2 0 0 0-3.86 1.05l12.58 46.067c4.365 15.985-4.986 32.82-20.871 37.58l-9.353 2.802-.022.008-.006.001-.01.005-3.871 1.362c-15.652 5.517-33.31-2.522-39.4-17.936l-17.256-43.682a2.001 2.001 0 0 0-2.595-1.124 1.997 1.997 0 0 0-1.126 2.59l17.257 43.682c6.879 17.413 26.77 26.47 44.45 20.238l1.869-.659 8.923 28.22c7.249 22.927-4.25 48.086-25.907 58.335-1.101.468-10.575 5.058-11.464 5.437-21.881 7.768-47.14-1.777-58.41-22.51l-53.1-97.834c-.527-.97-1.741-1.399-2.712-.873a1.956 1.956 0 0 0-.803 2.674l53.1 97.676c12.15 22.352 39.24 32.385 62.802 24.24.154-.05.254-.088.336-.116-.063.039 3.79-1.486 5.462-2.307l.013-.008 125.619 290.436c-30.352 13.348-57.433 32.739-79.723 56.651L378.369 411.82l.88-.954c.097-.095.186-.195.282-.291l.019.017.535-.584.129-.14a54.073 54.073 0 0 0 1.85-2.024 346.438 346.438 0 0 0 .877-.963c.014 0 .015 0 .349-.498 15.927-19.74 15.727-48.511-1.294-67.435l-73.927-82.192a2.001 2.001 0 0 0-2.824-.152c-.822.737-.89 2-.152 2.821l73.927 82.192c15.798 17.564 15.886 44.396 1.045 62.482-.007.01-.014.016-.021.025a.682.682 0 0 0-.046.045c-.39.412-2.236 2.41-5.888 6.374a2588.686 2588.686 0 0 0-5.512 5.987c-.018.022-.038.052-.057.078l-.052.051c-16.614 15.887-43.182 17.77-61.876 3.546l-23.22-17.67c1.482-1.92 2.553-3.303 3.243-4.187.115-.096.227-.207.332-.338l.043-.056a.79.79 0 0 1 .027-.035c11.696-14.589 9.79-36.192-4.335-48.419l-35.812-30.998a2.002 2.002 0 0 0-2.821.201 1.997 1.997 0 0 0 .2 2.819l35.813 30.996c12.167 10.532 14.094 28.977 4.633 41.865-.188.19-.188.19-.24.254-.07.083-.174.212-.324.402-.678.853-2.324 2.975-5.155 6.65-2.52 3.269-3.887 5.049-4.31 5.61l-.133.19-.044.054c-10.107 11.998-28.221 14.741-41.45 5.932l-39.37-26.213a2.002 2.002 0 0 0-2.773.555 1.995 1.995 0 0 0 .555 2.77l39.369 26.212c15.549 10.354 37.005 6.58 48.087-8.411l.085-.11.038-.05a2.37 2.37 0 0 0 .187-.299l1.715-2.228 23.236 17.682c21.947 16.7 53.844 12.94 71.285-8.4.015-.02.022-.04.036-.06.05-.056.1-.11.15-.163l234.067 213.96c-38.627 42.828-62.146 99.517-62.146 161.696 0 9.49.563 18.868 1.639 28.108l-75.854 8.742c-.477-4.408-.777-9.133-.891-14.172-.255-11.254.354-23.337 1.525-35.3a336.47 336.47 0 0 1 1.087-9.695c.129-1.014.249-1.912.357-2.683 2.809-28.451-16.452-55.471-43.193-61.634l-29.776-6.863a420.254 420.254 0 0 1 5.026-18.8l.49-1.675.08-.227c.025-.084 1.326-6.027 1.338-6.172.004-.022.206-.046.21-.067 5.219-24.394-7.263-50.175-30.438-60.124L204.174 534.7c.748-1.697 1.344-2.986 1.755-3.903.11-.134.223-.289.309-.467 8.195-16.89 1.444-37.388-15.207-45.942l-41.538-21.336a1.997 1.997 0 1 0-1.827 3.553l41.54 21.337c14.18 7.282 20.249 24.396 14.183 39.005a.061.061 0 0 0-.005.012c-.048.055-.065.08-.084.108a6.393 6.393 0 0 0-.342.65c-.405.87-1.427 3.168-3.208 7.218-1.776 4.042-2.768 6.328-3.123 7.186-.092.225-.146.36-.183.475-.028.08-.028.08-.083.346a.792.792 0 0 0-.012.064.753.753 0 0 1-.022.05c-6.574 14.167-23.126 21.068-37.963 15.46l-44.075-16.655a1.998 1.998 0 1 0-1.415 3.736l44.074 16.656c17.556 6.633 37.225-2.183 43.93-19.696.069-.181.113-.356.135-.525.387-.894.918-2.113 1.603-3.675l175.083 75.167c21.65 9.295 33.317 33.645 28.019 56.454-.307 1.043-.973 3.316-2.056 7.022-3.217 10.998-5.893 21.634-8.04 32.119-1.06 5.176-1.593 7.794-1.695 8.33-.018.33-.026.508-.03.613a3.766 3.766 0 0 0-.012.05c-5.734 22.413-27.496 38.504-51.014 36.72l-30.115-2.284c.434-4.742 1.003-9.32 2.15-17.866.36-2.682 1.094-13.25 1.094-13.25 1-24.856-15.372-48.02-39.941-53.788l-187.15-43.963c-1.075-.253-2.087.414-2.34 1.487-.252 1.074.447 2.15 1.522 2.401l187.296 43.964c23.29 5.467 39.014 27.947 37.003 51.631-.171 1.29-.43 3.287-.796 6.07-.176 1.343-.294 2.239-.654 4.916-1.322 9.849-1.882 14.477-2.353 20.147a2 2 0 0 0 1.828 2.156c.228.018.447-.01.656-.063.116.03.235.054.359.064l31.138 2.362c27.489 2.084 52.693-18.316 56.334-45.6 0-.046-.008-.087-.01-.133l.649-3.164a362.567 362.567 0 0 1 2.003-9.114l29.808 6.87c24.759 5.707 42.702 30.859 40.262 56.268-.241 1.707-.364 2.62-.495 3.651-.375 2.941-.75 6.238-1.1 9.812-1.186 12.11-1.802 24.344-1.543 35.778.133 5.875.499 11.372 1.12 16.426a249.719 249.719 0 0 0 8.533 41.187c2.235 7.537 4.63 14.321 7.029 20.248a150.041 150.041 0 0 0 2.327 5.46c.247.548.467 1.024.658 1.427 9.393 24.138-1.337 53.218-23.748 65.293l-172.763 93.094a1.997 1.997 0 1 0 1.899 3.517l172.763-93.094c24.212-13.047 35.725-44.306 25.748-69.916a116.54 116.54 0 0 1-.911-1.963 148.066 148.066 0 0 1-2.265-5.315c-2.351-5.811-4.704-12.476-6.902-19.885a246.124 246.124 0 0 1-8.121-38.43l75.874-8.745c12.355 92.665 77.525 170.537 167.427 198.691.756.206 1.46.385 2.185.561 2.78.674 5.75 1.257 8.717 1.748 1.038.172 2.002.32 2.868.444 26.162 4.397 45.822 28.555 44.862 54.015l-7.12 188.831-15.378-.278c-28.414-.73-52.384 16.792-57.093 43.16l-19.223 107.653c-.885-.154-4.662-.824-4.95-.87-.034-.008-.034-.008-.438-.03-17.462-1.922-34.344 9.537-38.601 26.767l-11.333 45.873a2 2 0 1 0 3.883.958l11.334-45.873c3.823-15.474 19.195-25.73 34.905-23.677.868.153 2.949.516 6.468 1.125l.01.002c4.624.801 7.362 1.265 8.558 1.454.259.041.446.07.573.086a4.563 4.563 0 0 0 .462.031c15.786 2.958 26.97 17.924 25.139 33.978l-5.378 47.15a2 2 0 0 0 3.975.452l5.378-47.15c2.118-18.569-11.14-35.804-29.643-38.568l-.018-.003-.084-.014a2.305 2.305 0 0 0-.485-.022c-1.152-.19-3.066-.514-5.814-.988l19.22-107.633c4.345-24.33 26.532-40.549 53.067-39.866l17.355.313.019-.001.017.001c25.28 0 42.568 4.474 53.427 13.04 9.302 7.335 13.977 18.78 15.419 32.998l2.955 30.284-.208-2.126c-27.525.999-49.337 26.275-48.992 53.818l1.4 111.281c.013 1.104.92 1.7 2.024 1.687 1.105-.014 1.989-1.063 1.975-2.165l-1.4-111.926c-.318-25.41 20.042-47.31 45.435-48.832 0 0 10.55-.357 11.19-.424 23.573-.892 45.015 15.652 49.182 39.136l5.28 29.608s-3.05.823-5.3 1.228c-18.498 2.996-30.7 20.75-28.352 39.266l5.98 46.638c.14 1.095 1.14 1.592 2.236 1.454 1.096-.14 1.872-1.277 1.734-2.371l-5.982-47.262c-1.996-15.75 8.617-30.528 24.007-33.987.287-.014 17.759-3.527 17.78-3.538l.016-.004c15.616-2.872 30.874 6.975 34.529 22.59l10.718 45.79a2 2 0 0 0 3.895-.91l-10.718-45.79c-4.274-18.261-22.553-29.567-40.83-25.256-.196.046-3.384.767-5.785 1.237l-5.27-29.694c-4.52-25.475-27.741-43.405-53.18-42.427-.028.001-6.621.314-7.375.386l-2.965-29.237c-3.238-31.944-23.11-48.01-70.75-48.465l7.118-188.737c1.035-27.464-20.05-53.373-47.17-57.965-1.96-.275-2.895-.42-3.904-.586-2.877-.476-5.754-1.04-8.428-1.689a79.8 79.8 0 0 1-2.007-.513C619.89 986.535 551.58 895.08 551.58 790.416c0-40.999 10.394-79.573 28.693-113.24l26.814 13.956c22.617 11.77 33.722 40.718 24.767 64.569l-1.146 3.053c-2.328 9.247-3.128 18.693-3.128 31.662 0 89.358 72.53 161.795 162 161.795 12.256 0 17.6-.146 24.233-.886 8.784-.98 16.42-2.94 23.613-6.292l1.909-.931c22.937-11.2 53.546-3.352 68.246 17.5l109.248 154.968-9.255 6.95a367.635 367.635 0 0 1-9.045 5.766l-.577.356a52.883 52.883 0 0 0-4.329 2.67l-.56.345-.634.391-.023.015-.176.108.002.003-.172.114.065.096c-20.03 14.923-27.583 42.185-16.936 64.808l80.729 171.529a270.736 270.736 0 0 1-5.703 2.556c-17.243 7.354-25.665 27.429-18.822 44.868l17.325 44.152a2.001 2.001 0 0 0 2.592 1.131 1.998 1.998 0 0 0 1.132-2.588l-17.324-44.152c-5.89-15.01 1.017-32.265 15.44-39.182.122-.012 16.047-7.466 16.06-7.471 14.54-6.132 31.849-.276 39.442 13.692l22.749 41.834a2.01 2.01 0 0 0 2.719.806M244.897 1122.819a2.028 2.028 0 0 0-.09-.296c-.198-.36-.295-.522-.43-.75-.084-.14-.158-.265-.23-.39a51.903 51.903 0 0 0-2.168-3.633c-.02-.025-.042-.042-.062-.066l-1.619-2.704c-8.393-14.021-16.006-27.883-22.926-41.81a4385.205 4385.205 0 0 1-2.677-5.4 2.313 2.313 0 0 0-.16-.502c-.013-.03-.029-.059-.043-.09-11.26-25.165-40.825-37.668-66.505-27.963l-29.114 11.002a1.998 1.998 0 1 0 1.416 3.736l29.114-11.002c22.485-8.497 48.271 1.491 59.726 22.407.154.45.19.524.237.625.385.812 1.783 3.648 4.423 8.963 3 6.036 6.136 12.06 9.4 18.09l-68.543 36.184a1.997 1.997 0 0 0-.833 2.7 2.002 2.002 0 0 0 2.703.831l68.584-36.206a647.936 647.936 0 0 0 11.764 20.484c1.981 3.31 3.245 5.418 3.892 6.496 11.101 20.986 5.045 47.665-14.512 61.488l-25.818 18.248a2 2 0 0 0 2.31 3.26l25.818-18.247c20.892-14.765 27.572-43.005 16.364-65.413l-.02-.042"/>
        <path fill="#756B5E" d="M459.581 1241.845l1.065-1.69.091.056.083.066-1.239 1.568zm78.92 134.998c-.002 0-3.309-1.637-4.482-2.154l12.738-28.311c11.22-25.128.397-55.233-24.252-67.322l-62.039-39.034c-21.65-17.07-53.724-13.974-71.706 6.922l-72.702 84.485a1.996 1.996 0 0 0 .216 2.816c.838.72 2.102.624 2.822-.213l72.71-84.487c16.584-19.27 46.24-22.135 66.207-6.39l.503.38 62.187 39.055c22.78 11.111 32.862 38.947 22.503 62.145l-12.639 28.308a841.249 841.249 0 0 1-3.95-1.757 2.283 2.283 0 0 0-.455-.285c-16.91-8.183-37.367-1.384-45.839 15.303l-21.526 42.4a1.996 1.996 0 0 0 .88 2.685 2.002 2.002 0 0 0 2.688-.878l21.526-42.4c7.204-14.191 24.246-20.293 38.85-14.266.03.025.056.04.302.193.098.053.232.118.447.217.87.406 3.187 1.44 7.283 3.247 3.838 1.695 5.96 2.623 6.684 2.929.254.106.336.14.468.177a.88.88 0 0 0 .16.036.035.035 0 0 0 .008.004c14.125 6.778 21.314 23.581 16.117 38.553l-15.519 44.708a1.998 1.998 0 0 0 1.235 2.542 2.001 2.001 0 0 0 2.545-1.234l15.518-43.71c6.13-17.656-2.118-37.673-19.489-44.664zM1230.642 330.09l.018.019h.001c.023.022.045.045.07.067.131.122.267.222.405.303.782.758 1.977 1.927 3.618 3.539l-20.954 21.3c-19.327 19.648-19.87 51.976-1.218 72.25l.133.145-22.168 19.188c-19.15 16.577-23.437 45.155-10.936 66.599.082.162.135.266.182.353-.083-.088-.016.02.171.293.04.06.087.129.152.222l.133.194a51.312 51.312 0 0 0 2.99 4.332l.004.007c.022.029.041.058.063.086l.006.007.623.9c1.197 1.734 2.187 3.17 2.981 4.323.053.153.126.307.221.461 14.514 23.52 45.488 32.104 69.707 19.15l168.681-90.223a1.995 1.995 0 0 0 .82-2.703 2.001 2.001 0 0 0-2.708-.818l-168.682 90.223c-21.07 11.27-47.758 4.847-61.977-14.148l-.003-.003c-.123-.344-.132-.355-.153-.37-.574-.874-2.295-3.383-5.595-8.16a4711.397 4711.397 0 0 0-3.645-5.276c-12.166-19.923-8.346-46.91 9.585-62.43l22.133-19.158 1.176 1.504c16.965 21.709 48.967 26.47 71.537 10.639l91.718-64.33a1.995 1.995 0 0 0 .487-2.783 2.002 2.002 0 0 0-2.786-.488l-91.718 64.332c-20.827 14.608-50.43 10.204-66.085-9.828l-2.47-3.162-.039-.04c-.01-.012-.017-.026-.027-.04-.018-.02-.04-.034-.058-.054l-1.508-1.648c-17.212-18.707-16.708-48.616 1.127-66.746l20.95-21.296a1751.39 1751.39 0 0 1 3.116 3.078c.08.124.176.245.29.363l.051.05.071.07c13.052 13.368 34.705 14.163 48.592 1.703l35.194-31.575c.821-.737.89-2 .151-2.82a2.001 2.001 0 0 0-2.824-.152l-35.194 31.575c-11.9 10.678-30.3 10.353-41.948-.435l-.009-.008c-.024-.037-.034-.05-.044-.062a8.078 8.078 0 0 0-.434-.467c-.669-.676-2.46-2.45-5.628-5.567l-.005-.006-.006-.004c-3.223-3.172-5.097-5.002-5.87-5.738a18.419 18.419 0 0 0-.38-.354c-.067-.06-.067-.06-.316-.24l-.025-.014a.043.043 0 0 0-.006-.007c-11.178-11.36-11.869-29.882-1.324-42.033l31.037-35.767a1.996 1.996 0 0 0-.202-2.817 2.001 2.001 0 0 0-2.82.2l-31.038 35.767c-12.257 14.125-11.08 35.812 2.61 48.529"/>
        <path fill="#756B5E" d="M1048.976 493.311l1.2.993c.913.762 1.975 1.661 3.172 2.69a424.962 424.962 0 0 1 11.357 10.134c11.754 10.855 23.507 22.768 34.472 35.365 11.152 12.812 20.86 25.628 28.705 38.244 10.79 19.43 24.75 49.914 30.808 67.51a1.999 1.999 0 0 0 2.541 1.239 1.995 1.995 0 0 0 1.241-2.538c-6.138-17.831-20.195-48.526-31.142-68.234-8.017-12.897-17.85-25.879-29.134-38.841-11.068-12.716-22.922-24.731-34.775-35.677a432.68 432.68 0 0 0-11.464-10.231 287.364 287.364 0 0 0-4.073-3.434c-19.138-17.483-22.992-48.288-8.775-69.308l152.13-224.935a1.995 1.995 0 0 0-.538-2.773 2.001 2.001 0 0 0-2.777.537l-152.129 224.935c-15.344 22.687-11.198 55.727 9.181 74.324M1460.86 529.881l-230 88.388a1.995 1.995 0 0 0-1.144 2.583 2 2 0 0 0 2.586 1.144l230-88.389a1.998 1.998 0 1 0-1.442-3.726M384.447 1387.308c.91.625 2.155.397 2.782-.512l47.5-69.412a1.998 1.998 0 0 0-.513-2.779 2.003 2.003 0 0 0-2.782.513l-47.5 69.412a1.997 1.997 0 0 0 .513 2.778M620.653 1056.89a2 2 0 0 0-2.76.617l-88 138.824a1.996 1.996 0 0 0 .616 2.757 2.002 2.002 0 0 0 2.76-.617l88-138.824a1.995 1.995 0 0 0-.616-2.756"/>
        <g fill="#FAFAF5">
            <path d="M721.835 759.188c8.277 0 11.37 10.983 11.37 10.983S737.36 783 745.826 783c6.34 0 7.75-5.239 8.062-7.541.008-.105.014-.208.024-.314.017-.21.038-.417.056-.626.004-.041.005-.08.01-.125.289-3.041-2.227-3.995-2.227-3.995v-.002c-2.48-.844-4.669-2.399-6.556-4.603-5.26-6.14-2.456-14.11 3.702-19.584-2.875-3.333-6.625-7.18-9.903-8.93-7.206-3.847-12.945 2.157-13.38 2.63-.03.039-.058.079-.088.12a77.744 77.744 0 0 0-1.444 2.058 80.872 80.872 0 0 0-1.513 2.314l-.078.125c-.407.66-.817 1.317-1.205 1.989l-.245.416a80.706 80.706 0 0 0-2.436 4.534l-.21.426a78.03 78.03 0 0 0-1.039 2.201l-.049.105a83.338 83.338 0 0 0-1.023 2.37l-.182.454c-.262.64-.519 1.283-.757 1.933l-.197.521a82.48 82.48 0 0 0-.847 2.414c-.034.101-.066.206-.099.309-.069.212-.133.428-.201.64 1.762-1.95 4.306-3.651 7.835-3.651"/>
            <path d="M828.552 734.595c1.77-.995 4.28-.776 6.3.732 2.018 1.509 2.937 3.851 2.478 5.825-1.768.996-4.281.775-6.3-.732-2.019-1.508-2.938-3.851-2.478-5.825m-89.375-.765c4.358 1.43 9.292 5.552 12.81 8.924a25.315 25.315 0 0 1 7.214-2.9c-1.944-4.022-4.547-10.416-3.973-14.893 1.163-9.082 11.13-9.78 11.13-9.78s-9.147 1.963-8.559 10.431c.287 4.106 3.806 10.122 6.105 13.656 5.677-.08 10.61 2.191 12.84 6.501.225.434.413.88.572 1.333h.005s.704 1.513 1.905 1.95c2.97.95 6.164 2.076 9.494 3.41 4.273 1.71 9.004 3.87 13.828 6.554.744.412 1.47-.568.856-1.154-22.201-21.26-6.526-29.561-6.526-29.561-8.024 11.581 5.384 19.945 20.777 28.582 13.562 7.607 23.167 15.85 33.668 10.302 5.237-2.765 1.58-8.92-.78-12.326-1.775-2.563-2.98-4.132-4.562-7.511-.785-1.678-1.048-3.567-.652-5.376.553-2.533-.323-5.514-2.242-8.535-1.428-2.247-4.17-4.617-6.214-6.207a17.191 17.191 0 0 1-3.474-3.598c-7.3-10.254-26.235-14.546-26.235-14.546v-.003A79.763 79.763 0 0 0 789.02 707c-12.687 0-24.675 2.978-35.308 8.262l-.003.001a79.43 79.43 0 0 0-15.783 10.35l-.61.514a58.831 58.831 0 0 0-3.401 3.098l-.027.027a79.223 79.223 0 0 0-1.882 1.876l-.026.028a80.614 80.614 0 0 0-3.672 4.062c-.104.124-.204.253-.308.38 2.257-1.922 5.879-3.507 11.177-1.768M753.963 794.884a82.188 82.188 0 0 1-.366-5.233 15.21 15.21 0 0 1-5.968 1.222c-15.741 0-16.136-15.596-21.684-24.207-5.801-9.005-13.878.764-14.684 6.015-.038.252-.076.449-.11.601-.09.535-.184 1.068-.265 1.608-.033.223-.061.449-.094.674a61.423 61.423 0 0 0-.248 1.95c-.026.226-.053.45-.076.675a81.9 81.9 0 0 0-.239 2.58c-.006.09-.01.182-.017.273a82.53 82.53 0 0 0-.131 2.353 78.932 78.932 0 0 0-.074 3.013c0 .098-.005.193-.005.29-.002.033 0 .065 0 .098l-.002.103c0 .337.01.671.013 1.006.004.318.004.635.012.95.011.483.032.962.05 1.44.009.194.013.389.023.582 1.27 26.31 15.073 49.31 35.539 63.123-6.573-6.5-10.506-14.74-10.506-23.708 0-11.15 6.078-21.565 15.759-28.6a7.496 7.496 0 0 0 3.073-6.808"/>
            <path d="M815 846.353c-3.63 1.504-8.899 3.203-14.895 3.618-.874.061-1.78.095-2.712.095-10.027 0-23.08-3.92-33.13-20.638l-1.313-2.181c-1.518 2.284-2.37 4.84-2.37 7.613 0 11.34 13.551 21.626 29.82 21.626 4.254 0 9.28-.494 12.929-1.625-3.74 2.338-11.26 4.533-17.786 4.533-18.665 0-34.27-12.418-34.27-27.149 0-4.95 1.704-10.084 4.675-14.377a6.762 6.762 0 0 0 .88-5.868C748.245 816.99 743 824.6 743 833.715c0 14.033 12.457 26.035 30.082 30.935.998.214 2.003.406 3.015.584 12.735 2.134 24.036-.138 31.694-7.472 3.286-3.145 5.671-7.01 7.209-11.409"/>
            <path d="M850.798 735c8.297 11.771 13.177 26.172 13.177 41.726.001 26.834-14.535 50.234-36.08 62.618l-.151.14c.003-.184-.01-.34.117-1.075.542-3.188 1.733-6.243 3.565-8.895 6.088-8.815 10.14-22.281-.232-39.66-5.723-9.588-17.689-23.108-42.2-33.068a136.345 136.345 0 0 0-10.893-3.889c-.05-.016-.1-.03-.148-.046-.867-.268-1.71-.52-2.529-.756-.04-.013-.081-.024-.121-.036-.825-.237-1.623-.46-2.392-.667l-.069-.019c-.37-.099-.734-.195-1.09-.288l-.054-.014c-.736-.19-1.439-.367-2.108-.53l-.11-.026a116.016 116.016 0 0 0-1.996-.468c-.271-.06-.535-.12-.79-.175l-.033-.008a92.627 92.627 0 0 0-.917-.195c-.198-.043-.39-.082-.576-.12l-.144-.03c-.213-.044-.42-.085-.614-.123l-.12-.024-.452-.088-.15-.028-.482-.09c-.03.109-.064.225-.098.344-.01.039-.023.08-.034.12l-.075.26-.042.15-.072.256c-.015.06-.033.121-.05.183l-.071.261-.053.192c-.025.095-.052.19-.077.289l-.054.198a36.266 36.266 0 0 0-.136.518l-.1.385a58.1 58.1 0 0 0-.065.254c-.04.15-.077.302-.117.458l-.056.23c-.031.123-.063.244-.092.37l-.066.264-.086.356-.071.299-.083.35a48.71 48.71 0 0 0-.159.684l-.075.323-.09.397-.07.315c-.035.151-.067.307-.102.463-.03.14-.06.279-.092.42l-.126.59-.068.33-.094.453c-.027.126-.051.254-.078.381a98.15 98.15 0 0 0-.084.42l-.08.404a106.916 106.916 0 0 0-.162.84l-.084.448c-.026.138-.053.275-.078.415l-.084.467c-.025.138-.052.276-.075.417l-.093.533-.074.422c-.047.274-.093.55-.138.827l-.068.41-.084.533-.068.44c-.027.172-.055.346-.08.52l-.07.464-.075.51-.067.48-.073.527-.064.471-.073.56-.06.464-.076.624-.05.41a132.556 132.556 0 0 0-.457 4.517l-.009.12c-.039.463-.075.933-.11 1.407 0 .013 0 .027-.002.04-.033.46-.064.93-.092 1.405l-.005.066c-.028.47-.053.945-.076 1.426l-.002.019c-.12 2.495-.171 5.131-.123 7.863.058 3.372.271 6.892.692 10.486.035.291.067.581.103.871.586 4.628 1.526 9.362 2.945 14.05 1.037 3.178 2.706 7.622 4.287 10.868a62.466 62.466 0 0 0 2.273 4.178c7.527 12.611 17.56 18.99 29.847 18.99.847 0 1.7-.03 2.57-.09 7.378-.516 13.533-3.137 16.49-4.62 4.02-20.182-6.825-48.88-29.424-72.81a133.208 133.208 0 0 0-9.89-9.46c7.522 5.701 11.316 8.79 15.683 13.414 30.868 32.682 40.55 73.975 21.628 92.228-2.805 2.705-6.082 4.747-9.727 6.167 4.8-1.382 9.061-3.734 12.58-7.128a28.438 28.438 0 0 0 3.068-3.495C849.83 849.291 870 820.687 870 787.314c0-19.99-7.237-38.268-19.202-52.314"/>
        </g>
    </g>
</svg>
