<?xml version="1.0" encoding="utf-8"?>
<!-- Generator: Adobe Illustrator 19.0.0, SVG Export Plug-In . SVG Version: 6.00 Build 0)  -->
<svg version="1.1" id="Lock" xmlns="http://www.w3.org/2000/svg" xmlns:xlink="http://www.w3.org/1999/xlink" x="0px" y="0px"
	viewBox="-633 395.4 12 12.6" style="enable-background:new -633 395.4 12 12.6;" xml:space="preserve">
	<g fill="#444444">
		<path d="M-623,400.9h-0.6l0.1-0.2c0.8-1.9,0-4-1.8-4.9l-0.2-0.1c-1.8-0.8-4,0.1-4.8,2l1.4,0.6c0.5-1.1,1.8-1.6,2.9-1.1
			s1.6,1.8,1.1,2.9l-0.3,0.8h-1.6h-0.2h-1.3h-0.8h-1.5h-0.2c-0.4,0-0.7,0.4-0.7,0.8v5.5c0,0.5,0.3,0.8,0.7,0.8h7.9
			c0.4,0,0.7-0.4,0.7-0.8v-5.5C-622.4,401.3-622.7,400.9-623,400.9z M-626.3,404.5v1.7c0,0.2-0.2,0.4-0.3,0.4h-0.8
			c-0.2,0-0.3-0.2-0.3-0.4v-1.7c-0.2-0.2-0.3-0.4-0.3-0.7c0-0.5,0.4-1,0.9-1c0.1,0,0.2,0,0.2,0c0.5,0,0.9,0.5,0.9,1
			C-626,404.1-626.1,404.3-626.3,404.5z"/>
		</g>
	</svg>
