<?xml version="1.0" encoding="utf-8"?>
<svg version="1.1" id="arrow-left" xmlns="http://www.w3.org/2000/svg" xmlns:xlink="http://www.w3.org/1999/xlink" x="0px" y="0px" 
	 width="12" height="12" viewBox="-455 264.5 19.5 33.4" style="enable-background:new -455 264.5 19.5 33.4;" xml:space="preserve">
<g fill="#FFFFFF">
	<path id="XMLID_3_" d="M-439.1,297.6l-15.6-15.6c-0.2-0.2-0.3-0.5-0.3-0.8c0-0.3,0.1-0.6,0.3-0.8l15.6-15.6
		c0.2-0.2,0.5-0.3,0.7-0.3c0.2,0,0.6,0.1,0.8,0.3l1.7,1.7c0.2,0.2,0.3,0.5,0.3,0.8c0,0.2-0.1,0.5-0.3,0.7l-13.2,13.2l13.2,13.2
		c0.2,0.2,0.3,0.5,0.3,0.7c0,0.2-0.1,0.6-0.3,0.8l-1.7,1.7c-0.2,0.2-0.5,0.3-0.8,0.3C-438.7,297.9-438.9,297.8-439.1,297.6z"/>
</g>
</svg>
