<?xml version="1.0" encoding="utf-8"?>
<svg version="1.1" id="Capa_1" xmlns="http://www.w3.org/2000/svg" xmlns:xlink="http://www.w3.org/1999/xlink" x="0px" y="0px"
	 width="12" height="12" viewBox="-455 264.5 19.5 33.4" style="enable-background:new -455 264.5 19.5 33.4;" xml:space="preserve">
  <g fill="#FFFFFF"
    id="XMLID_2_">
    <path id="XMLID_3_" d="M-451.5,264.8l15.6,15.6c0.2,0.2,0.3,0.5,0.3,0.8c0,0.3-0.1,0.6-0.3,0.8l-15.6,15.6
      c-0.2,0.2-0.5,0.3-0.7,0.3c-0.2,0-0.6-0.1-0.8-0.3l-1.7-1.7c-0.2-0.2-0.3-0.5-0.3-0.8c0-0.2,0.1-0.5,0.3-0.7l13.2-13.2l-13.2-13.2
      c-0.2-0.2-0.3-0.5-0.3-0.7s0.1-0.6,0.3-0.8l1.7-1.7c0.2-0.2,0.5-0.3,0.8-0.3C-451.9,264.5-451.7,264.6-451.5,264.8z"/>
  </g>
</svg>
