<?xml version="1.0" encoding="utf-8"?>
<svg version="1.1" id="Capa_1" xmlns="http://www.w3.org/2000/svg" xmlns:xlink="http://www.w3.org/1999/xlink" x="0px" y="0px"
	 width="12" height="12" viewBox="0 0 33.4 19.5" style="enable-background:new 0 0 33.4 19.5;" xml:space="preserve">
<g fill="#FFFFFF">
	<path id="XMLID_4_" d="M33.1,17.5l-1.7,1.7c-0.2,0.2-0.5,0.3-0.8,0.3c-0.3,0-0.6-0.1-0.8-0.3L16.7,6L3.5,19.2
		c-0.2,0.2-0.5,0.3-0.8,0.3S2.2,19.4,2,19.2l-1.7-1.7C0.1,17.3,0,17,0,16.7s0.1-0.6,0.3-0.8L15.9,0.3C16.1,0.1,16.4,0,16.7,0
		s0.6,0.1,0.8,0.3l15.6,15.6c0.2,0.2,0.3,0.5,0.3,0.8S33.3,17.3,33.1,17.5z"/>
</g>
</svg>
