<?xml version="1.0" encoding="utf-8"?>
<!-- Generator: Adobe Illustrator 22.1.0, SVG Export Plug-In . SVG Version: 6.00 Build 0)  -->
<svg version="1.1" id="Capa_1" xmlns="http://www.w3.org/2000/svg" xmlns:xlink="http://www.w3.org/1999/xlink" x="0px" y="0px"
	 viewBox="0 0 25.6 25.6" style="enable-background:new 0 0 25.6 25.6;" xml:space="preserve">
<style type="text/css">
	.st0{fill:#FFFFFF;}
</style>
<g>
	<path class="st0" d="M12.8,0.4C5.7,0.4,0,5.5,0,11.7c0,3.2,1.5,6,3.9,8.1c-0.5,3-3.9,4.2-3.7,5.1c2.8,1.2,8.5-1.4,9.9-2.1
		c0.9,0.2,1.8,0.3,2.7,0.3c7.1,0,12.8-5.1,12.8-11.3S19.9,0.4,12.8,0.4z M11.9,12.2c0,3.1-1.4,4.8-4,5.1c0,0,0,0,0,0
		c0,0-0.1,0-0.1,0c0,0,0-0.1,0-0.1v-1.6c0,0,0-0.1,0.1-0.1c1.2-0.7,1.8-1.7,1.9-3.2H7.8c-0.1,0-0.1-0.1-0.1-0.1V8.3
		c0-0.1,0.1-0.1,0.1-0.1h3.9c0.1,0,0.1,0.1,0.1,0.1C11.9,8.3,11.9,12.2,11.9,12.2z M18.9,12.2c0,3-1.2,4.6-4,5.1c0,0,0,0,0,0
		c0,0-0.1,0-0.1,0c0,0,0-0.1,0-0.1v-1.6c0,0,0-0.1,0.1-0.1c1.2-0.7,1.8-1.7,1.9-3.2h-1.8c-0.1,0-0.1-0.1-0.1-0.1V8.3
		c0-0.1,0.1-0.1,0.1-0.1h3.9c0.1,0,0.1,0.1,0.1,0.1V12.2z"/>
</g>
</svg>
