<?xml version="1.0" encoding="utf-8"?>
<!DOCTYPE svg PUBLIC "-//W3C//DTD SVG 1.1//EN" "http://www.w3.org/Graphics/SVG/1.1/DTD/svg11.dtd">
<svg version="1.1" id="Capa_1" xmlns="http://www.w3.org/2000/svg" xmlns:xlink="http://www.w3.org/1999/xlink" x="0px" y="0px"
	 viewBox="0 0 248.8 239.1" enable-background="new 0 0 248.8 239.1" xml:space="preserve">
	<g fill="#FFF">
		<path d="M93,79.5L77.9,65.2c1.8-3.2,2.9-6.8,2.9-10.7c0-12.4-10-22.4-22.4-22.4s-22.5,10-22.5,22.4s10.1,22.4,22.5,22.4
			c4.4,0,8.4-1.3,11.9-3.5l15.1,14.3C87.5,84.8,90.1,82,93,79.5z"/>
		<path d="M157,77.8l20.1-33.8c2,0.6,4,1,6.2,1c12.4,0,22.5-10,22.5-22.4c0-12.4-10-22.4-22.5-22.4c-12.4,0-22.4,10-22.4,22.4
			c0,6.2,2.5,11.7,6.5,15.8l-20,33.7C150.8,73.5,154,75.5,157,77.8z"/>
		<path d="M226.4,106.1c-9.7,0-17.8,6.1-21,14.7l-27.9-2.8c0,0.2,0,0.4,0,0.6c0,3.6-0.4,7.2-1.1,10.6l27.9,2.8
			c1.7,10.7,10.9,18.9,22.1,18.9c12.4,0,22.4-10,22.4-22.4C248.8,116.1,238.8,106.1,226.4,106.1z"/>
		<path d="M149.3,194.3L143,167c-3.5,1.2-7.2,2.1-11,2.5l6.3,27.3c-7.2,3.8-12.1,11.2-12.1,19.8c0,12.4,10,22.4,22.5,22.4
			c12.4,0,22.4-10,22.4-22.4C171,204.5,161.3,194.7,149.3,194.3z"/>
		<path d="M76,129.5l-34.8,11.7c-4-6.1-10.9-10.2-18.8-10.2C10,130.9,0,141,0,153.4c0,12.4,10,22.5,22.4,22.5
			c12.4,0,22.5-10,22.5-22.5c0-0.5-0.1-1-0.2-1.5l34.9-11.7C78.1,136.8,76.8,133.2,76,129.5z"/>
		<circle cx="126.1" cy="118.6" r="38.5"/>
	</g>
</svg>
