<?xml version="1.0" encoding="iso-8859-1"?>
<!DOCTYPE svg PUBLIC "-//W3C//DTD SVG 1.1//EN" "http://www.w3.org/Graphics/SVG/1.1/DTD/svg11.dtd">
<svg xmlns="http://www.w3.org/2000/svg" xmlns:xlink="http://www.w3.org/1999/xlink" version="1.1" id="Capa_1" x="0px" y="0px" width="16px" height="16px" viewBox="0 0 32.045 32.046" style="enable-background:new 0 0 32.045 32.046;" xml:space="preserve">
<g>
	<g>
		<path d="M25.302,6.499h-2.308v-0.6c0-1.181-0.957-2.138-2.137-2.138h-1.021C19.807,1.675,18.108,0,16.022,0    c-2.086,0-3.785,1.675-3.815,3.761h-1.021c-1.18,0-2.137,0.957-2.137,2.138v0.6H6.742c-0.765,0-1.408,0.618-1.408,1.383v22.78    c0,0.765,0.643,1.384,1.408,1.384h18.561c0.766,0,1.408-0.619,1.408-1.384V7.881C26.71,7.117,26.067,6.499,25.302,6.499z     M16.022,1.999c0.984,0,1.788,0.785,1.817,1.762h-3.634C14.235,2.784,15.038,1.999,16.022,1.999z M24.95,30.35H7.094V8.192h1.955    v1.564h13.945V8.192h1.955V30.35z" fill="#FFFFFF"/>
		<path d="M22.476,12.69h-4.495c-0.707,0-1.283,0.527-1.283,1.236s0.576,1.238,1.283,1.238h4.495c0.708,0,1.282-0.529,1.282-1.238    S23.184,12.69,22.476,12.69z" fill="#FFFFFF"/>
		<path d="M11.481,13.864l-0.965-0.752c-0.238-0.187-0.58-0.156-0.782,0.068l-0.556,0.616c-0.106,0.118-0.159,0.275-0.146,0.435    c0.014,0.159,0.092,0.305,0.217,0.403l1.683,1.328c0.406,0.321,0.988,0.287,1.354-0.079l2.949-2.949    c0.143-0.143,0.223-0.336,0.223-0.538s-0.08-0.396-0.223-0.538l-0.337-0.337c-0.297-0.297-0.778-0.297-1.075,0L11.481,13.864z" fill="#FFFFFF"/>
		<path d="M22.476,18.424h-4.495c-0.707,0-1.283,0.529-1.283,1.238c0,0.707,0.576,1.238,1.283,1.238h4.495    c0.708,0,1.282-0.531,1.282-1.238C23.758,18.954,23.184,18.424,22.476,18.424z" fill="#FFFFFF"/>
		<path d="M11.481,19.598l-0.965-0.752c-0.238-0.186-0.58-0.154-0.782,0.069l-0.556,0.616c-0.106,0.117-0.159,0.275-0.146,0.435    c0.014,0.158,0.092,0.306,0.217,0.403l1.683,1.328c0.407,0.32,0.989,0.285,1.355-0.08l2.95-2.949    c0.143-0.143,0.223-0.336,0.223-0.538c0-0.2-0.08-0.396-0.223-0.538L14.9,17.255c-0.297-0.297-0.778-0.297-1.075,0L11.481,19.598z    " fill="#FFFFFF"/>
		<path d="M22.476,23.963h-4.495c-0.707,0-1.283,0.529-1.283,1.238s0.576,1.238,1.283,1.238h4.495c0.708,0,1.282-0.529,1.282-1.238    S23.184,23.963,22.476,23.963z" fill="#FFFFFF"/>
		<path d="M11.481,25.137l-0.965-0.752c-0.238-0.188-0.58-0.156-0.782,0.068l-0.556,0.615c-0.106,0.119-0.16,0.275-0.146,0.436    c0.013,0.159,0.092,0.305,0.217,0.402l1.683,1.33c0.407,0.32,0.989,0.285,1.355-0.08l2.95-2.95c0.297-0.298,0.297-0.776,0-1.075    L14.9,22.794c-0.143-0.144-0.336-0.224-0.538-0.224s-0.395,0.08-0.538,0.224L11.481,25.137z" fill="#FFFFFF"/>
	</g>
</g>
</svg>
