<?xml version="1.0" encoding="utf-8"?>
<svg version="1.1" id="Capa_1" xmlns="http://www.w3.org/2000/svg" xmlns:xlink="http://www.w3.org/1999/xlink" x="0px" y="0px"
	 width="12px" height="12px" viewBox="-633 395 12 12" style="enable-background:new -633 395 12 12;" xml:space="preserve">
<path fill="#FFFFFF" id="XMLID_3_" d="M-623,400l-7,7h-3v-3l7-7L-623,400z M-629.2,404.7l-1.6-1.6l-1.2,1.2v0.6h1v1h0.6L-629.2,404.7z
	 M-626.1,398.5l-3.7,3.7c-0.1,0.1-0.1,0.3,0,0.3c0.1,0.1,0.3,0.1,0.3,0l3.7-3.7c0.1-0.1,0.1-0.3,0-0.3
	C-625.9,398.4-626,398.4-626.1,398.5z M-622.3,399.3l-3-3l1-1c0.4-0.4,1-0.4,1.4,0l1.6,1.6c0.4,0.4,0.4,1,0,1.4L-622.3,399.3z"/>
</svg>
