<?xml version="1.0" encoding="utf-8"?>
<!-- Generator: Adobe Illustrator 19.0.0, SVG Export Plug-In . SVG Version: 6.00 Build 0)  -->
<svg version="1.1" id="Capa_1" xmlns="http://www.w3.org/2000/svg" xmlns:xlink="http://www.w3.org/1999/xlink" x="0px" y="0px"
	 width="12px" height="12px" viewBox="-451 255.2 55.8 51.8" style="enable-background:new -451 255.2 55.8 51.8;" xml:space="preserve">
<style type="text/css">
	.st0{enable-background:new    ;}
</style>
<g class="st0">
	<path d="M-395.5,271.5l-9.2,30.3c-0.8,2.8-3.8,5.1-6.7,5.1h-30.9c-3.4,0-7.1-2.7-8.3-6.2c-0.5-1.5-0.5-3-0.1-4.3
		c0.1-0.7,0.2-1.3,0.2-2.1c0-0.5-0.3-1-0.2-1.4c0.1-0.8,0.8-1.4,1.4-2.3c1-1.7,2.1-4.4,2.5-6.1c0.2-0.6-0.2-1.4,0-1.9
		c0.2-0.6,0.8-1.1,1.1-1.7c0.9-1.5,2.1-4.5,2.2-6.1c0.1-0.7-0.3-1.5-0.1-2c0.2-0.8,1-1.1,1.5-1.8c0.8-1.1,2.1-4.3,2.3-6.1
		c0.1-0.6-0.3-1.1-0.2-1.7c0.1-0.6,0.9-1.3,1.5-2.1c1.4-2.1,1.7-6.7,5.9-5.5l0,0.1c0.6-0.1,1.1-0.3,1.7-0.3h25.5
		c1.6,0,3,0.7,3.8,1.9c0.9,1.2,1.1,2.8,0.6,4.4L-410,292c-1.6,5.2-2.4,6.3-6.7,6.3h-29.1c-0.4,0-1,0.1-1.3,0.5
		c-0.3,0.4-0.3,0.7,0,1.4c0.7,1.9,3,2.3,4.8,2.3h30.9c1.2,0,2.7-0.7,3-1.9l10-33c0.2-0.6,0.2-1.3,0.2-1.9c0.8,0.3,1.5,0.8,2,1.4
		C-395.3,268.4-395.1,269.9-395.5,271.5z M-433.8,276.9h20.4c0.6,0,1.2-0.5,1.4-1.1l0.7-2.1c0.2-0.6-0.1-1.1-0.7-1.1h-20.4
		c-0.6,0-1.2,0.5-1.4,1.1l-0.7,2.1C-434.7,276.4-434.4,276.9-433.8,276.9z M-431,268.3h20.4c0.6,0,1.2-0.5,1.4-1.1l0.7-2.1
		c0.2-0.6-0.1-1.1-0.7-1.1h-20.4c-0.6,0-1.2,0.5-1.4,1.1l-0.7,2.1C-432,267.8-431.6,268.3-431,268.3z"/>
</g>
</svg>
