<?xml version="1.0" encoding="utf-8"?>
<!-- Generator: Adobe Illustrator 18.0.0, SVG Export Plug-In . SVG Version: 6.00 Build 0)  -->
<!DOCTYPE svg PUBLIC "-//W3C//DTD SVG 1.1//EN" "http://www.w3.org/Graphics/SVG/1.1/DTD/svg11.dtd">
<svg version="1.1" id="Capa_1" xmlns="http://www.w3.org/2000/svg" xmlns:xlink="http://www.w3.org/1999/xlink" x="0px" y="0px"
	 width="12" height="12" viewBox="0 0 106.6 101.7" enable-background="new 0 0 106.6 101.7" xml:space="preserve">
<g>
	<path fill="#424242" d="M104.7,42.6L81.5,65.2l5.5,32C87,97.6,87,98,87,98.5c0,1.7-0.8,3.2-2.6,3.2c-0.9,0-1.8-0.3-2.6-0.8
		L53.2,85.8l-28.7,15.1c-0.8,0.4-1.7,0.8-2.6,0.8c-1.9,0-2.7-1.5-2.7-3.2c0-0.4,0.1-0.8,0.1-1.3l5.5-32L1.6,42.6
		C0.8,41.8,0,40.7,0,39.5c0-1.9,2-2.7,3.6-2.9l32.1-4.7L50,2.9c0.6-1.2,1.7-2.6,3.1-2.6s2.6,1.4,3.1,2.6l14.4,29.1l32.1,4.7
		c1.5,0.3,3.6,1,3.6,2.9C106.3,40.7,105.5,41.8,104.7,42.6z M92.2,43.4l-27-4L53.2,15L41.1,39.4l-27,4l19.6,19L29,89.2l24.2-12.7
		l24.1,12.7l-4.6-26.9L92.2,43.4z"/>
</g>
</svg>
