<?xml version="1.0" encoding="iso-8859-1"?>
<!-- Generator: Adobe Illustrator 16.0.0, SVG Export Plug-In . SVG Version: 6.00 Build 0)  -->
<!DOCTYPE svg PUBLIC "-//W3C//DTD SVG 1.1//EN" "http://www.w3.org/Graphics/SVG/1.1/DTD/svg11.dtd">
<svg version="1.1" id="Capa_1" xmlns="http://www.w3.org/2000/svg" xmlns:xlink="http://www.w3.org/1999/xlink" x="0px" y="0px"
	 width="14px" height="14px" viewBox="0 0 94.602 94.602" style="enable-background:new 0 0 94.602 94.602;"
	 xml:space="preserve">
<g>
	<g>
		<path d="M31.485,35.352h32c0.828,0,1.5-0.671,1.5-1.5V16.519c0-0.828-0.672-1.5-1.5-1.5H52.742l-2.107-5.533
			c-0.221-0.582-0.779-0.966-1.402-0.966H31.516c-0.826,0-1.498,0.67-1.5,1.498L29.985,33.85c-0.002,0.398,0.156,0.78,0.438,1.063
			C30.703,35.194,31.086,35.352,31.485,35.352z"/>
		<path d="M15.705,61.115c-0.201-0.178-0.459-0.276-0.729-0.276H1.096C0.491,60.839,0,61.328,0,61.935v23.015
			c0,0.604,0.49,1.096,1.096,1.096h17.17c0.605,0,1.096-0.49,1.096-1.096V64.857c0-0.313-0.135-0.611-0.369-0.82L15.705,61.115z
			 M17.17,83.853H2.192V63.029h12.369l2.609,2.318V83.853z"/>
		<path d="M53.287,61.152c-0.201-0.179-0.461-0.276-0.729-0.276h-13.88c-0.605,0-1.096,0.489-1.096,1.096v23.015
			c0,0.604,0.49,1.096,1.096,1.096h17.168c0.605,0,1.096-0.49,1.096-1.096V64.894c0-0.312-0.135-0.61-0.367-0.819L53.287,61.152z
			 M54.75,83.889H39.774V63.066h12.367l2.609,2.319V83.889z"/>
		<path d="M94.232,64.074l-3.287-2.924c-0.201-0.178-0.459-0.275-0.729-0.275H76.336c-0.605,0-1.096,0.49-1.096,1.096v23.014
			c0,0.605,0.49,1.097,1.096,1.097h17.17c0.605,0,1.096-0.49,1.096-1.097V64.894C94.602,64.58,94.467,64.281,94.232,64.074z
			 M92.41,83.889H77.432V63.066h12.369l2.609,2.319V83.889z"/>
		<polygon points="7.474,46.229 47.15,46.229 47.15,54.775 49.105,54.775 49.105,46.229 87.128,46.229 87.128,54.775 89.083,54.775 
			89.083,44.251 49.135,44.251 49.135,39.824 47.18,39.824 47.18,44.251 5.519,44.251 5.519,54.775 7.474,54.775 		"/>
	</g>
</g>
</svg>
