<?xml version="1.0" encoding="utf-8"?>
<!-- Generator: Adobe Illustrator 19.0.0, SVG Export Plug-In . SVG Version: 6.00 Build 0)  -->
<svg version="1.1" id="Capa_1" xmlns="http://www.w3.org/2000/svg" xmlns:xlink="http://www.w3.org/1999/xlink" x="0px" y="0px"
	 width="12px" height="12px" viewBox="363.6 252.8 71.8 56.6" style="enable-background:new 363.6 252.8 71.8 56.6;" xml:space="preserve">
<g id="XMLID_1_">
	<path id="XMLID_3_" d="M420.2,297.8c0,6.4-5.2,11.6-11.6,11.6h-33.4c-6.4,0-11.6-5.2-11.6-11.6v-33.4c0-6.4,5.2-11.6,11.6-11.6
		h33.4c1.6,0,3.2,0.3,4.7,1c0.4,0.2,0.6,0.5,0.7,0.9s0,0.8-0.4,1.2l-2,2c-0.4,0.4-0.8,0.5-1.3,0.3c-0.6-0.2-1.2-0.2-1.8-0.2h-33.4
		c-3.5,0-6.4,2.9-6.4,6.4v33.4c0,3.5,2.9,6.4,6.4,6.4h33.4c3.5,0,6.4-2.9,6.4-6.4v-5.1c0-0.3,0.1-0.6,0.4-0.9l2.6-2.6
		c0.4-0.4,0.9-0.5,1.4-0.3s0.8,0.6,0.8,1.2L420.2,297.8L420.2,297.8z M427.9,272.1l-27,27h-11.6v-11.6l27-27L427.9,272.1z
		 M404,290.6l-6.1-6.1l-4.7,4.7v2.2h3.9v3.9h2.2L404,290.6z M415.7,266.4l-14.1,14.1c-0.4,0.4-0.4,1,0,1.3c0.4,0.4,1,0.3,1.3,0
		l14.1-14.1c0.4-0.4,0.4-1,0-1.3C416.7,266,416.1,266,415.7,266.4z M430.5,269.6L419,258l3.7-3.7c1.5-1.5,4-1.5,5.5,0l6.1,6.1
		c1.5,1.5,1.5,4,0,5.5L430.5,269.6z"/>
</g>
</svg>
