<?xml version="1.0" encoding="utf-8"?>
<!-- Generator: Adobe Illustrator 18.0.0, SVG Export Plug-In . SVG Version: 6.00 Build 0)  -->
<!DOCTYPE svg PUBLIC "-//W3C//DTD SVG 1.1//EN" "http://www.w3.org/Graphics/SVG/1.1/DTD/svg11.dtd">
<svg version="1.1" id="Capa_1" xmlns="http://www.w3.org/2000/svg" xmlns:xlink="http://www.w3.org/1999/xlink" x="0px" y="0px"
	 viewBox="0 0 13.2 12.5" enable-background="new 0 0 13.2 12.5" xml:space="preserve">
<path d="M11.1,0l2.1,4.5c-2.9,1-3,4.6-3.1,5.7c0,0.3-0.9-0.1-1.1-0.4C8.5,9.1,9.2,7.1,8.9,6.3C8.5,5.2,7.2,5.3,6.7,5.4
	C5.4,5.8,4.6,8.5,4,9.7C3.8,10,2.9,10,2.7,9.7c-0.5-0.9,1.6-4,1.6-4S1.4,7.4,0.9,7.5C0.6,7.6-0.2,6.8,0.1,6.6
	c1.8-1.4,3.9-2.5,3.9-2.5S1.3,5.3,0.4,4.9C0.1,4.8,0,4.3,0.2,4c0.3-0.4,3.5-1.3,3.5-1.3s-2.2,0-2.6-0.1C0.8,2.5,0.5,1.9,1.3,1.5
	c0.1-0.1,6.2-0.3,7.8-0.6C10.1,0.7,11.1,0,11.1,0z"/>
<rect x="5" y="9.3" width="3.2" height="3.2"/>
</svg>
